<svg width="528" height="559" viewBox="0 0 528 559" fill="none" xmlns="http://www.w3.org/2000/svg">
<rect x="68.825" y="294.711" width="176.181" height="15.535" rx="7.7675" fill="#2E3953" stroke="#2E3953" stroke-width="1.34"/>
<path d="M522.427 294.363C520.191 294.363 518.377 292.43 518.377 290.045V251.171C518.373 247.198 515.354 243.978 511.628 243.974H260.432C258.942 244.042 257.536 243.234 256.772 241.868C256.008 240.502 256.008 238.8 256.772 237.434C257.536 236.068 258.942 235.26 260.432 235.329H511.628C519.83 235.338 526.477 242.425 526.485 251.171V290.085C526.46 292.456 524.651 294.363 522.427 294.363V294.363Z" fill="white" stroke="#2E3953" stroke-width="1.34"/>
<g class="bounce">
<path d="M114.876 150.367C105.358 155.551 113.503 171.393 123.484 158.195C160.176 186.427 190.657 200.983 215.025 207.849C213.991 201.007 213.484 194.085 213.508 187.155C213.468 179.756 214.044 172.368 215.23 165.077L215.086 164.94C172.122 164.447 131.683 141.197 114.876 150.367V150.367Z" fill="#EEEEEE"/>
<path d="M308.061 332.331C316.57 326.517 323.919 324.803 330.267 326.048C337.093 283.09 341.006 242.623 331.822 241.62C312.103 239.453 283.404 219.867 255.646 255.117C255.646 255.117 206.539 297.978 214.381 344.211C215.118 348.525 216.298 352.74 217.9 356.778C232.719 359.172 267.076 360.32 308.061 332.331V332.331Z" fill="#F4C439" stroke="#2E3953" stroke-width="1.34"/>
<path d="M287.303 244.354L281.721 238.094C279.445 240.407 227.403 293.822 232.742 347.664C235.305 347.567 238.051 347.397 240.842 347.106C235.692 297.364 286.772 244.896 287.303 244.354Z" fill="white" stroke="#2E3953" stroke-width="1.34"/>
<path d="M309.615 236.356C313.764 241.127 295.403 312.082 280.97 328.013C266.537 343.944 255.396 344.478 245.582 346.508C254.766 342.869 262.988 333.14 259.833 305.928C256.678 278.715 297.329 256.597 290.169 239.817C292.028 239.453 304.42 230.38 309.615 236.356V236.356Z" fill="#2E3953" stroke="#2E3953" stroke-width="1.34"/>
<path d="M214.927 347.163C214.927 347.163 257.087 352.015 275.342 333.949" stroke="#2E3953" stroke-width="1.34"/>
<path d="M310.829 427.903C310.829 427.903 322.448 375.338 330.267 326.048C323.919 324.803 316.57 326.517 308.06 332.331C267.106 360.32 232.719 359.172 217.9 356.778C236.86 404.92 310.829 427.903 310.829 427.903V427.903Z" fill="#FFC6B0"/>
<path d="M293.438 421.247C324.533 434.744 299.179 369.677 288.197 344.001C256.177 359.892 230.247 358.776 217.9 356.778C217.9 356.778 241.873 365.989 255.555 368.326C269.237 370.663 254.85 404.507 293.438 421.247V421.247Z" fill="#FAAD96"/>
<path fill-rule="evenodd" clip-rule="evenodd" d="M310.829 427.903C310.829 427.903 322.448 375.338 330.267 326.048C323.919 324.803 316.57 326.517 308.06 332.331C267.106 360.32 232.719 359.172 217.9 356.778C236.86 404.92 310.829 427.903 310.829 427.903V427.903Z" stroke="#2E3953" stroke-width="1.34"/>
<path d="M351.89 371.019C354.309 344.066 362.75 314.993 380.982 285.354C386.382 242.874 331.86 229.425 331.86 229.425C331.86 229.425 268.752 236.703 271.262 348.707C271.538 362.803 273.319 376.819 276.571 390.485C285.733 393.663 315.167 400.229 351.89 371.019V371.019Z" fill="#F4C439"/>
<path fill-rule="evenodd" clip-rule="evenodd" d="M351.89 371.019C354.309 344.066 362.75 314.993 380.982 285.355C386.382 242.874 331.86 229.425 331.86 229.425C331.86 229.425 308.705 232.102 291.004 259.104C287.509 264.483 284.534 270.224 282.123 276.241C275.16 293.401 270.549 316.805 271.262 348.708C271.538 362.803 273.319 376.819 276.571 390.485C285.733 393.663 315.167 400.229 351.89 371.019V371.019Z" stroke="#2E3953" stroke-width="1.34"/>
<path d="M360.3 245.664L362.143 250.112L358.45 241.216C357.782 241.531 341.947 249.198 328.424 270.782C317.048 288.905 305.406 320.565 311.117 370.631C311.466 373.677 311.878 376.796 312.353 379.988C315.258 379.381 318.231 378.629 321.234 377.699C320.759 374.464 320.355 371.289 320.021 368.173C316.032 331.313 321.371 299.887 335.682 276.702C347.711 257.204 362.022 250.16 362.159 250.096L360.3 245.664Z" fill="white" stroke="#2E3953" stroke-width="1.34"/>
<path d="M302.205 245.502C301.788 245.906 301.379 246.311 300.962 246.739C313.718 249.926 349.121 260.067 351.609 275.092C354.643 293.45 332.648 286.002 338.192 305.928C343.736 325.854 325.132 335.041 330.267 363.919C332.375 375.75 342.402 369.499 353.535 357.999C357.259 334.798 365.67 310.287 380.982 285.355C381.805 279.365 381.317 273.254 379.557 267.499C368.127 254.826 345.526 244.726 302.205 245.502V245.502Z" fill="#2E3953" stroke="#2E3953" stroke-width="1.34"/>
<path d="M371.161 512.136C380.262 518.978 379.602 558.232 379.602 558.232C379.602 558.232 385.336 537.715 392.427 513.956C389.158 510.204 344.813 449.657 351.859 371.044C315.137 400.254 285.702 393.687 276.556 390.509C296.206 472.041 363.304 506.217 371.161 512.136V512.136Z" fill="#FFC6B0"/>
<path d="M330.267 393.428C349.584 384.702 323.252 423.22 343.843 452.738C364.434 482.255 388.195 510.964 383.682 526.531C381.316 534.667 380.179 546.021 379.632 554.997V558.232C379.632 558.232 385.366 537.715 392.457 513.956C389.189 510.204 344.844 449.657 351.889 371.044C317.905 398.078 290.169 394.496 278.975 391.261C278.645 391.216 278.324 391.121 278.02 390.978C278.02 390.978 309.312 404.685 330.267 393.428V393.428Z" fill="#FAAD96"/>
<path fill-rule="evenodd" clip-rule="evenodd" d="M371.161 512.136C380.262 518.978 379.602 558.232 379.602 558.232C379.602 558.232 385.336 537.715 392.427 513.956C389.158 510.204 344.813 449.657 351.859 371.044C315.137 400.254 285.702 393.687 276.556 390.509C296.206 472.041 363.304 506.217 371.161 512.136V512.136Z" stroke="#2E3953" stroke-width="1.34"/>
<path d="M413.746 184.834C406.655 150.278 351.101 121.206 351.101 121.206C329.865 117.162 313.377 129.576 257.171 156.303C252.556 158.489 247.776 160.256 242.882 161.584C238.916 171.474 233.265 192.484 245.582 213.049C249.755 213.258 253.936 213.212 258.104 212.912C289.335 195.727 297.086 157.201 299.961 151.58C299.65 179.731 289.305 202.908 287.568 206.571L287.523 206.677L287.318 207.105C284.792 212.305 277.352 225.366 255.654 255.085C346.042 225.689 381.02 285.354 381.02 285.354C381.02 285.354 420.83 219.389 413.746 184.834Z" fill="#E24949"/>
<path fill-rule="evenodd" clip-rule="evenodd" d="M413.746 184.834C406.655 150.278 351.101 121.206 351.101 121.206C329.865 117.162 313.377 129.576 257.171 156.303C252.556 158.489 247.776 160.256 242.882 161.584C238.915 171.474 233.265 192.484 245.582 213.049C274.356 214.424 288.584 204.089 288.584 204.089C288.584 204.089 286.794 212.459 255.646 255.117C346.042 225.689 381.02 285.354 381.02 285.354C381.02 285.354 420.83 219.389 413.746 184.834V184.834Z" stroke="#2E3953" stroke-width="1.34"/>
<path d="M287.568 206.596C289.305 202.908 299.65 179.731 299.961 151.605C297.086 157.265 289.343 195.751 258.104 212.936C278.482 211.448 288.584 204.113 288.584 204.113C288.321 204.973 287.98 205.805 287.568 206.596V206.596Z" fill="#2E3953" stroke="#2E3953" stroke-width="1.34"/>
<path d="M376.675 185.465C376.849 180.612 368.332 170.051 357.426 162.781C358.442 166.161 365.154 182.764 359.208 190.729C353.262 198.695 374.02 202.196 376.675 185.465Z" fill="#2E3953" stroke="#2E3953" stroke-width="1.34"/>
<path d="M223.641 226.635C229.224 226.635 233.751 208.959 233.751 187.155C233.751 165.35 229.224 147.674 223.641 147.674C218.058 147.674 213.531 165.35 213.531 187.155C213.531 208.959 218.058 226.635 223.641 226.635Z" fill="#2E3953" stroke="#2E3953" stroke-width="1.34"/>
<path d="M213.531 187.155C213.507 194.085 214.014 201.007 215.048 207.849C225.031 210.737 235.275 212.48 245.605 213.049C233.288 192.484 238.938 171.474 242.905 161.584C233.825 163.998 224.487 165.126 215.132 164.94L215.276 165.077C214.082 172.367 213.498 179.755 213.531 187.155V187.155Z" fill="#FFC6B0"/>
<path d="M215.025 207.849C225.008 210.737 235.252 212.48 245.582 213.049C233.265 192.484 238.916 171.474 242.882 161.584L242.457 161.697C239.143 166.379 234.282 176.084 233.622 193.293C233.622 201.76 223.573 190.519 213.539 188.505C213.568 194.984 214.065 201.451 215.025 207.849V207.849Z" fill="#FAAD96"/>
<path fill-rule="evenodd" clip-rule="evenodd" d="M213.531 187.155C213.507 194.085 214.014 201.007 215.048 207.849C225.031 210.737 235.275 212.48 245.605 213.049C233.288 192.484 238.938 171.474 242.905 161.584C233.825 163.998 224.487 165.126 215.132 164.94L215.276 165.077C214.082 172.367 213.498 179.755 213.531 187.155V187.155Z" stroke="#2E3953" stroke-width="1.34"/>
<path fill-rule="evenodd" clip-rule="evenodd" d="M114.876 150.367C105.358 155.551 113.503 171.393 123.484 158.195C160.176 186.427 190.657 200.983 215.025 207.849C213.991 201.007 213.484 194.085 213.508 187.155C213.468 179.756 214.044 172.368 215.23 165.077L215.086 164.94C172.122 164.447 131.683 141.197 114.876 150.367V150.367Z" stroke="#2E3953" stroke-width="1.34"/>
<path d="M428.042 164.406C398.168 121.473 351.07 121.206 351.07 121.206C340.453 134.703 324.738 152.252 341.742 155.761C358.746 159.271 376.895 178.405 376.629 185.465C410 180.54 422.999 205.884 426.488 214.723C440.458 202.415 441.436 183.605 428.042 164.406V164.406Z" fill="#E24949"/>
<path d="M376.675 185.465C301.22 199.212 305.019 224.338 310.829 228.115C316.638 231.892 320.21 227.04 318.185 218.936C372.352 235.207 409.325 229.935 426.533 214.723C423.044 205.884 410.03 180.54 376.675 185.465Z" fill="#FFC6B0"/>
<path fill-rule="evenodd" clip-rule="evenodd" d="M376.675 185.465C301.22 199.212 305.019 224.338 310.829 228.115C316.638 231.892 320.21 227.04 318.185 218.936C372.352 235.207 409.325 229.935 426.533 214.723C423.044 205.884 410.03 180.54 376.675 185.465Z" stroke="#2E3953" stroke-width="1.34"/>
<path d="M426.526 214.723C423.037 205.884 410.022 180.54 376.667 185.465L376.349 185.521C385.002 187.349 406.754 192.905 409.582 203.143C413.124 215.968 375.583 190.915 372.799 210.3C371.1 222.179 316.911 200.846 314.886 219.195C314.408 223.538 313.316 226.587 311.928 228.73C317.071 231.229 320.074 226.49 318.178 218.92C372.352 235.207 409.325 229.935 426.526 214.723V214.723Z" fill="#FAAD96"/>
<path d="M357.426 162.781C368.309 170.059 376.849 180.629 376.675 185.465C301.22 199.212 305.019 224.338 310.829 228.115C316.638 231.892 320.21 227.04 318.185 218.936C416.173 248.365 457.947 207.332 428.073 164.406C398.199 121.481 351.101 121.206 351.101 121.206" stroke="#2E3953" stroke-width="1.34" stroke-linecap="round"/>
<path d="M339.307 83.6501C339.307 83.6501 319.217 108.428 339.027 114.938C338.102 126.584 334.772 148.2 334.772 148.2C334.772 148.2 354.491 129.98 356.175 120.106C357.858 110.232 355.97 82.5664 355.97 82.5664C355.97 82.5664 344.692 77.3989 339.307 83.6501Z" fill="#FFC6B0"/>
<path d="M356.19 120.106C357.654 111.461 356.395 89.1654 356.061 83.7553C353.976 82.9086 351.62 83.4047 349.993 85.033C349.993 85.033 358.518 88.6964 355.644 95.1417C352.769 101.587 352.102 108.784 353.96 112.391C355.613 115.626 347.233 131.994 337.017 132.511C335.894 140.906 334.742 148.2 334.742 148.2C334.742 148.2 354.521 129.964 356.19 120.106V120.106Z" fill="#FAAD96"/>
<path fill-rule="evenodd" clip-rule="evenodd" d="M339.307 83.6501C339.307 83.6501 319.217 108.428 339.027 114.938C338.102 126.584 334.772 148.2 334.772 148.2C334.772 148.2 354.491 129.98 356.175 120.106C357.858 110.232 355.97 82.5664 355.97 82.5664C355.97 82.5664 344.692 77.3989 339.307 83.6501Z" stroke="#2E3953" stroke-width="1.34"/>
<path d="M337.411 69.8861C313.407 69.3281 316.176 53.1947 320.59 42.6736C317.141 45.1348 314.242 48.373 312.095 52.1596C300.992 71.3094 325.709 88.5508 339.785 84.6367C353.861 80.7226 344.874 93.4191 347.187 98.9506C347.187 98.9506 351.912 87.4995 353.573 89.2462C355.234 90.993 349.228 102.072 357.646 101.288C365.549 100.544 361.567 89.5697 364.775 87.7097C363.061 86.4967 359.898 86.1328 355.409 85.5343C347.301 84.4911 373.133 70.7191 337.411 69.8861V69.8861Z" fill="#C03D1E"/>
<path fill-rule="evenodd" clip-rule="evenodd" d="M347.187 98.9506C347.187 98.9506 351.912 87.4995 353.573 89.2463C355.234 90.993 349.227 102.072 357.646 101.288C366.064 100.503 360.983 88.0575 365.518 87.4671C370.054 86.8768 381.672 76.2667 376.439 64.3709C371.07 52.1596 360.99 64.3709 354.407 51.6339C345.708 34.805 323.206 32.9774 312.095 52.1272C300.984 71.2771 325.709 88.5184 339.785 84.6044C353.861 80.6903 344.874 93.4191 347.187 98.9506V98.9506Z" stroke="#2E3953" stroke-width="1.34"/>
<path d="M350.009 111.089C350.009 111.089 346.816 116.75 339.042 114.938Z" fill="#FFC6B0"/>
<path d="M350.009 111.089C350.009 111.089 346.816 116.75 339.042 114.938" stroke="#2E3953" stroke-width="1.34" stroke-linecap="round"/>
<path d="M339.042 114.938C346.816 116.718 350.009 111.089 350.009 111.089C349.834 112.569 348.621 120.486 338.473 121.206C338.89 116.685 339.042 114.938 339.042 114.938Z" fill="#2E3953" stroke="#2E3953" stroke-width="1.34"/>
<path d="M337.411 151.338C336.243 152.041 335.068 152.712 333.885 153.335" stroke="#2E3953" stroke-width="1.34" stroke-linecap="round"/>
<path d="M342.94 147.674C341.899 148.418 340.842 149.143 339.77 149.85" stroke="#2E3953" stroke-width="1.34" stroke-linecap="round"/>
<path d="M355.811 121.626C355.811 121.626 360.361 121.473 360.467 127.287C360.535 130.19 357.282 134.897 352.329 139.789C350.042 142.024 347.634 144.114 345.117 146.049" stroke="#2E3953" stroke-width="1.34" stroke-linecap="round"/>
<path d="M328.689 146.946C328.629 148.402 328.591 149.947 328.576 151.58" stroke="#2E3953" stroke-width="1.34" stroke-linecap="round"/>
<path d="M337.54 120.866C337.54 120.866 330.548 121.246 328.902 143.04" stroke="#2E3953" stroke-width="1.34" stroke-linecap="round"/>
<path d="M287.318 207.129C287.318 207.129 299.619 182.311 299.961 151.58" stroke="#2E3953" stroke-width="1.34" stroke-linecap="round"/>
<path d="M287.523 206.701L287.31 207.138L287.523 206.701Z" fill="#E24949" stroke="#2E3953" stroke-linecap="round"/>
<path d="M287.318 96.1606H277.337Z" fill="white"/>
<path d="M287.318 96.1606H277.337" stroke="white"/>
<path d="M263.026 47.5662H253.045Z" fill="white"/>
<path d="M263.026 47.5662H253.045" stroke="white"/>
<path d="M228.624 7.97258H218.651Z" fill="white"/>
<path d="M228.624 7.97258H218.651" stroke="white"/>
<path d="M274.516 380.772C287.078 382.821 299.878 382.548 312.353 379.963Z" fill="#F4C439"/>
<path d="M274.516 380.772C287.078 382.821 299.878 382.548 312.353 379.963" stroke="#2E3953"/>
<path d="M321.234 377.707C333.141 374.134 344.129 367.722 353.369 358.954" stroke="#2E3953"/>
<path d="M341.499 95.2225C343.17 95.2225 344.525 94.6794 344.525 94.0094C344.525 93.3395 343.17 92.7964 341.499 92.7964C339.828 92.7964 338.473 93.3395 338.473 94.0094C338.473 94.6794 339.828 95.2225 341.499 95.2225Z" fill="white" stroke="#331414" stroke-width="1.34"/>
<path d="M340.415 92.8773C339.277 93.0552 338.473 93.4919 338.473 94.0095C338.473 94.5271 339.277 94.9637 340.415 95.1417C341.044 94.9637 341.499 94.5271 341.499 94.0095C341.499 93.4919 341.044 93.0552 340.415 92.8773Z" fill="#331414"/>
<path d="M330.775 95.2225C332.446 95.2225 333.801 94.6794 333.801 94.0094C333.801 93.3395 332.446 92.7964 330.775 92.7964C329.104 92.7964 327.749 93.3395 327.749 94.0094C327.749 94.6794 329.104 95.2225 330.775 95.2225Z" fill="white" stroke="#331414" stroke-width="1.34"/>
<path d="M329.691 92.8773C328.553 93.0552 327.741 93.4919 327.741 94.0095C327.741 94.5271 328.553 94.9637 329.691 95.1417C330.32 94.9637 330.775 94.5271 330.775 94.0095C330.775 93.4919 330.32 93.0552 329.691 92.8773Z" fill="#331414"/>
<path d="M376.47 64.4032C371.1 52.192 361.021 64.4032 354.438 51.6663C351.304 45.4246 345.841 40.8867 339.399 39.1736C332.957 37.4605 326.135 38.7318 320.62 42.6736C316.214 53.1866 313.438 69.3605 337.442 69.8862C373.163 70.6949 347.301 84.4912 355.439 85.5667C359.929 86.1652 363.091 86.5291 364.805 87.7421C365.042 87.6128 365.299 87.5306 365.564 87.4995C370.054 86.9092 381.673 76.2991 376.47 64.4032V64.4032Z" fill="#E5592E"/>
</g>

<path fill-rule="evenodd" clip-rule="evenodd" d="M475.982 205.771L485.757 202.364C490.905 200.57 496.443 203.565 498.125 209.054C499.808 214.543 496.999 220.447 491.851 222.242L482.075 225.648L475.982 205.771Z" stroke="#2E3953"/>
<path d="M477.977 195.986V219.769C477.982 226.619 473.68 232.621 467.48 234.415C468.688 234.773 469.935 234.955 471.189 234.957C479.055 234.957 485.432 228.157 485.432 219.769V195.986H477.977Z" fill="#2E3953" stroke="#2E3953"/>
<path d="M477.977 219.769V195.986H456.931V219.769C456.932 226.635 461.26 232.643 467.48 234.415C473.68 232.621 477.982 226.619 477.977 219.769Z" fill="#21C3E8"/>
<path fill-rule="evenodd" clip-rule="evenodd" d="M456.931 195.986H485.409V219.777C485.409 228.165 479.032 234.965 471.166 234.965C463.3 234.965 456.923 228.165 456.923 219.777V195.986H456.931Z" stroke="#2E3953" stroke-width="1.34"/>
<path d="M483.49 197.555C484.704 196.916 485.409 196.172 485.409 195.379C485.409 192.953 479.031 191.036 471.166 191.036C463.301 191.036 456.93 192.977 456.93 195.379C456.93 196.188 457.636 196.916 458.849 197.555C461.314 196.253 465.902 195.379 471.166 195.379C476.429 195.379 481.025 196.277 483.49 197.555Z" fill="white" stroke="#2E3953" stroke-width="1.34"/>
<path d="M471.166 199.73C477.968 199.73 483.483 198.756 483.483 197.555C483.483 196.353 477.968 195.379 471.166 195.379C464.364 195.379 458.849 196.353 458.849 197.555C458.849 198.756 464.364 199.73 471.166 199.73Z" fill="#E5592E" stroke="#2E3953" stroke-width="1.34"/>

<g class="bounce-2">
<path d="M479.41 82.9385C491.332 92.2385 502.792 109.666 495.527 119.548C486.031 132.487 465.144 131.403 481.921 146.947C493.297 157.5 479.471 158.883 469.998 166.218C469.869 166.485 469.748 166.751 469.589 167.026C461.041 182.044 471.803 187.624 471.803 187.624C469.9 163.509 507.874 167.876 491.105 152.324C474.336 136.773 495.216 137.841 504.711 124.926C513.895 112.44 493.175 87.9119 479.41 82.9385Z" fill="#FFAC26"/>
<path d="M481.89 146.947C465.114 131.404 486.001 132.463 495.496 119.548C502.762 109.666 491.302 92.2385 479.38 82.9385C478.917 82.7768 478.462 82.6231 478.015 82.5018C464.318 78.798 451.834 91.6158 471.773 108.97C491.712 126.325 457.848 115.909 454.049 134.468C450.325 152.68 477.044 152.058 469.975 166.218C479.471 158.883 493.266 157.5 481.89 146.947V146.947Z" fill="#F4C439"/>
<path fill-rule="evenodd" clip-rule="evenodd" d="M471.803 187.624C471.803 187.624 461.041 182.044 469.589 167.026C478.136 152.009 450.279 153.028 454.079 134.468C457.879 115.909 491.75 126.317 471.803 108.938C451.857 91.5592 464.348 78.7657 478.045 82.4695C491.742 86.1733 514.206 111.979 504.711 124.894C495.215 137.808 474.306 136.781 491.105 152.324C507.904 167.868 469.899 163.509 471.803 187.624V187.624Z" stroke="#2E3953" stroke-width="1.34"/>
</g>
<path d="M370.031 396.137C370.794 399.34 371.72 402.61 372.807 405.947" stroke="white"/>
<path d="M391.449 302.483C391.449 302.483 359.595 335 368.324 387.719" stroke="white"/>
<path d="M203.907 333.949C203.907 333.949 202.564 355.315 215.556 370.275" stroke="white"/>
<path d="M473.199 340.701H493.577C504.35 340.701 513.084 350.014 513.084 361.501C513.071 372.979 504.342 382.276 493.577 382.276H473.199V340.701V340.701Z" fill="white" stroke="#2E3953"/>
<path d="M473.199 381.88C483.863 381.88 492.508 372.662 492.508 361.291C492.508 349.92 483.863 340.701 473.199 340.701C462.534 340.701 453.889 349.92 453.889 361.291C453.889 372.662 462.534 381.88 473.199 381.88Z" fill="#2E3953" stroke="#2E3953"/>
<path fill-rule="evenodd" clip-rule="evenodd" d="M380.163 37.9023C388.662 37.9023 395.552 30.5561 395.552 21.494C395.552 12.4319 388.662 5.08557 380.163 5.08557C371.665 5.08557 364.775 12.4319 364.775 21.494C364.775 30.5561 371.665 37.9023 380.163 37.9023Z" stroke="white"/>
</svg>
