<svg width="25" height="28" viewBox="0 0 25 28" fill="none" xmlns="http://www.w3.org/2000/svg">
<path fill-rule="evenodd" clip-rule="evenodd" d="M6.56947 5.78942C6.62974 6.81995 6.78041 7.82732 7.02149 8.78837L5.81609 10.1778C5.40424 8.78837 5.14307 7.31784 5.05266 5.78942H6.56947ZM16.4739 19.7073C17.3277 19.9852 18.2016 20.1589 19.0856 20.2284V21.9536C17.7596 21.8494 16.4839 21.5484 15.2685 21.0852L16.4739 19.7073ZM7.53379 3.47363H4.01802C3.46555 3.47363 3.01352 3.99469 3.01352 4.63153C3.01352 15.5042 10.6578 24.3157 20.0901 24.3157C20.6426 24.3157 21.0946 23.7947 21.0946 23.1578V19.1168C21.0946 18.4799 20.6426 17.9589 20.0901 17.9589C18.8445 17.9589 17.6291 17.7273 16.504 17.2989C16.4036 17.2526 16.2931 17.241 16.1926 17.241C15.9314 17.241 15.6803 17.3568 15.4794 17.5768L13.2695 20.1242C10.4268 18.4452 8.09631 15.7705 6.64983 12.4936L8.85974 9.94626C9.141 9.62205 9.22136 9.17048 9.11086 8.76521C8.7392 7.46837 8.53829 6.0789 8.53829 4.63153C8.53829 3.99469 8.08627 3.47363 7.53379 3.47363Z" fill="white"/>
</svg>
