<svg width="40" height="40" viewBox="0 0 40 40" fill="none" xmlns="http://www.w3.org/2000/svg">
<rect width="39.2113" height="39.2113" rx="19.6056" fill="#FCCB51"/>
<path d="M25.7816 13.4396C25.5985 13.256 25.3498 13.1529 25.0905 13.1529C24.8312 13.1529 24.5826 13.256 24.3994 13.4396L19.6058 18.2234L14.8122 13.4298C14.6291 13.2462 14.3804 13.1431 14.1211 13.1431C13.8618 13.1431 13.6132 13.2462 13.43 13.4298C13.0477 13.8121 13.0477 14.4297 13.43 14.812L18.2236 19.6056L13.43 24.3991C13.0477 24.7815 13.0477 25.399 13.43 25.7813C13.8124 26.1637 14.4299 26.1637 14.8122 25.7813L19.6058 20.9878L24.3994 25.7813C24.7817 26.1637 25.3993 26.1637 25.7816 25.7813C26.1639 25.399 26.1639 24.7815 25.7816 24.3991L20.988 19.6056L25.7816 14.812C26.1541 14.4395 26.1541 13.8121 25.7816 13.4396Z" fill="white"/>
</svg>
