<svg width="606" height="572" viewBox="0 0 606 572" fill="none" xmlns="http://www.w3.org/2000/svg">
<path d="M306.834 243.964C306.834 243.964 368.25 246.826 383.418 213.903C398.585 180.98 482.007 147.34 522.22 203.166C562.432 258.992 464.567 332.713 519.16 377.801C573.752 422.89 604.087 507.342 442.576 534.535C281.064 561.727 137.006 452.234 105.904 345.589C74.8023 238.944 120.326 176.684 177.184 170.243C234.042 163.802 229.511 243.234 306.834 243.964Z" fill="#ECEEF4"/>
<path d="M231.379 518.034C231.379 518.034 251.419 523.955 251.091 544.075C250.764 564.194 122.32 540.666 73.3455 438.035C24.3713 335.404 86.185 350.28 98.669 370.439C111.153 390.598 154.879 482.064 231.379 518.034Z" fill="#ECEEF4"/>
<path d="M327.313 542.535C432.728 542.535 518.184 533.837 518.184 523.106C518.184 512.376 432.728 503.677 327.313 503.677C221.898 503.677 136.442 512.376 136.442 523.106C136.442 533.837 221.898 542.535 327.313 542.535Z" fill="#1C1C1C" stroke="#1C1C1C" stroke-width="1.5"/>
<path d="M399.171 565.458C423.535 565.458 443.287 563.446 443.287 560.964C443.287 558.482 423.535 556.47 399.171 556.47C374.806 556.47 355.055 558.482 355.055 560.964C355.055 563.446 374.806 565.458 399.171 565.458Z" fill="#1C1C1C" stroke="#1C1C1C" stroke-width="1.5"/>
<path d="M272.714 434.371C272.714 434.371 265.102 432.397 253.308 430.107C249.007 437.7 238.447 444.582 220.136 448.938C158.977 463.491 167.363 513.303 167.376 513.415C251.767 538.818 428.816 504.395 453.742 524.041C485.653 549.226 353.285 416.093 272.714 434.371Z" fill="#FC9E7A"/>
<path opacity="0.53" d="M380.978 482.762C339.42 445.97 261.47 479.373 261.47 479.373C261.47 479.373 207.589 506.743 168.401 494.506C166.946 500.698 166.599 507.076 167.376 513.375C221.822 529.784 314.878 521.271 380.734 518.448C396.613 510.665 400.335 499.901 380.978 482.762Z" fill="#F97A53"/>
<path fill-rule="evenodd" clip-rule="evenodd" d="M272.714 434.371C272.714 434.371 265.102 432.397 253.308 430.107C249.007 437.7 238.447 444.582 220.136 448.938C158.977 463.491 167.363 513.303 167.376 513.415C251.767 538.818 428.816 504.395 453.742 524.041C485.653 549.226 353.285 416.093 272.714 434.371Z" stroke="#1C1C1C" stroke-width="1.5"/>
<path fill-rule="evenodd" clip-rule="evenodd" d="M272.714 434.371C272.714 434.371 265.102 432.397 253.308 430.107C249.007 437.7 238.447 444.582 220.136 448.938C158.977 463.491 167.363 513.303 167.376 513.415C251.767 538.818 428.816 504.395 453.742 524.041C485.653 549.226 353.285 416.093 272.714 434.371Z" stroke="#1C1C1C" stroke-width="1.5"/>
<path fill-rule="evenodd" clip-rule="evenodd" d="M272.714 434.371C272.714 434.371 265.102 432.397 253.308 430.107C249.007 437.7 238.447 444.582 220.136 448.938C158.977 463.491 167.363 513.303 167.376 513.415C251.767 538.818 428.816 504.395 453.742 524.041C485.653 549.226 353.285 416.093 272.714 434.371Z" stroke="#1C1C1C" stroke-width="1.5"/>
<path d="M220.136 448.937C238.447 444.562 248.979 437.7 253.308 430.088C210.245 421.771 111.446 409.474 123.609 475.051C127.171 494.276 143.593 506.197 167.376 513.369C167.363 513.303 158.977 463.491 220.136 448.937Z" fill="#303F61"/>
<path opacity="0.55" d="M167.376 513.389C166.599 507.089 166.946 500.711 168.401 494.519C164.041 493.178 159.886 491.302 156.043 488.94C117.078 464.748 127.534 442.588 141.781 432.68C127.652 440.305 119.601 453.457 123.609 475.071C127.171 494.295 143.593 506.217 167.376 513.389Z" fill="#1B263E"/>
<path fill-rule="evenodd" clip-rule="evenodd" d="M220.136 448.937C238.447 444.562 248.979 437.7 253.308 430.088C210.245 421.771 111.446 409.474 123.609 475.051C127.171 494.276 143.593 506.197 167.376 513.369C167.363 513.303 158.977 463.491 220.136 448.937V448.937Z" stroke="#1C1C1C" stroke-width="1.5"/>
<path d="M354.421 284.48C362.458 286.875 375.729 289.428 375.611 280.124C375.437 266.795 348.113 252.307 294.635 280.124C241.158 307.942 236.781 261.209 277.251 247.787C317.722 234.365 385.376 271.565 405.605 231.24C413.453 212.818 390.785 189.428 348.057 196.172C345.617 196.172 329.021 200.62 326.225 182.842" stroke="#1C1C1C" stroke-width="1.5" stroke-linecap="round"/>
<path d="M348.433 282.434C348.433 282.434 349.59 282.894 351.423 283.519" stroke="#1C1C1C" stroke-width="1.5" stroke-linecap="round"/>
<path d="M419.058 449.99C394.78 448.727 384.554 429.278 381.006 419.876C366.514 420.936 356.979 422.508 356.979 422.508C335.789 440.536 282.688 434.114 243.445 436.325C204.201 438.535 166.275 482.038 193.153 467.458C220.031 452.878 236.906 459.813 240.831 463.267C314.613 526.172 401.151 539.12 458.238 527.232C510.008 490.446 451.121 451.655 419.058 449.99Z" fill="#FC9E7A"/>
<path fill-rule="evenodd" clip-rule="evenodd" d="M419.058 449.99C394.78 448.727 384.554 429.278 381.006 419.876C366.514 420.936 356.979 422.508 356.979 422.508C335.789 440.536 282.688 434.114 243.445 436.325C204.201 438.535 166.275 482.038 193.153 467.458C220.031 452.878 236.906 459.813 240.831 463.267C314.613 526.172 401.151 539.12 458.238 527.232C510.008 490.446 451.121 451.655 419.058 449.99V449.99Z" stroke="#1C1C1C" stroke-width="1.5"/>
<path d="M517.34 464.491C495.941 417.962 420.27 417.008 381.013 419.876C384.561 429.278 394.786 448.727 419.064 449.99C451.128 451.655 510.042 490.446 458.245 527.218C503.525 517.784 530.271 492.683 517.34 464.491Z" fill="#303F61"/>
<path opacity="0.55" d="M500.347 443.022C500.347 443.101 520.373 487.505 477.574 503.776C475.267 511.428 469.265 519.369 458.21 527.218C503.518 517.784 530.271 492.683 517.306 464.491C513.475 456.2 507.672 448.854 500.347 443.022Z" fill="#1B263E"/>
<path fill-rule="evenodd" clip-rule="evenodd" d="M517.34 464.491C495.941 417.962 420.27 417.008 381.013 419.876C384.561 429.278 394.786 448.727 419.064 449.99C451.128 451.655 510.042 490.446 458.245 527.218C503.525 517.784 530.271 492.683 517.34 464.491Z" stroke="#1C1C1C" stroke-width="1.5"/>
<path d="M338.117 299.816C338.117 299.816 392.528 330.187 408.225 382.532C423.923 434.877 387.314 450.714 387.314 450.714C387.314 450.714 230.619 446.983 215.709 428.956C200.8 410.928 268.259 300.29 313.909 293.895C334.715 292.882 338.117 299.816 338.117 299.816Z" fill="white" stroke="#1C1C1C" stroke-width="1.5"/>
<path d="M374.74 345.971C387.948 365.63 391.287 396.928 391.469 398.724C440.819 391.71 470.883 421.166 470.931 421.199C472.779 414.074 472.158 405.409 468.401 394.882C434.908 301.034 339.163 293.895 339.163 293.895C337.071 294.882 329.341 306.982 329.341 306.982" fill="white"/>
<path opacity="0.25" d="M325.124 321.673C325.124 321.673 338.591 320.785 341.233 309.429C343.874 298.073 348.203 303.665 347.966 306.547C347.729 309.429 349.06 300.415 348.078 295.125C347.443 294.369 341.233 294.086 341.233 294.086C341.233 294.086 315.895 316.798 325.124 321.673Z" fill="#FCD062"/>
<path opacity="0.25" d="M348.078 295.125C348.384 297.487 351.939 328.147 328.045 330.049C328.045 330.049 325.298 329.759 326.957 334.2C328.616 338.641 355.034 326.963 356.686 310.909C358.338 294.856 399.331 316.929 396.188 335.154C393.044 353.379 455.834 367.452 455.046 403.007C454.997 405.146 454.342 407.234 453.15 409.053C464.63 415.054 470.904 421.186 470.918 421.199C472.765 414.073 472.144 405.408 468.387 394.881C441.133 318.476 372.614 299.534 348.078 295.125Z" fill="#FCD062"/>
<path d="M374.74 345.971C387.948 365.63 391.287 396.928 391.469 398.724C440.819 391.71 470.883 421.166 470.931 421.199C472.779 414.074 472.158 405.409 468.401 394.882C434.908 301.034 339.163 293.895 339.163 293.895C337.071 294.882 329.341 306.982 329.341 306.982" stroke="#1C1C1C" stroke-width="1.5" stroke-linecap="round"/>
<path opacity="0.25" d="M391.468 398.724C391.287 396.928 387.948 365.63 374.739 345.971C375.22 346.708 383.634 381.17 357.864 397.645C332.094 414.12 387.934 407.514 391.468 398.724Z" fill="#FCD062"/>
<path d="M286.843 436.344C286.843 436.344 456.321 477.597 470.917 421.212C470.917 421.212 440.819 391.723 391.455 398.737V398.822L286.843 436.344Z" fill="#FC9E7A"/>
<path opacity="0.53" d="M453.15 409.034C438.261 432.173 339.657 430.153 300.309 439.299C340.703 447.654 458.838 467.853 470.917 421.186C470.904 421.186 464.63 415.054 453.15 409.034Z" fill="#F97A53"/>
<path fill-rule="evenodd" clip-rule="evenodd" d="M286.843 436.344C286.843 436.344 456.321 477.597 470.918 421.212C470.918 421.212 440.819 391.723 391.455 398.737V398.822L286.843 436.344Z" stroke="#1C1C1C" stroke-width="1.5"/>
<path d="M326.225 330.128V397.145" stroke="#1C1C1C" stroke-width="1.5" stroke-linecap="round"/>
<path d="M340.076 277.822C340.076 277.822 347.165 318.318 326.225 321.528C305.286 324.739 316.272 273.874 316.272 273.874L340.076 277.822Z" fill="#FC9E7A"/>
<path d="M313.393 290.908C316.662 293.211 327.48 299.922 341.233 294.086C341.455 288.641 341.067 283.19 340.076 277.822L332.248 276.506C330.576 276.719 328.97 277.264 327.536 278.105C321.855 281.473 317.08 283.25 314.473 284.737C314.299 286.072 313.539 289.408 313.393 290.908H313.393Z" fill="#1C1C1C"/>
<path fill-rule="evenodd" clip-rule="evenodd" d="M340.076 277.822C340.076 277.822 347.165 318.318 326.225 321.528C305.286 324.739 316.272 273.874 316.272 273.874L340.076 277.822Z" stroke="#1C1C1C" stroke-width="1.5"/>
<path d="M301.09 237.313C301.09 237.313 303.132 243.366 297.026 245.997C290.92 248.629 297.898 258.426 302.261 258.669C306.625 258.913 299.299 266.92 307.231 266.262C315.163 265.604 327.027 238.444 317.087 231.779C307.147 225.115 295.681 233.72 301.09 237.313Z" fill="#F22F2F" stroke="#1C1C1C" stroke-width="1.5"/>
<path d="M312.131 238.148C312.131 238.148 290.328 289.947 324.336 291.79C341.428 291.79 353.11 270.887 344.042 240.28C334.973 209.673 312.131 238.148 312.131 238.148Z" fill="#FC9E7A"/>
<path opacity="0.53" d="M344.042 240.28C342.682 235.675 341.01 232.431 339.162 230.201C335.783 228.199 331.973 226.936 328.01 226.503C319.792 228.589 312.117 238.148 312.117 238.148C312.117 238.148 311.42 239.872 310.416 242.688C315.17 243.846 321.241 244.445 326.407 242.142C336.66 237.576 332.443 256.827 339.804 259.729C347.164 262.63 345.91 278.677 332.345 290.092L332.492 290.026C333.286 289.632 334.074 289.204 334.855 288.744C345.631 281.901 351.068 264.005 344.042 240.28Z" fill="#F97A53"/>
<path fill-rule="evenodd" clip-rule="evenodd" d="M312.131 238.148C312.131 238.148 290.328 289.947 324.336 291.79C341.428 291.79 353.11 270.887 344.042 240.28C334.973 209.673 312.131 238.148 312.131 238.148V238.148Z" stroke="#1C1C1C" stroke-width="1.5"/>
<path d="M311.783 293.237C269.319 293.895 215.689 332.595 196.854 372.262C179.219 409.402 193.815 431.239 215.333 436.338C214.455 416.593 251.83 354.603 311.783 293.237Z" fill="white"/>
<path opacity="0.25" d="M215.284 410.725C175.922 407.119 207.101 355.544 208.474 353.313C203.959 359.249 200.067 365.587 196.854 372.235C179.219 409.376 193.815 431.213 215.333 436.312C215.089 430.778 217.849 421.923 223.279 410.652C220.624 410.94 217.945 410.964 215.284 410.725Z" fill="#FCD062"/>
<path fill-rule="evenodd" clip-rule="evenodd" d="M311.783 293.237C269.319 293.895 215.689 332.595 196.854 372.262C179.219 409.402 193.815 431.239 215.333 436.338C214.455 416.593 251.83 354.603 311.783 293.237Z" stroke="#1C1C1C" stroke-width="1.5"/>
<path d="M348.057 294.968C348.057 294.968 352.894 328.068 328.045 330.049C303.195 332.029 306.722 300.784 306.722 300.784" stroke="#1C1C1C" stroke-width="1.5"/>
<path d="M312.41 303.764C312.1 303.887 311.809 304.048 311.546 304.244C283.559 320.495 297.138 367.169 269.828 411.942C257.065 432.857 233.672 440.68 215.319 436.338C214.441 416.6 224.38 364.222 284.326 302.83C290.132 296.908 296.176 292.303 303.077 286.243C310.228 279.401 302.38 293.125 305.265 291.645C308.151 290.165 314.933 287.645 318.509 287.974C322.085 288.303 311.797 293.237 311.797 293.237C311.797 293.237 321.959 288.632 322.538 290.401C322.887 291.481 318.049 294.106 315.372 295.198C313.581 295.935 312.054 296.448 312.054 296.448C312.403 296.369 321.339 294.632 321.499 296.152C321.66 297.672 312.473 299.988 312.473 299.988C312.473 299.988 325.528 298.001 312.41 303.764Z" fill="#FC9E7A"/>
<path opacity="0.53" d="M312.459 299.961C312.459 299.961 321.646 297.652 321.486 296.126C321.466 296.011 321.398 295.909 321.297 295.843C315.024 296.981 296.134 302.541 284.055 329.016C269.786 360.274 256.236 411.613 218.393 410.889C215.758 421.811 215.075 430.489 215.333 436.312C233.686 440.654 257.079 432.831 269.842 411.916C297.152 367.176 283.574 320.463 311.56 304.218C311.821 304.032 312.107 303.88 312.41 303.764C325.529 298.001 312.459 299.961 312.459 299.961Z" fill="#F97A53"/>
<path fill-rule="evenodd" clip-rule="evenodd" d="M312.41 303.764C312.1 303.887 311.809 304.048 311.546 304.244C283.559 320.495 297.138 367.169 269.828 411.942C257.065 432.857 233.672 440.68 215.319 436.338C214.441 416.6 224.38 364.222 284.326 302.83C290.133 296.908 296.176 292.303 303.077 286.243C310.228 279.401 302.38 293.125 305.265 291.645C308.151 290.165 314.933 287.645 318.509 287.974C322.085 288.303 311.797 293.237 311.797 293.237C311.797 293.237 321.959 288.632 322.538 290.401C322.887 291.481 318.049 294.106 315.372 295.198C313.581 295.935 312.054 296.448 312.054 296.448C312.403 296.369 321.339 294.632 321.499 296.152C321.66 297.672 312.473 299.988 312.473 299.988C312.473 299.988 325.528 298.001 312.41 303.764V303.764Z" stroke="#1C1C1C" stroke-width="1.5"/>
<path d="M385.99 443.246C385.99 443.246 407.961 408.678 402.719 380.032C389.907 379.538 261.463 380.032 261.463 380.032C261.463 380.032 262.767 420.528 282.131 441.022C307.768 445.97 385.99 443.246 385.99 443.246Z" fill="#FCD062"/>
<path opacity="0.74" d="M402.726 380.045C398.544 379.887 381.905 379.828 361.454 379.828C374.182 382.137 393.281 387.322 393.399 397.645C393.574 413.133 370.028 405.474 371.861 420.672C373.694 435.871 289.847 425.646 281.894 439.641C281.752 439.892 281.644 440.16 281.573 440.437C281.761 440.641 281.942 440.845 282.138 441.049C291.297 442.812 307.168 443.601 323.786 443.884C350.587 442.121 381.097 439.18 386.004 443.226C386.338 442.7 407.905 408.468 402.726 380.045Z" fill="#F9A45F"/>
<path fill-rule="evenodd" clip-rule="evenodd" d="M385.99 443.246C385.99 443.246 407.961 408.678 402.719 380.032C389.907 379.538 261.463 380.032 261.463 380.032C261.463 380.032 262.767 420.528 282.131 441.022C307.768 445.97 385.99 443.246 385.99 443.246V443.246Z" stroke="#1C1C1C" stroke-width="1.5"/>
<path d="M325.361 187.448C328.576 187.448 331.181 184.988 331.181 181.954C331.181 178.92 328.576 176.46 325.361 176.46C322.147 176.46 319.541 178.92 319.541 181.954C319.541 184.988 322.147 187.448 325.361 187.448Z" fill="#1C1C1C" stroke="#1C1C1C" stroke-width="1.5"/>
<rect x="278.213" y="439.187" width="113.011" height="11.3428" rx="5.6714" fill="#FCD062"/>
<path opacity="0.74" d="M281.573 449.944C282.395 450.327 283.298 450.527 284.215 450.53H385.209C388.528 450.53 391.218 447.99 391.218 444.858C391.218 441.726 388.528 439.187 385.209 439.187H360.659C368.048 440.305 381.341 439.739 378.594 445.477C376.573 449.701 284.863 442.483 281.573 449.944H281.573Z" fill="#F9A45F"/>
<rect x="278.213" y="439.187" width="113.011" height="11.3428" rx="5.6714" stroke="#1C1C1C" stroke-width="1.5"/>
<path d="M347.192 260.123C345.966 243.254 339.685 242.925 340.222 247.037C340.759 251.149 343.533 260.854 340.222 257.906C337.852 255.781 335.12 245.471 333.76 239.787C333.558 238.944 332.95 238.239 332.117 237.881C331.285 237.522 330.323 237.55 329.515 237.957C322.768 241.333 306.896 246.826 290.516 234.859C268.908 219.068 290.864 191.567 306.736 199.468C322.608 207.37 322.259 224.325 333.921 213.627C345.582 202.929 358.317 200.62 363.197 212.469C368.076 224.319 346.279 239.306 357.62 241.418C358.164 241.497 365.162 242.109 363.197 247.761C361.231 253.412 353.382 256.498 357.962 259.215C362.541 261.933 349.702 269.709 347.165 265.571C347.144 262.814 347.192 260.123 347.192 260.123Z" fill="#FC5151"/>
<path d="M363.231 212.469C360.213 205.16 354.212 203.258 347.311 205.357C352.671 205.475 359.23 206.989 359.307 213.627C359.433 224.858 343.219 224.24 346.356 233.747C349.493 243.254 340.731 244.241 339.163 239.056C337.594 233.872 330.268 231.24 323.207 235.826C316.146 240.412 307.419 241.984 296.099 238.306C310.396 245.583 323.528 240.938 329.502 237.958C330.309 237.55 331.271 237.522 332.104 237.881C332.936 238.239 333.544 238.944 333.747 239.787C335.106 245.471 337.838 255.781 340.208 257.906C343.519 260.867 340.731 251.156 340.208 247.037C339.685 242.918 345.966 243.254 347.179 260.123C347.179 260.123 347.13 262.814 347.179 265.597C349.716 269.736 362.555 261.959 357.976 259.242C353.396 256.525 361.245 253.439 363.211 247.787C365.176 242.136 358.171 241.524 357.634 241.445C346.314 239.287 368.111 224.325 363.231 212.469Z" fill="#F22F2F"/>
<path fill-rule="evenodd" clip-rule="evenodd" d="M347.192 260.123C345.966 243.254 339.685 242.925 340.222 247.037C340.759 251.149 343.533 260.854 340.222 257.906C337.852 255.781 335.12 245.471 333.76 239.787C333.558 238.944 332.95 238.239 332.117 237.881C331.285 237.522 330.323 237.55 329.515 237.957C322.768 241.333 306.896 246.826 290.516 234.859C268.908 219.068 290.864 191.567 306.736 199.468C322.608 207.37 322.259 224.325 333.921 213.627C345.582 202.929 358.317 200.62 363.197 212.469C368.076 224.319 346.279 239.306 357.62 241.418C358.164 241.497 365.162 242.109 363.197 247.761C361.231 253.412 353.382 256.498 357.962 259.215C362.541 261.933 349.702 269.709 347.165 265.571C347.144 262.814 347.192 260.123 347.192 260.123V260.123Z" stroke="#1C1C1C" stroke-width="1.5"/>
<path d="M373.45 89.0934C373.455 67.9374 358.017 49.5671 336.19 44.7582C314.363 39.9493 291.903 49.9697 281.985 68.9418C272.067 87.9138 277.306 110.835 294.628 124.26C300.121 128.432 303.337 134.712 303.39 141.366V153.268H347.074V141.557C347.085 134.869 350.276 128.54 355.766 124.313C366.971 115.68 373.466 102.746 373.45 89.0934Z" fill="#FCD062"/>
<path opacity="0.58" d="M323.347 43.617C321.702 43.6771 320.062 43.8177 318.433 44.038C326.428 45.9 354.734 53.9071 359.216 74.1978C364.451 97.8834 335.517 114.2 339.699 128.852C343.882 143.505 305.823 140.781 303.404 153.255H347.088V141.557C347.099 134.869 350.289 128.54 355.78 124.313C371.822 111.923 377.68 91.2415 370.328 72.9485C362.975 54.6555 344.059 42.8454 323.347 43.617Z" fill="#FC7E1F"/>
<path fill-rule="evenodd" clip-rule="evenodd" d="M373.45 89.0934C373.455 67.9374 358.017 49.5671 336.19 44.7582C314.363 39.9493 291.903 49.9697 281.985 68.9418C272.067 87.9138 277.306 110.835 294.628 124.26C300.121 128.432 303.337 134.712 303.39 141.366V153.268H347.074V141.557C347.085 134.869 350.275 128.54 355.766 124.313C366.971 115.68 373.466 102.746 373.45 89.0934V89.0934Z" stroke="#1C1C1C" stroke-width="1.5"/>
<path d="M303.39 153.255H347.074V163.407C347.074 168.816 344.797 174.004 340.745 177.829C336.693 181.654 331.197 183.803 325.466 183.803H325.054C319.323 183.803 313.827 181.654 309.775 177.829C305.723 174.004 303.446 168.816 303.446 163.407V153.255H303.39Z" fill="#BABABA"/>
<path opacity="0.65" d="M327.745 160.288C329.055 162.427 336.639 162.512 336.904 164.572C337.169 166.631 328.268 166.427 328.093 166.98C327.919 167.532 334.632 172.644 330.359 173.671C326.086 174.697 321.465 177.572 323.821 181.112C326.058 184.474 314.989 181.211 313.86 180.869C317.219 182.802 321.078 183.826 325.013 183.829H325.424C331.155 183.829 336.651 181.68 340.703 177.855C344.756 174.031 347.032 168.843 347.032 163.433V153.255H334.715C332.778 154.17 331.572 154.847 331.572 154.847C331.572 154.847 326.428 158.15 327.745 160.288Z" fill="#898989"/>
<path fill-rule="evenodd" clip-rule="evenodd" d="M303.39 153.255H347.074V163.407C347.074 168.816 344.797 174.004 340.745 177.829C336.693 181.654 331.196 183.803 325.466 183.803H325.054C319.323 183.803 313.827 181.654 309.775 177.829C305.723 174.004 303.446 168.816 303.446 163.407V153.255H303.39Z" stroke="#1C1C1C" stroke-width="1.5"/>
<path d="M299.271 160.288H351.193" stroke="#1C1C1C" stroke-width="1.5" stroke-linecap="round"/>
<path d="M299.271 166.98H351.193" stroke="#1C1C1C" stroke-width="1.5" stroke-linecap="round"/>
<path d="M299.271 173.671H351.193" stroke="#1C1C1C" stroke-width="1.5" stroke-linecap="round"/>
<path d="M325.229 154.92C337.293 154.92 347.074 154.174 347.074 153.255C347.074 152.336 337.293 151.591 325.229 151.591C313.164 151.591 303.383 152.336 303.383 153.255C303.383 154.174 313.164 154.92 325.229 154.92Z" fill="#1C1C1C" stroke="#1C1C1C" stroke-width="1.5"/>
<path d="M322.712 153.255L307.768 93.995C307.768 93.995 318.363 83.1259 325.953 89.1789C333.544 95.2319 327.912 99.7059 324.253 97.2057C320.593 94.7056 335.238 82.5141 344.788 92.3897C341.776 106.338 329.745 152.88 329.745 152.88" stroke="#1C1C1C" stroke-width="1.5"/>
<path d="M319.98 252.445C319.98 252.445 315.442 266.097 317.533 266.762C319.624 267.426 322.712 266.249 322.712 266.249" fill="#FC9E7A"/>
<path d="M319.98 252.445C319.98 252.445 315.442 266.097 317.533 266.762C319.624 267.426 322.712 266.249 322.712 266.249" stroke="#1C1C1C" stroke-width="1.5" stroke-linecap="round"/>
<path opacity="0.82" d="M327.78 397.145C326.213 397.148 324.656 397.392 323.172 397.869C326.919 400.496 327.812 405.44 325.2 409.091C322.588 412.742 317.395 413.806 313.414 411.507C313.87 418.89 320.502 424.569 328.331 424.281C336.159 423.992 342.302 417.841 342.147 410.448C341.991 403.055 335.593 397.139 327.759 397.145H327.78Z" fill="white"/>
<path d="M315.198 276.92C315.198 276.92 324.866 277.493 328.707 274.697L315.198 276.92Z" fill="#FC9E7A"/>
<path d="M315.198 276.92C315.198 276.92 324.866 277.493 328.707 274.697" stroke="#1C1C1C" stroke-width="1.5" stroke-linecap="round"/>
<path d="M384.156 103.995H421.302" stroke="#1C1C1C" stroke-width="1.5" stroke-linecap="round"/>
<path d="M375.109 52.5188L404.81 31.4714" stroke="#1C1C1C" stroke-width="1.5" stroke-linecap="round"/>
<path d="M400.837 162.111L371.129 141.057" stroke="#1C1C1C" stroke-width="1.5" stroke-linecap="round"/>
<path d="M264.321 103.995H227.176" stroke="#1C1C1C" stroke-width="1.5" stroke-linecap="round"/>
<path d="M273.369 52.5188L243.668 31.4714" stroke="#1C1C1C" stroke-width="1.5" stroke-linecap="round"/>
<path d="M247.641 162.111L277.349 141.057" stroke="#1C1C1C" stroke-width="1.5" stroke-linecap="round"/>
<path d="M324.706 34.3598V6.21338" stroke="#1C1C1C" stroke-width="1.5" stroke-linecap="round"/>
<path d="M328.693 271.979C328.693 271.979 328.351 275.105 330.087 276.421L328.693 271.979Z" fill="#FC9E7A"/>
<path d="M328.693 271.979C328.693 271.979 328.351 275.105 330.087 276.421" stroke="#1C1C1C" stroke-width="1.5" stroke-linecap="round"/>
<path opacity="0.53" d="M461.096 525.067C461.556 524.712 462.009 524.356 462.448 524.001C462.72 523.784 462.978 523.567 463.236 523.343C463.619 523.021 463.996 522.685 464.365 522.383L465.153 521.685C465.494 521.382 465.85 521.08 466.143 520.777L466.916 520.047C467.216 519.757 467.502 519.461 467.795 519.172C468.087 518.882 468.29 518.672 468.527 518.422C468.764 518.172 469.035 517.869 469.286 517.593C469.795 517.04 470.283 516.481 470.743 515.928L471.217 515.362C471.489 515.02 471.747 514.704 472.005 514.343L472.416 513.803C472.674 513.448 472.918 513.099 473.155 512.75L473.483 512.27C473.734 511.895 473.971 511.527 474.18 511.158L474.403 510.79C474.647 510.388 474.884 509.98 475.1 509.573L475.142 509.494C476.159 507.668 476.986 505.753 477.609 503.776C469.816 506.737 459.953 508.77 447.497 509.428C394.306 512.244 329.334 475.024 271.055 461.833C239.395 452.181 209.638 453.648 192.798 458.806C182.391 467.827 180.049 474.597 193.181 467.452C220.052 452.872 236.934 459.806 240.859 463.261C244.783 466.715 248.798 469.84 252.813 472.932C288.264 500.157 326.065 516.54 361.747 524.712L361.977 524.764C362.973 524.995 363.97 525.212 364.967 525.422L365.399 525.514L368.243 526.106L368.801 526.225L371.54 526.758L372.195 526.876C373.081 527.047 373.966 527.205 374.844 527.363L375.541 527.488L378.127 527.922L378.887 528.047L381.424 528.442L382.219 528.554L384.728 528.909L385.509 529.015C386.345 529.126 387.182 529.238 388.011 529.337L388.764 529.429L391.28 529.725L391.977 529.797L394.543 530.061L395.093 530.113L397.784 530.35H398C402.033 530.683 406.016 530.914 409.947 531.041H410.303L412.498 531.1H413.46H415.412H416.583H419.685H421.407H422.752L424.404 531.054L425.798 531.008L427.387 530.942L428.781 530.876L430.322 530.791L431.765 530.705L433.256 530.6L434.72 530.495L436.163 530.37L437.641 530.238L439.035 530.107L440.519 529.949L441.914 529.797L443.398 529.62L444.723 529.455L446.228 529.251L447.504 529.074C448.02 529.001 448.528 528.916 449.044 528.837L450.243 528.653L451.846 528.389L452.948 528.199L454.718 527.876L455.61 527.712C456.489 527.541 457.367 527.37 458.238 527.185C458.991 526.653 459.716 526.113 460.427 525.58L461.096 525.067Z" fill="#F97A53"/>
<path d="M285.665 218.812C285.665 218.812 285.407 209.179 290.899 205.844C296.392 202.508 287.63 213.995 292.203 214.12C296.775 214.245 285.142 226.957 285.665 218.812Z" fill="white"/>
<path d="M294.635 207.824C294.635 207.824 297.305 203.521 299.515 205.238C301.724 206.956 293.792 211.653 294.635 207.824Z" fill="white"/>
<path d="M296.099 295.869C296.099 295.869 282.117 305.008 281.461 312.047C280.806 319.087 290.098 301.915 291.917 303.955C293.736 305.994 299.898 293.099 296.099 295.869Z" fill="white"/>
<path d="M278.771 313.725C278.771 313.725 274.024 318.193 274.289 320.048C274.554 321.903 281.44 315.956 278.771 313.725Z" fill="white"/>
<path d="M274.156 384.118C274.156 384.118 266.043 383.131 266.175 387.947C266.308 392.763 270.079 397.085 268.915 401.652C267.751 406.218 276.512 403.046 273.634 392.842C270.755 382.637 279.782 387.703 274.156 384.118Z" fill="white"/>
<path d="M283.441 384.611C283.441 384.611 277.293 382.762 278.213 385.23C279.133 387.697 286.71 388.69 283.441 384.611Z" fill="white"/>
<path d="M191.752 426.587C191.752 426.587 160.385 426.587 150.424 433.996C140.464 441.404 161.431 438.443 166.979 433.996C172.528 429.548 202.089 427.581 191.752 426.587Z" fill="white"/>
<path d="M146.876 442.147C143.658 440.363 139.551 440.984 137.083 443.628C132.371 448.194 153.924 446.588 146.876 442.147Z" fill="white"/>
<path d="M225.28 446.385C225.28 446.385 238.524 440.035 240.803 443.871C243.082 447.707 222.666 449.674 225.28 446.385Z" fill="white"/>
<path d="M244.985 443.904C244.985 443.904 249.697 442.799 248.652 446.253C247.606 449.707 241.674 444.812 244.985 443.904Z" fill="white"/>
<path d="M407.521 403.112C407.521 403.112 421.462 401.961 421.462 405.415C421.462 408.869 407.905 404.968 409.097 409.034C410.289 413.1 400.551 405.086 407.521 403.112Z" fill="white"/>
<path d="M286.843 441.786C286.843 441.786 281.092 441.786 280.569 445.345C280.046 448.904 295.723 441.496 286.341 442.641" fill="white"/>
<path d="M127.903 457.063C126.314 462.84 125.603 470.307 128.663 477.808" stroke="white" stroke-width="1.5" stroke-linecap="round"/>
<path d="M129.785 451.642C129.471 452.378 129.158 453.168 128.858 454.023" stroke="white" stroke-width="1.5" stroke-linecap="round"/>
<path d="M132.503 446.365C131.918 447.294 131.385 448.251 130.907 449.234" stroke="white" stroke-width="1.5" stroke-linecap="round"/>
<path d="M236.063 380.137C235.561 381.453 235.101 382.769 234.669 384.039" stroke="white" stroke-width="1.5" stroke-linecap="round"/>
<path d="M262.411 335.345C255.106 345.372 244.874 360.465 238.531 374.288" stroke="white" stroke-width="1.5" stroke-linecap="round"/>
<path d="M266.28 330.134L264.663 332.299" stroke="white" stroke-width="1.5" stroke-linecap="round"/>
<path d="M271.11 323.917C271.11 323.917 270.232 324.996 268.74 326.923" stroke="white" stroke-width="1.5" stroke-linecap="round"/>
<path d="M351.514 208.726C352.178 208.478 352.902 208.407 353.605 208.522" stroke="white" stroke-width="1.5" stroke-linecap="round"/>
<path d="M313.846 209.759C316.143 212.206 318.06 214.948 319.541 217.904C324.992 228.431 339.232 215.509 348.05 210.377" stroke="white" stroke-width="1.5" stroke-linecap="round"/>
<path d="M310.214 206.614C310.772 207.008 311.351 207.456 311.943 207.962" stroke="white" stroke-width="1.5" stroke-linecap="round"/>
<path d="M303.39 203.581C304.435 203.75 305.451 204.053 306.409 204.482" stroke="white" stroke-width="1.5" stroke-linecap="round"/>
<path d="M317.938 310.857C318.969 313.995 321.088 317.436 325.382 317.061" stroke="white" stroke-width="1.5" stroke-linecap="round"/>
<path d="M316.983 306.133C317.048 306.934 317.162 307.732 317.324 308.521" stroke="white" stroke-width="1.5" stroke-linecap="round"/>
<path d="M304.896 384.039H334.715" stroke="white" stroke-width="1.5" stroke-linecap="round"/>
<path d="M295.151 384.039H299.856" stroke="white" stroke-width="1.5" stroke-linecap="round"/>
<path d="M288.237 384.039H291.485" stroke="white" stroke-width="1.5" stroke-linecap="round"/>
<path d="M307.642 441.786H339.163" stroke="white" stroke-width="1.5" stroke-linecap="round"/>
<path d="M298.964 441.786H302.714" stroke="white" stroke-width="1.5" stroke-linecap="round"/>
<path d="M291.206 441.786H294.636" stroke="white" stroke-width="1.5" stroke-linecap="round"/>
<path d="M434.643 407.303C440.08 409.066 446.918 411.909 452.167 416.093" stroke="white" stroke-width="1.5" stroke-linecap="round"/>
<path d="M425.484 404.902C425.484 404.902 427.241 405.218 429.966 405.935" stroke="white" stroke-width="1.5" stroke-linecap="round"/>
<path d="M458.224 447.102C458.224 447.102 465.104 446.654 469.488 436.693C473.873 426.732 475.657 446.194 467.983 452.181C460.308 458.168 452.021 450.214 458.224 447.102Z" fill="white"/>
<path d="M475.253 446.108C475.253 446.108 471.475 452.24 473.406 452.648C475.337 453.056 478.947 445.036 475.253 446.108Z" fill="white"/>
<path d="M446.939 456.148C448.722 455.687 450.462 455.086 452.139 454.352" stroke="white"/>
<path d="M435.661 458.115C437.899 457.872 440.059 457.569 442.109 457.208" stroke="white"/>
<path d="M394.752 458.267C402.628 458.8 417.329 459.497 430.635 458.556" stroke="white"/>
<path d="M388.994 457.826L391.225 458.01" stroke="white"/>
<path d="M198.925 459.116C198.074 459.721 197.21 460.361 196.332 461.037" stroke="white"/>
<path d="M218.825 449.016C218.825 449.016 211.952 450.464 201.789 457.148" stroke="white"/>
<path d="M461.229 394.401C461.884 396.257 462.527 398.18 463.159 400.171" stroke="#1C1C1C"/>
<path d="M457.353 384.44C457.939 385.804 458.517 387.212 459.089 388.664" stroke="#1C1C1C"/>
<path d="M429.966 346.589C429.966 346.589 443.573 354.169 455.903 381.15" stroke="#1C1C1C"/>
<path d="M344.857 310.376C344.655 311.186 344.411 312.021 344.16 312.883" stroke="#1C1C1C"/>
<path d="M345.443 297.771C345.443 297.771 346.398 301.277 345.554 306.942" stroke="#1C1C1C"/>
<path d="M254.806 421.627C255.345 421.069 255.852 420.485 256.326 419.876" stroke="#1C1C1C"/>
<path d="M250.854 424.857C251.551 424.397 252.248 423.91 252.862 423.39" stroke="#1C1C1C"/>
<path d="M222.666 432.548C222.666 432.548 236.188 432.265 246.944 427.074" stroke="#1C1C1C"/>
<path d="M512.517 489.71C510.015 495.967 504.668 502.704 494.024 508.441" stroke="#1C1C1C"/>
<path d="M514.42 477.979C514.53 479.957 514.43 481.941 514.12 483.9" stroke="#1C1C1C"/>
<path d="M512.51 469.268C513.034 470.501 513.44 471.776 513.723 473.077" stroke="#1C1C1C"/>
<path d="M507.456 436.312C507.456 436.312 529.762 449.576 531.518 473.084" stroke="#1C1C1C"/>
<path d="M206.139 341.201C206.139 341.201 177.497 368.406 182.028 403.704" stroke="#1C1C1C"/>
<path d="M110.526 462.326C110.526 462.326 112.484 494.263 136.442 506.441" stroke="#1C1C1C"/>
<path d="M403.534 307.33C403.534 307.33 421.999 318.482 425.484 323.917" stroke="#1C1C1C"/>
<path d="M325.229 48.1895C325.229 48.1895 306.088 45.7223 294.635 61.2758C283.183 76.8294 295.869 73.4871 299.006 67.5657C302.143 61.6443 310.647 52.1305 324.706 53.3674C338.765 54.6044 329.996 48.2882 325.229 48.1895Z" fill="white"/>
<path d="M291.68 77.6979C291.68 77.6979 286.452 74.6122 283.831 80.9087C281.21 87.2051 286.055 91.0277 288.808 89.7973C291.561 88.567 295.479 77.2045 291.68 77.6979Z" fill="white"/>
<path d="M307.907 138.379C307.977 139.695 307.949 140.472 307.949 140.472" stroke="white" stroke-width="1.5" stroke-linecap="round"/>
<path d="M288.857 111.542C290.799 114.671 293.722 117.153 297.221 118.648C304.143 121.615 306.625 129.07 307.51 134.438" stroke="white" stroke-width="1.5" stroke-linecap="round"/>
<path d="M285.922 104.456C286.203 105.604 286.559 106.733 286.989 107.838" stroke="white" stroke-width="1.5" stroke-linecap="round"/>
<path d="M285.093 97.2058C285.058 98.3812 285.112 99.5575 285.253 100.726" stroke="white" stroke-width="1.5" stroke-linecap="round"/>
<path d="M306.137 155.597C306.137 155.597 304.436 156.959 304.896 158.624C305.356 160.289 309.016 157.019 310.194 157.821C311.372 158.624 311.365 154.736 306.137 155.597Z" fill="white"/>
<path d="M305.022 162.111C305.022 162.111 304.499 165.473 306.2 165.657C307.9 165.841 306.66 161.9 305.022 162.111Z" fill="white"/>
<path d="M312.41 156.584C312.309 157.021 312.406 157.477 312.68 157.841C312.953 158.206 313.377 158.445 313.846 158.499C315.617 158.749 315.031 156.525 312.41 156.584Z" fill="white"/>
<path d="M307.015 169.243C307.015 169.243 310.911 182.02 327.926 180.967" stroke="white" stroke-width="1.5" stroke-linecap="round"/>
<path d="M334.952 252.02C334.999 250.923 332.535 249.941 329.45 249.825C326.365 249.709 323.827 250.504 323.781 251.6C323.734 252.697 326.198 253.679 329.283 253.795C332.368 253.911 334.906 253.116 334.952 252.02Z" fill="white" stroke="#161616" stroke-width="1.5"/>
<path d="M329.439 253.419C330.536 253.419 331.425 252.58 331.425 251.544C331.425 250.508 330.536 249.669 329.439 249.669C328.342 249.669 327.452 250.508 327.452 251.544C327.452 252.58 328.342 253.419 329.439 253.419Z" fill="#161616"/>
<path d="M317.008 251.444C317.054 250.348 314.591 249.365 311.506 249.249C308.421 249.133 305.883 249.928 305.836 251.024C305.79 252.121 308.254 253.104 311.339 253.22C314.424 253.336 316.962 252.541 317.008 251.444Z" fill="white" stroke="#161616" stroke-width="1.5"/>
<path d="M311.399 252.86C312.497 252.86 313.386 252.02 313.386 250.985C313.386 249.949 312.497 249.11 311.399 249.11C310.302 249.11 309.413 249.949 309.413 250.985C309.413 252.02 310.302 252.86 311.399 252.86Z" fill="#161616"/>
</svg>
