<svg width="561" height="606" viewBox="0 0 561 606" fill="none" xmlns="http://www.w3.org/2000/svg">
<path d="M270.224 2.56475C270.224 2.56475 359.637 2.56474 382.331 134.04C398.184 225.88 406.826 271.274 503.854 264.786C595.095 258.684 589.834 492.277 393.881 525.772C197.927 559.266 218.047 422.57 122.458 429.059C26.8688 435.547 -18.7633 370.705 7.19275 287.499C33.1488 204.293 144.569 261.562 138.325 134.594C130.628 -26.4225 270.224 2.56475 270.224 2.56475Z" fill="#FCD062"/>
<path d="M279.027 605.031C331.386 605.031 373.832 602.307 373.832 598.946C373.832 595.585 331.386 592.861 279.027 592.861C226.667 592.861 184.222 595.585 184.222 598.946C184.222 602.307 226.667 605.031 279.027 605.031Z" fill="#080707" stroke="#080707" stroke-width="1.32" stroke-linecap="round"/>
<path d="M413.203 602.23C426.605 602.23 437.469 600.759 437.469 598.946C437.469 597.132 426.605 595.662 413.203 595.662C399.802 595.662 388.938 597.132 388.938 598.946C388.938 600.759 399.802 602.23 413.203 602.23Z" fill="#080707" stroke="#080707" stroke-width="1.32" stroke-linecap="round"/>
<path d="M261.907 537.836C259.713 491.921 260.003 430.062 273.848 396.427C297.666 338.558 265.347 250.654 188.288 302.678C188.288 302.678 186.619 451.186 229.759 545.484C244.411 547.437 257.887 540.246 261.907 537.836Z" fill="#334061" stroke="#080707" stroke-width="1.32" stroke-linecap="round"/>
<path opacity="0.29" d="M278.666 381.322C269.178 356.681 250.46 314.192 243.197 340.005C243.197 340.005 232.58 387.091 241.959 437.636C251.337 488.18 228.858 490.375 234.907 514.824C238.135 527.843 231.953 537.819 229.274 544.395C229.438 544.752 229.595 545.126 229.759 545.484C244.411 547.454 257.888 540.246 261.883 537.835C259.69 491.921 259.98 430.062 273.824 396.427C275.834 391.544 277.453 386.491 278.666 381.322Z" fill="#000012"/>
<path fill-rule="evenodd" clip-rule="evenodd" d="M261.907 537.836C259.713 491.921 260.003 430.062 273.848 396.427C297.666 338.558 265.347 250.654 188.288 302.678C188.288 302.678 186.619 451.186 229.759 545.484C244.411 547.437 257.887 540.246 261.907 537.836Z" stroke="#080707" stroke-width="1.32" stroke-linecap="round"/>
<path d="M243.181 340.005C246.722 352.596 251.625 364.708 257.793 376.101C277.593 412.987 283.79 485.604 284.558 540.172C289.98 541.71 301.796 544.669 312.765 544.744C360.935 412.048 343.572 322.63 343.572 322.63C326.664 273.366 239.365 282.519 239.365 282.519" fill="#334061"/>
<path d="M343.878 384.63C332.188 382.443 320.373 394.872 317.458 412.38C314.543 429.887 321.673 445.857 333.363 448.035C335.236 448.38 337.153 448.363 339.02 447.985C342.763 427.277 345.156 406.319 346.182 385.262C345.431 384.984 344.661 384.773 343.878 384.63Z" fill="#365254" stroke="#080707" stroke-width="1.32"/>
<path opacity="0.29" d="M285.89 540.546C291.767 542.142 302.65 544.703 312.733 544.703C360.935 412.048 343.573 322.631 343.573 322.631C339.537 310.876 331.491 302.454 321.587 296.436C295.794 295.056 264.015 295.047 254.205 302.296C254.205 302.296 313.517 298.273 314.536 371.155C315.554 444.038 293.553 469.892 302.704 500.626C310.007 525.25 295.12 530.811 285.89 540.546Z" fill="#000012"/>
<path d="M243.181 340.005C246.722 352.596 251.625 364.708 257.793 376.101C277.593 412.987 283.79 485.604 284.558 540.172C289.98 541.71 301.796 544.669 312.765 544.744C360.935 412.048 343.572 322.63 343.572 322.63C326.664 273.366 239.365 282.519 239.365 282.519" stroke="#080707" stroke-width="1.32" stroke-linecap="round"/>
<path d="M269.844 408.199C266.538 395.928 262.557 384.98 257.794 376.101C251.625 364.708 246.722 352.595 243.181 340.005C237.289 367.871 253.813 429.846 263.913 439.448C265.103 428.889 267.086 418.448 269.844 408.224V408.199Z" fill="#080707" stroke="#080707" stroke-width="1.32" stroke-linecap="round"/>
<path d="M222.927 149.938C222.927 149.938 131.256 181.986 125.239 234.359C124.455 240.827 124.698 246.214 125.709 250.579C127.699 252.075 135.111 263.88 151.651 243.837C168.191 223.793 203.425 188.371 200.668 202.669C197.91 216.968 188.053 262.525 188.084 312.404C197.408 306.909 294.211 287.864 343.572 322.663C337.359 291.904 331.397 241.351 331.397 241.351C331.397 241.351 352.551 217.725 343.933 197.216C335.314 176.707 355.999 136.022 222.927 149.938Z" fill="#F95808"/>
<path d="M208.189 155.882C198.873 158.076 233.199 174.171 195.144 185.161C140.972 200.807 126.837 247.402 125.842 250.67C128.012 252.523 135.417 263.455 151.651 243.811C168.191 223.784 203.449 188.37 200.668 202.669C199.986 206.185 198.873 211.614 197.588 218.522C213.807 203.758 227.009 189.484 229.861 185.735C237.391 175.834 217.552 153.712 208.189 155.882Z" fill="#D83B05"/>
<path d="M251.654 152.463C253.064 149.925 256.204 149.115 258.666 150.655C261.128 152.195 261.98 155.502 260.57 158.04L224.551 222.868C223.141 225.407 220.001 226.216 217.539 224.676C215.077 223.136 214.224 219.83 215.635 217.291L251.654 152.463Z" fill="#D83B05"/>
<path d="M343.572 322.63C337.359 291.871 331.397 241.318 331.397 241.318C333.475 238.895 335.384 236.314 337.109 233.595C331.303 225.282 326.304 219.288 325.575 218.266C328.247 203.983 304.052 195.878 304.052 195.878C324.11 211.05 272.986 258.535 283.367 270.805C293.749 283.076 281.988 290.4 254.26 289.851C226.531 289.302 188.304 301.199 188.116 312.372C197.408 306.877 294.211 287.831 343.572 322.63Z" fill="#D83B05"/>
<path fill-rule="evenodd" clip-rule="evenodd" d="M222.927 149.938C222.927 149.938 131.256 181.986 125.239 234.359C124.455 240.827 124.698 246.214 125.709 250.579C127.699 252.075 135.111 263.88 151.651 243.837C168.191 223.793 203.425 188.371 200.668 202.669C197.91 216.968 188.053 262.525 188.084 312.404C197.408 306.909 294.211 287.864 343.572 322.663C337.359 291.904 331.397 241.351 331.397 241.351C331.397 241.351 352.552 217.725 343.933 197.216C335.314 176.707 355.999 136.022 222.927 149.938V149.938Z" stroke="#080707" stroke-width="1.32"/>
<path d="M288.852 271.353H229.893C253.108 242.497 252.34 203.067 252.34 203.067H311.323C311.323 203.067 309.897 255.075 288.852 271.353Z" fill="#E6EFF8" stroke="#080707" stroke-width="1.32" stroke-linecap="round"/>
<path d="M294.399 277.173H235.424C258.648 248.318 257.88 208.888 257.88 208.888H316.855C316.855 208.888 315.437 260.904 294.399 277.173Z" fill="#E6EFF8"/>
<path d="M294.814 234.858C277.726 257.08 264.649 252.216 268.959 261.552C272.422 269.034 247.976 270.58 235.973 276.416C235.777 276.666 235.597 276.923 235.393 277.173H294.368C315.405 260.895 316.823 208.888 316.823 208.888H257.88C257.88 208.888 311.903 212.645 294.814 234.858Z" fill="#8EC2C2"/>
<path fill-rule="evenodd" clip-rule="evenodd" d="M294.399 277.173H235.424C258.648 248.318 257.88 208.888 257.88 208.888H316.855C316.855 208.888 315.437 260.904 294.399 277.173Z" stroke="#080707" stroke-width="1.32" stroke-linecap="round"/>
<path d="M244.663 152.461C246.073 149.923 249.213 149.113 251.675 150.653C254.137 152.193 254.989 155.5 253.579 158.038L217.56 222.866C216.149 225.405 213.01 226.214 210.548 224.674C208.086 223.134 207.233 219.828 208.644 217.289L244.663 152.461Z" fill="white"/>
<path opacity="0.23" d="M243.236 176.666C241.097 174.936 237.297 174.778 231.24 176.807C231.24 176.807 236.631 185.02 232.196 188.911C228.051 192.544 217.96 219.229 209.686 224.001C209.951 224.258 210.24 224.486 210.548 224.683C211.73 225.426 213.142 225.639 214.472 225.275C215.802 224.912 216.941 224.002 217.638 222.746L243.236 176.666Z" fill="#080707"/>
<path fill-rule="evenodd" clip-rule="evenodd" d="M244.663 152.461C246.073 149.923 249.213 149.113 251.675 150.653V150.653C254.137 152.193 254.989 155.5 253.579 158.038L217.56 222.866C216.149 225.405 213.01 226.214 210.548 224.674V224.674C208.086 223.134 207.233 219.828 208.644 217.289L244.663 152.461Z" stroke="#080707" stroke-width="1.32" stroke-linecap="round"/>
<path d="M212.577 211.647C194.235 241.093 140.494 289.435 125.779 250.886C125.779 250.886 129.25 229.895 162.134 207.657C196.115 184.638 229.579 188.711 228.796 190.199C228.012 191.687 223.358 191.937 223.538 192.951C240.188 198.77 224.956 216.893 222.927 213.094C225.991 208.33 219.652 199.635 212.577 211.714" fill="white"/>
<path d="M222.927 149.939C222.927 149.939 131.256 181.987 125.239 234.36C119.221 286.734 175.642 268.237 212.577 211.648C219.629 199.569 225.991 208.265 222.927 213.028C224.956 216.827 240.164 198.696 223.538 192.885C223.358 191.871 228.02 191.597 228.796 190.134C229.571 188.67 196.828 185.827 162.134 207.591C136.694 223.578 128.443 241.925 125.717 250.588" stroke="#080707" stroke-width="1.32"/>
<path d="M325.575 218.231C325.575 218.305 325.575 218.388 325.536 218.472C321.744 236.761 248.219 219.303 245.539 219.635C242.86 219.968 247.717 224.623 248.219 224.49C241.481 225.654 232.854 231.972 232.274 234.591C231.695 237.21 234.319 234.2 242.178 231.266C231.906 237.675 231.131 245.124 233.199 243.087C235.354 239.687 244.913 234.666 245.688 235.148C246.464 235.63 234.578 242.771 236.568 246.363C239.843 242.871 251.298 236.653 250.867 238.789C240.76 243.927 242.523 248.549 242.523 248.549C242.523 248.549 254.377 237.351 259.345 242.006C285.569 272.633 337.532 275.717 363.615 253.088C362.118 219.818 336.301 217.698 325.575 218.231Z" fill="white"/>
<path fill-rule="evenodd" clip-rule="evenodd" d="M325.575 218.231C325.575 218.305 325.575 218.388 325.536 218.472C321.744 236.761 248.219 219.303 245.539 219.635C242.86 219.968 247.717 224.623 248.219 224.49C241.481 225.654 232.854 231.972 232.274 234.591C231.695 237.21 234.319 234.2 242.178 231.266C231.906 237.675 231.131 245.124 233.199 243.087C235.354 239.687 244.913 234.666 245.688 235.148C246.464 235.63 234.578 242.771 236.568 246.363C239.843 242.871 251.298 236.653 250.867 238.789C240.76 243.927 242.523 248.549 242.523 248.549C242.523 248.549 254.377 237.351 259.345 242.006C285.569 272.633 337.532 275.717 363.615 253.088C362.118 219.818 336.301 217.698 325.575 218.231V218.231Z" stroke="#080707" stroke-width="1.32" stroke-linecap="round"/>
<path d="M314.23 153.048C314.23 153.048 377.577 157.903 379.301 215.979C379.779 232.04 373.581 244.436 363.63 253.09C362.134 219.837 336.317 217.7 325.591 218.265C328.263 203.983 304.068 195.878 304.068 195.878C296.123 193.708 252.662 206.943 244.866 197.366C237.07 187.789 260.536 174.612 263.623 174.43C266.71 174.247 314.23 153.048 314.23 153.048Z" fill="#F95808"/>
<path d="M314.23 153.048C314.23 153.048 248.822 175.003 245.712 175.211C245.027 175.339 244.411 175.73 243.98 176.308C243.024 177.971 238.833 185.819 238.112 187.664C238.112 187.664 264.892 203.044 310.101 182.901C339.263 166.973 367.908 190.798 365.84 223.22C365.488 228.235 363.401 232.934 359.979 236.413C362.233 241.669 363.469 247.351 363.615 253.123C373.581 244.469 379.779 232.074 379.285 216.013C377.577 157.903 314.23 153.048 314.23 153.048V153.048Z" fill="#D83B05"/>
<path d="M304.052 195.878C304.052 195.878 328.247 203.983 325.575 218.265C336.302 217.7 362.118 219.82 363.615 253.09C373.581 244.436 379.779 232.04 379.285 215.979C377.561 157.903 314.214 153.048 314.214 153.048" stroke="#080707" stroke-width="1.32" stroke-linecap="round"/>
<path d="M268.99 186.924C311.976 186.924 346.824 149.95 346.824 104.34C346.824 58.7304 311.976 21.7563 268.99 21.7563C226.003 21.7563 191.156 58.7304 191.156 104.34C191.156 149.95 226.003 186.924 268.99 186.924Z" fill="white" stroke="#080707" stroke-width="1.32" stroke-linecap="round"/>
<path d="M268.99 31.8896C241.367 31.8863 216.463 49.539 205.891 76.6156C195.319 103.692 201.161 134.86 220.693 155.584C240.225 176.308 269.6 182.507 295.12 171.289C320.639 160.072 337.276 133.648 337.273 104.34C337.157 64.3778 306.653 32.0129 268.99 31.8896V31.8896Z" fill="#AFCDEA"/>
<path fill-rule="evenodd" clip-rule="evenodd" d="M268.99 176.79C306.702 176.79 337.273 144.353 337.273 104.34C337.273 64.3267 306.702 31.8896 268.99 31.8896C231.278 31.8896 200.707 64.3267 200.707 104.34C200.707 144.353 231.278 176.79 268.99 176.79Z" stroke="#080707" stroke-width="1.32" stroke-linecap="round"/>
<path d="M279.027 529.38C279.027 529.38 293.616 538.716 323.554 536.247" stroke="#080707" stroke-width="1.32" stroke-linecap="round"/>
<path d="M218.015 537.403C218.015 537.403 235.761 541.11 265.872 528.15" stroke="#080707" stroke-width="1.32" stroke-linecap="round"/>
<path d="M315.578 329.462C315.578 329.462 311.903 348.475 331.42 347.893" stroke="#080707" stroke-width="1.32" stroke-linecap="round"/>
<path d="M301.059 575.288C301.048 575.01 301.064 574.731 301.106 574.457C305.353 564.337 309.226 554.441 312.726 544.77C301.819 544.695 290.004 541.736 284.519 540.198C284.676 551.886 284.59 562.743 284.339 572.245C284.088 581.747 284.848 580.476 301.059 575.288Z" fill="white"/>
<path fill-rule="evenodd" clip-rule="evenodd" d="M301.059 575.288C301.048 575.01 301.064 574.731 301.106 574.457C305.353 564.337 309.226 554.441 312.726 544.77C301.819 544.695 290.004 541.736 284.519 540.198C284.676 551.886 284.59 562.743 284.339 572.245C284.088 581.747 284.848 580.476 301.059 575.288V575.288Z" stroke="#080707" stroke-width="1.32" stroke-linecap="round"/>
<path d="M315.617 590.175C312.577 589.993 301.177 581.471 301.067 575.286C284.856 580.474 284.386 572.219 284.386 572.219C284.127 581.796 283.696 590.001 283.172 596.277C326.664 604.582 327.699 590.907 315.617 590.175Z" fill="#F39C3D"/>
<path d="M315.617 590.175C312.577 589.992 301.177 581.471 301.067 575.286C299.152 575.914 297.195 576.392 295.214 576.716C295.144 579.9 295.684 585.968 300.432 588.163C306.99 591.181 311.135 597.524 294.047 596.692C293.458 596.846 292.965 597.274 292.707 597.856C326.743 602.495 326.743 590.848 315.617 590.175Z" fill="#F95808"/>
<path fill-rule="evenodd" clip-rule="evenodd" d="M315.617 590.175C312.577 589.993 301.177 581.471 301.067 575.286C284.856 580.474 284.386 572.219 284.386 572.219C284.127 581.796 283.696 590.001 283.172 596.277C326.664 604.582 327.699 590.907 315.617 590.175V590.175Z" stroke="#080707" stroke-width="1.32" stroke-linecap="round"/>
<path d="M264.171 572.817C263.388 563.232 262.542 551.203 261.907 537.835C257.887 540.246 244.411 547.453 229.783 545.483C234.946 556.997 241.149 567.953 248.305 578.196C260.183 579.859 264.171 572.817 264.171 572.817Z" fill="white"/>
<path fill-rule="evenodd" clip-rule="evenodd" d="M264.171 572.817C263.388 563.232 262.542 551.203 261.907 537.835C257.887 540.246 244.411 547.453 229.783 545.483C234.946 556.997 241.149 567.953 248.305 578.196C260.183 579.859 264.171 572.817 264.171 572.817V572.817Z" stroke="#080707" stroke-width="1.32" stroke-linecap="round"/>
<path d="M220.773 593.244C220.083 599.063 266.342 595.738 266.342 595.738C266.342 595.738 265.323 586.943 264.171 572.843C264.171 572.843 260.183 579.868 248.305 578.197C242.092 589.885 221.47 587.383 220.773 593.244Z" fill="#F39C3D"/>
<path d="M264.171 572.816C264.171 572.816 261.092 578.228 252.301 578.42C254.526 581.795 259.415 590.15 254.229 591.455C249.661 592.61 235.738 589.069 226.398 589.46C223.264 590.357 220.992 591.38 220.773 593.242C220.083 599.061 266.342 595.736 266.342 595.736C266.342 595.736 265.347 586.916 264.171 572.816V572.816Z" fill="#F95808"/>
<path fill-rule="evenodd" clip-rule="evenodd" d="M220.773 593.244C220.083 599.063 266.342 595.738 266.342 595.738C266.342 595.738 265.323 586.943 264.171 572.843C264.171 572.843 260.183 579.868 248.305 578.197C242.092 589.885 221.47 587.383 220.773 593.244V593.244Z" stroke="#080707" stroke-width="1.32" stroke-linecap="round"/>
<path d="M269.154 142.041C306.325 142.041 336.458 127.227 336.458 108.954C336.458 90.6806 306.325 75.8672 269.154 75.8672C231.984 75.8672 201.851 90.6806 201.851 108.954C201.851 127.227 231.984 142.041 269.154 142.041Z" fill="white"/>
<path opacity="0.1" d="M269.437 31.8896C265.635 31.8931 261.84 32.2323 258.091 32.9039C290.971 38.7665 315.052 68.9684 315.052 104.344C315.052 139.719 290.971 169.921 258.091 175.784C283.49 180.322 309.134 169.31 324.409 147.307C339.684 125.303 341.99 96.0524 330.373 71.662C318.756 47.2717 295.193 31.8922 269.437 31.8896V31.8896Z" fill="black"/>
<path fill-rule="evenodd" clip-rule="evenodd" d="M269.154 142.041C306.325 142.041 336.458 127.227 336.458 108.954C336.458 90.6806 306.325 75.8672 269.154 75.8672C231.984 75.8672 201.851 90.6806 201.851 108.954C201.851 127.227 231.984 142.041 269.154 142.041Z" stroke="#080707" stroke-width="1.32" stroke-linecap="round"/>
<path d="M280.766 83.4663C267.715 83.4844 256.041 92.0816 251.46 105.048C246.88 118.014 250.351 132.635 260.175 141.751C263.114 141.942 266.107 142.05 269.154 142.05C281.54 142.152 293.874 140.357 305.776 136.721C312.892 126.654 314.042 113.188 308.749 101.928C303.456 90.6672 292.626 83.5413 280.766 83.5162V83.4663Z" fill="#080707" stroke="#080707" stroke-width="1.32" stroke-linecap="round"/>
<path d="M195.371 387.099C194.482 387.267 193.608 387.52 192.762 387.855C194.729 407.416 197.565 428.898 201.639 450.67C203.055 450.825 204.484 450.772 205.886 450.512C217.576 448.326 224.69 432.364 221.791 414.857C218.892 397.349 207.061 384.921 195.371 387.099Z" fill="#365254" stroke="#080707" stroke-width="1.32"/>
<path opacity="0.23" d="M363.615 253.089C363.469 247.317 362.233 241.635 359.979 236.379C341.825 255.824 286.619 254.868 263.121 237.21C255.122 231.208 247.913 232.223 241.732 236.737C243.745 235.673 245.391 235.016 245.688 235.207C246.472 235.689 234.578 242.83 236.568 246.422C239.843 242.93 251.298 236.712 250.867 238.848C240.76 243.986 242.523 248.608 242.523 248.608C242.523 248.608 254.377 237.352 259.345 242.007C285.569 272.633 337.532 275.718 363.615 253.089Z" fill="#080707"/>
<path opacity="0.23" d="M224.4 200.026C202.391 187.664 153.978 259.632 138.707 259.249C123.554 258.875 133.223 235.257 133.419 234.875C126.861 244.427 125.779 250.886 125.779 250.886C140.517 289.435 194.235 241.093 212.577 211.648C219.628 199.569 225.991 208.264 222.927 213.028C223.899 214.832 227.848 211.673 229.932 207.208C229.689 204.54 228.036 202.063 224.4 200.026Z" fill="#080707"/>
<path d="M298.701 102.238C304.421 102.238 309.059 97.3176 309.059 91.2479C309.059 85.1783 304.421 80.2578 298.701 80.2578C292.98 80.2578 288.343 85.1783 288.343 91.2479C288.343 97.3176 292.98 102.238 298.701 102.238Z" fill="white"/>
<path d="M261.225 36.9447C261.225 36.9447 239.843 39.605 228.279 56.6306C223.711 65.1517 231.413 64.5115 233.371 58.6507C235.33 52.7898 246.746 42.4398 253.132 42.5313C259.517 42.6227 267.58 36.6704 261.225 36.9447Z" fill="white"/>
<path d="M223.186 68.5929C223.186 68.5929 224.988 66.2153 226.853 66.3982C228.717 66.5811 227.761 72.7163 225.521 72.1676C223.28 71.6189 222.152 71.4693 223.186 68.5929Z" fill="white"/>
<path opacity="0.23" d="M300.252 543.638C299.563 549.906 296.507 569.858 285.365 574.539C286.932 576.509 290.897 578.537 301.036 575.287C301.025 575.009 301.041 574.73 301.083 574.455C305.329 564.335 309.202 554.44 312.702 544.769C308.532 544.698 304.372 544.321 300.252 543.638V543.638Z" fill="#080707"/>
<path opacity="0.23" d="M264.171 572.817C263.388 563.232 262.542 551.203 261.907 537.835C256.314 541.132 250.275 543.493 244.004 544.835C248.141 552.059 256.375 569.051 247.788 577.414L248.305 578.171C260.183 579.858 264.171 572.817 264.171 572.817Z" fill="#080707"/>
<path d="M299.821 582.759C301.854 580.643 304.623 579.517 307.468 579.65" stroke="#080707" stroke-width="1.32" stroke-linecap="round"/>
<path d="M302.172 586.31C304.204 584.194 306.974 583.068 309.819 583.201" stroke="#080707" stroke-width="1.32" stroke-linecap="round"/>
<path d="M305.635 589.435C307.665 587.314 310.435 586.185 313.282 586.318" stroke="#080707" stroke-width="1.32" stroke-linecap="round"/>
<path d="M247.827 583.184C245.797 581.063 243.027 579.933 240.18 580.066" stroke="#080707" stroke-width="1.32" stroke-linecap="round"/>
<path d="M244.059 586.31C242.026 584.194 239.256 583.068 236.411 583.201" stroke="#080707" stroke-width="1.32" stroke-linecap="round"/>
<path d="M240.274 589.002C238.241 586.886 235.472 585.76 232.627 585.893" stroke="#080707" stroke-width="1.32" stroke-linecap="round"/>
<path fill-rule="evenodd" clip-rule="evenodd" d="M231.729 581.512C234.258 581.394 236.288 580.792 236.262 580.169C236.237 579.545 234.167 579.135 231.638 579.253C229.109 579.371 227.079 579.973 227.104 580.596C227.13 581.22 229.2 581.63 231.729 581.512Z" stroke="#080707" stroke-width="1.32" stroke-linecap="round"/>
<path fill-rule="evenodd" clip-rule="evenodd" d="M239.483 576.505C240.731 574.168 241.327 572.024 240.815 571.716C240.303 571.408 238.877 573.053 237.629 575.39C236.381 577.727 235.785 579.871 236.297 580.179C236.809 580.487 238.236 578.842 239.483 576.505Z" stroke="#080707" stroke-width="1.32" stroke-linecap="round"/>
<path fill-rule="evenodd" clip-rule="evenodd" d="M319.169 581.511C319.267 580.895 317.324 580.032 314.828 579.583C312.332 579.134 310.229 579.27 310.131 579.885C310.032 580.501 311.976 581.364 314.472 581.813C316.967 582.262 319.07 582.126 319.169 581.511Z" stroke="#080707" stroke-width="1.32" stroke-linecap="round"/>
<path fill-rule="evenodd" clip-rule="evenodd" d="M310.098 579.783C310.642 579.545 310.301 577.339 309.336 574.856C308.372 572.373 307.149 570.552 306.605 570.79C306.061 571.028 306.401 573.234 307.366 575.717C308.331 578.201 309.554 580.021 310.098 579.783Z" stroke="#080707" stroke-width="1.32" stroke-linecap="round"/>
<path opacity="0.4" d="M200.699 162.117C200.699 162.117 166.075 181.894 159.118 190.681C153.719 198.097 210.407 162.94 200.699 162.117Z" fill="white"/>
<path opacity="0.4" d="M152.685 195.878C152.685 195.878 144.396 203.094 145.955 203.069C147.514 203.044 156.046 198.048 152.685 195.878Z" fill="white"/>
<path opacity="0.4" d="M200.699 240.677C200.699 240.677 195.661 253.039 197.212 261.277C198.764 269.516 203.943 256.331 203.943 244.252C203.943 232.172 200.699 240.677 200.699 240.677Z" fill="white"/>
<path d="M331.162 207.615C332.012 209.337 332.761 211.114 333.403 212.936" stroke="white" stroke-width="1.32" stroke-linecap="round"/>
<path d="M312.091 187.665C317.801 190.689 322.8 195.032 326.719 200.376" stroke="white" stroke-width="1.32" stroke-linecap="round"/>
<path d="M197.181 273.099C195.642 282.359 194.691 291.719 194.337 301.114" stroke="white" stroke-width="1.32" stroke-linecap="round"/>
<path d="M292.996 518.939C292.918 521.057 292.819 523.193 292.699 525.349" stroke="white" stroke-width="1.32" stroke-linecap="round"/>
<path d="M293.349 504.75C293.349 506.939 293.312 509.156 293.239 511.401" stroke="white" stroke-width="1.32" stroke-linecap="round"/>
<path d="M288.57 434.934C291.668 455.726 293.271 476.739 293.365 497.79" stroke="white" stroke-width="1.32" stroke-linecap="round"/>
<path d="M265.206 348.818C270.792 362.061 278.713 383.975 284.731 413.296" stroke="white" stroke-width="1.32" stroke-linecap="round"/>
<path d="M258.295 334.169C258.295 334.169 259.541 336.38 261.562 340.67" stroke="white" stroke-width="1.32" stroke-linecap="round"/>
<path opacity="0.4" d="M194.368 329.77C194.368 329.77 197.902 433.054 212.749 478.104C221.031 496.052 220.584 479.908 215.883 464.188C211.182 448.467 196.867 367.87 203.943 341.858C211.018 315.846 193.718 315.538 194.368 329.77Z" fill="white"/>
<path opacity="0.4" d="M219.245 492.388C219.245 492.388 228.647 505.573 224.486 509.239C220.326 512.905 211.59 493.119 219.245 492.388Z" fill="white"/>
<path d="M231.522 156.97C239.177 163.574 248.345 167.908 258.091 169.532" stroke="white"/>
<path d="M214.998 136.571C217.07 140.499 219.526 144.185 222.324 147.569" stroke="white"/>
<path d="M225.521 206.435C225.521 206.435 227.526 210.026 226.61 211.938" stroke="#080707"/>
<path d="M226.171 201.854C226.171 201.854 229.916 204.049 229.916 207.616" stroke="#080707"/>
<path d="M226.461 198.355C226.461 198.355 230.488 200.018 231.201 202.811" stroke="#080707"/>
</svg>
