<svg width="603" height="619" viewBox="0 0 603 619" fill="none" xmlns="http://www.w3.org/2000/svg">
<path d="M397.756 521.478C390.284 522.873 382.707 524.095 375.053 525.204C250.251 543.251 119.116 528.35 47.9317 411.026C11.0859 350.208 23.116 277.597 92.2937 249.416C121.588 237.479 154.297 235.372 186.261 236.471C208.286 237.23 232.288 238.934 250.084 226.613C262.914 217.73 269.982 203.153 277.107 189.448C310.065 126.088 360.33 80.0417 434.99 69.6851C491.543 61.8341 556.33 80.6733 581.18 135.963C590.44 156.559 591.937 180.689 583.158 201.146C573.331 224.04 552.363 240.019 533.35 256.412C511.878 274.938 487.423 300.625 493.489 331.492C500.452 366.972 552.365 376.661 547.59 413.458C545.951 426.144 539.397 437.667 531.824 447.962C498.583 493.234 450.709 511.608 397.756 521.478Z" fill="#FCD062"/>
<path d="M307.364 242.873C307.364 242.873 244.08 250.191 248.418 329.285C252.756 408.379 384.806 435.751 385.076 460.899C385.347 486.047 393.702 495.345 393.702 495.345C393.702 495.345 411.023 462.487 411.866 444.294C412.709 426.101 362.177 387.019 359.884 373.617C357.591 360.216 407.849 275.259 407.849 275.259C407.849 275.259 339.275 221.429 307.364 242.873Z" fill="#2E3953"/>
<path opacity="0.87" d="M404.021 431.673C405.985 435.543 408.052 436.942 409.985 436.565C400.823 416.736 361.926 385.317 359.917 373.622C359.467 370.961 361.075 365.491 363.945 358.436C345.875 342.607 332.564 324.002 345.781 302.028C364.391 271.067 380.625 262.926 380.258 256.861C372.849 252.525 365.184 248.683 357.308 245.359C345.236 242.904 328.443 241.04 312.316 240.278C310.584 240.977 308.923 241.855 307.361 242.9C307.361 242.9 290.007 244.911 274.115 258.162C279.001 262.019 290.266 269.371 304.137 267.958C322.774 266.066 276.55 294.845 294.206 329.509C311.862 364.172 274.137 371.917 315.51 398.185C356.883 424.453 395.432 414.76 404.021 431.673Z" fill="#131824"/>
<path fill-rule="evenodd" clip-rule="evenodd" d="M307.364 242.873C307.364 242.873 244.08 250.191 248.418 329.285C252.756 408.379 384.806 435.751 385.076 460.899C385.347 486.047 393.702 495.345 393.702 495.345C393.702 495.345 411.023 462.487 411.866 444.294C412.709 426.101 362.177 387.019 359.884 373.617C357.591 360.216 407.849 275.259 407.849 275.259C407.849 275.259 339.275 221.429 307.364 242.873V242.873Z" stroke="#141414" stroke-width="1.76"/>
<path d="M370.519 123.205C370.519 123.205 340.605 131.96 332.516 163.314C328.864 177.717 321.911 190.979 312.252 201.964C318.162 209.978 324.744 222.217 323.675 236.017L325.19 235.434C381.288 213.417 370.519 123.205 370.519 123.205Z" fill="white"/>
<path d="M352.549 169.782C350.664 192.188 332.423 215.655 327.162 205.899C321.359 195.136 317.9 200.91 313.556 200.469C313.126 200.982 312.69 201.494 312.249 201.992C318.124 209.958 324.658 222.107 323.681 235.814C324.189 235.732 324.692 235.617 325.186 235.468C326.458 234.948 327.677 234.421 328.869 233.89C345.607 224.456 362.088 186.697 352.549 169.782V169.782Z" fill="#C7DEF9"/>
<path class="banner1" fill-rule="evenodd" clip-rule="evenodd" d="M370.519 123.205C370.519 123.205 340.605 131.96 332.516 163.314C328.864 177.717 321.911 190.979 312.252 201.964C318.162 209.978 324.744 222.217 323.675 236.017L325.19 235.434C381.288 213.417 370.519 123.205 370.519 123.205Z" stroke="#141414" stroke-width="1.76"/>
<path d="M312.25 201.985C295.7 220.694 273.743 229.423 257.398 227.587C253.81 227.078 268.824 256.928 323.672 236.037C324.742 222.238 318.16 209.999 312.25 201.985V201.985Z" fill="#F2AF9A"/>
<path opacity="0.61" d="M312.25 201.985C311.997 202.271 311.739 202.549 311.468 202.826C312.88 208.101 317.777 232.856 287.899 240.083C284.148 241.013 280.344 241.696 276.51 242.128C287.041 244.582 302.337 244.126 323.662 236.008C324.742 222.237 318.16 209.998 312.25 201.985Z" fill="#EC8569"/>
<path fill-rule="evenodd" clip-rule="evenodd" d="M312.25 201.985C295.7 220.694 273.743 229.423 257.398 227.587C253.81 227.078 268.824 256.928 323.672 236.037C324.742 222.238 318.16 209.999 312.25 201.985V201.985Z" stroke="#141414" stroke-width="1.76"/>
<path d="M398.222 474.216C381.68 397.388 439.581 344.897 439.581 344.897C452.625 278.993 381.608 256.36 362.78 258.014C343.951 259.669 286.904 339.197 311.411 433.711C321.362 472.069 338.57 496.554 355.413 512.608C379.863 504.638 393.244 483.73 398.222 474.216Z" fill="#2E3953"/>
<path opacity="0.4" d="M404.473 270.454C388.118 260.979 370.765 257.313 362.78 258.015C361.827 258.115 360.892 258.347 359.999 258.705C369.778 264.796 409.309 292.196 405.318 335.066C399.857 373.009 355.658 349.133 353.154 384.087C350.651 419.04 407.314 467.442 341.921 497.807C355.632 500.599 385.714 499.616 396.689 466.026C385.726 393.678 439.535 344.89 439.535 344.89C441.01 337.728 441.445 330.373 440.826 323.072C433.527 304.718 420.104 284.166 404.473 270.454Z" fill="#2E3953"/>
<path fill-rule="evenodd" clip-rule="evenodd" d="M398.222 474.216C381.68 397.388 439.581 344.897 439.581 344.897C452.625 278.993 381.608 256.36 362.78 258.014C343.951 259.669 286.904 339.197 311.411 433.711C321.362 472.069 338.57 496.554 355.413 512.608C379.863 504.638 393.244 483.73 398.222 474.216V474.216Z" stroke="#141414" stroke-width="1.76"/>
<path d="M351.954 170.538C359.918 206.2 324.069 246.559 287.456 243.457C348.682 258.164 392.831 243.308 439.561 344.894C448.596 333.359 492.591 290.683 484.131 220.419C476.729 158.944 421.496 99.3072 370.5 123.202" fill="white"/>
<path d="M360.857 258.414C388.554 268.027 413.671 288.538 439.595 344.892C448.63 333.356 492.625 290.681 484.165 220.417C483.511 215.05 482.514 209.733 481.18 204.502C453.791 172.665 416.229 160.287 416.259 171.149C416.259 171.149 445.366 192.505 424.968 215.421C413.584 225.664 361.648 219.22 371.676 243.799C383.838 255.983 370.415 258.146 360.857 258.414H360.857Z" fill="#C7DEF9"/>
<path d="M351.954 170.538C359.918 206.2 324.069 246.559 287.456 243.457C348.682 258.164 392.831 243.308 439.561 344.894C448.596 333.359 492.591 290.683 484.131 220.419C476.729 158.944 421.496 99.3072 370.5 123.202" stroke="#141414" stroke-width="1.76"/>
<path d="M324.122 232.552C324.122 232.552 430.774 238.771 453.683 327.682" stroke="#141414" stroke-width="1.76"/>
<path d="M416.245 171.154C433.19 175.434 451.77 191.748 439.664 201.476C450.854 202.951 468.959 209.132 484.895 231.637C506.094 211.901 509.043 180.168 486.588 152.229C440.378 94.7406 389.263 117.933 389.263 117.933" fill="white"/>
<path opacity="0.83" d="M486.607 152.232C453.383 110.922 417.636 111.269 400.151 114.766C411.405 113.395 427.229 114.583 441.779 126.713C468.119 148.65 442.761 161.153 462.577 168.473C474.06 172.727 480.12 195.462 467.145 213.075C473.979 218.268 479.981 224.553 484.928 231.698C506.113 211.904 509.076 180.172 486.607 152.232Z" fill="#C7DEF9"/>
<path d="M416.245 171.154C433.19 175.434 451.77 191.748 439.664 201.476C450.854 202.951 468.959 209.132 484.895 231.637C506.094 211.901 509.043 180.168 486.588 152.229C440.378 94.7406 389.263 117.933 389.263 117.933" stroke="#141414" stroke-width="1.76"/>
<path d="M433.668 204.755C391.72 220.91 356.481 205.817 352.752 208.431C349.022 211.045 362.926 216.041 355.5 217.998C348.073 219.954 340.603 223.34 341.547 224.783C342.491 226.226 354.971 224.069 354.971 224.069C354.971 224.069 338.824 231.326 339.679 233.408C340.534 235.489 357.923 229.346 357.923 229.346C357.923 229.346 344.511 237.887 346.88 238.98C349.249 240.072 360.135 232.754 360.135 232.754C360.135 232.754 354.567 236.934 354.252 239.374C357.023 242.253 363.29 234.636 365.048 235.306C419.745 259.915 462.508 252.451 484.921 231.592C468.993 209.032 450.86 202.903 439.69 201.43C437.857 202.849 435.826 203.97 433.668 204.755Z" fill="#F2AF9A"/>
<path fill-rule="evenodd" clip-rule="evenodd" d="M433.668 204.755C391.72 220.91 356.481 205.817 352.752 208.431C349.022 211.045 362.926 216.041 355.5 217.998C348.073 219.954 340.603 223.34 341.547 224.783C342.491 226.226 354.971 224.069 354.971 224.069C354.971 224.069 338.824 231.326 339.679 233.408C340.534 235.489 357.923 229.346 357.923 229.346C357.923 229.346 344.511 237.887 346.88 238.98C349.249 240.072 360.135 232.754 360.135 232.754C360.135 232.754 354.567 236.934 354.252 239.374C357.023 242.253 363.29 234.636 365.047 235.306C419.745 259.915 462.508 252.451 484.921 231.592C468.993 209.032 450.86 202.903 439.69 201.43C437.857 202.849 435.826 203.97 433.668 204.755V204.755Z" stroke="#141414" stroke-width="1.76"/>
<path d="M353.624 79.7378C353.624 79.7378 344.713 129.225 370.519 123.205C371.109 138.073 377.265 155.949 387.328 155.935C397.391 155.921 399.646 112.685 374.116 72.9639C361.529 61.3708 353.624 79.7378 353.624 79.7378Z" fill="#F2AF9A" stroke="#141414" stroke-width="1.76"/>
<path d="M342.469 247.804L269.367 225.792L234.966 238.958C234.966 238.958 296.986 250.9 306.226 251.685C315.465 252.471 342.469 247.804 342.469 247.804Z" fill="#1E45C1" stroke="#141414" stroke-width="1.76"/>
<path d="M352.981 87.3187C335.965 95.6219 317.469 76.6806 320.585 61.6243C323.701 46.5681 348.028 67.2607 353.067 63.2644C358.106 59.2682 343.911 51.7243 346.821 44.4159C349.73 37.1074 373.612 41.7626 381.777 64.2014C385.656 60.2157 398.834 58.0741 392.898 72.8703C389.928 80.2331 384.785 95.0859 388.054 101.773C381.536 86.8477 377.946 89.9925 379.859 94.618C380.587 95.5963 382.564 106.342 380.648 105.545C378.732 104.748 370.694 78.6734 352.981 87.3187Z" fill="#E42F2F"/>
<path d="M388.06 101.774C384.792 95.0869 389.948 80.236 392.905 72.8713C398.854 58.077 385.656 60.2158 381.783 64.2024C374.455 44.0874 354.474 38.2566 348.352 42.5612C354.261 43.3994 371.184 47.4803 375.268 65.9801C376.65 76.1164 383.734 66.6562 385.135 71.391C386.535 76.1258 384.293 87.75 377.311 84.4914C370.329 81.2328 355.364 82.7779 351.495 87.9831C351.999 87.7815 352.498 87.5653 353.001 87.3216C370.694 78.6735 378.732 104.748 380.648 105.545C382.564 106.342 380.587 95.5964 379.879 94.6209C377.946 89.9926 381.544 86.835 388.06 101.774Z" fill="#C91F1F"/>
<path fill-rule="evenodd" clip-rule="evenodd" d="M352.981 87.3187C335.965 95.6219 317.469 76.6806 320.585 61.6243C323.701 46.5681 348.028 67.2607 353.067 63.2644C358.106 59.2682 343.911 51.7243 346.821 44.4159C349.73 37.1074 373.612 41.7626 381.777 64.2013C385.656 60.2157 398.834 58.0741 392.898 72.8703C389.928 80.2331 384.785 95.0859 388.054 101.773C381.536 86.8477 377.946 89.9925 379.859 94.618C380.587 95.5963 382.564 106.342 380.648 105.545C378.732 104.748 370.694 78.6734 352.981 87.3187Z" stroke="#141414" stroke-width="1.76"/>
<path d="M306.558 249.114C306.558 249.114 252.757 251.163 234.966 238.958C212.139 213.221 201.299 162.78 201.299 162.78C201.299 162.78 273.537 152.623 276.661 155.684C287.289 219.437 306.558 249.114 306.558 249.114Z" fill="#21C3E8"/>
<path d="M235.916 239.575C236.278 239.795 236.653 240.016 237.043 240.225C248.021 243.183 260.83 246.134 272.723 248.262C283.98 249.154 295.274 249.438 306.558 249.114C306.558 249.114 287.289 219.437 276.663 155.67C275.623 154.655 266.918 155.1 255.772 156.151C260.326 157.371 270.143 161.809 268.354 177.165C266.032 197.066 263.433 203.586 271.102 210.386C278.77 217.186 290.099 239.408 235.916 239.575Z" fill="#1B92C1"/>
<path fill-rule="evenodd" clip-rule="evenodd" d="M306.558 249.114C306.558 249.114 252.757 251.163 234.966 238.958C212.139 213.221 201.299 162.78 201.299 162.78C201.299 162.78 273.537 152.623 276.661 155.684C287.289 219.437 306.558 249.114 306.558 249.114Z" stroke="#141414" stroke-width="1.76"/>
<path d="M343.406 253.474C290.424 260.798 234.307 244.996 234.307 244.996L234.685 239.569C234.685 239.569 302.684 253.416 343.791 248.048C344.961 249.978 343.519 251.922 343.406 253.474Z" fill="#21C3E8" stroke="#141414" stroke-width="1.76"/>
<path d="M417.741 522.332C407.66 505.502 401.492 489.38 398.222 474.216C393.244 483.73 379.863 504.638 355.413 512.608C378.697 534.812 401.261 540.918 402.936 545.349C404.611 549.779 417.046 536.514 417.741 522.332Z" fill="#F2AF9A"/>
<path fill-rule="evenodd" clip-rule="evenodd" d="M417.741 522.332C407.66 505.502 401.492 489.38 398.222 474.216C393.244 483.73 379.863 504.638 355.413 512.608C378.697 534.812 401.261 540.918 402.936 545.349C404.611 549.779 417.046 536.514 417.741 522.332Z" stroke="#141414" stroke-width="1.76"/>
<path opacity="0.61" d="M398.222 474.216C393.351 483.528 380.43 503.739 356.99 512.076C365.546 514.815 379.459 517.293 386.377 507.767C396.629 493.633 415.9 517.514 403.574 544.942C406.28 543.058 417.159 534.752 417.767 522.336C407.662 505.488 401.492 489.38 398.222 474.216Z" fill="#EC8569"/>
<path d="M393.731 297.497C393.731 297.497 383.414 309.635 387.919 320.389C392.425 331.144 406.448 326.679 406.448 326.679" stroke="#141414" stroke-width="1.76" stroke-linecap="round"/>
<path d="M401.453 600.32C405.418 600.883 434.464 547.959 421.845 528.9C420.406 526.701 419.048 524.506 417.741 522.332C417.046 536.514 402.943 545.343 402.943 545.343C403.047 545.581 403.079 545.847 403.033 546.104C401.541 553.747 397.501 599.76 401.453 600.32Z" fill="#DC4E47"/>
<path d="M421.843 528.92C420.404 526.721 419.045 524.527 417.738 522.353C417.406 529.145 413.995 534.709 410.536 538.664C413.707 541.732 419.576 551.097 411.883 575.122C408.147 583.203 403.012 588.725 399.864 593.137C400.039 597.411 400.523 600.23 401.481 600.366C405.399 600.88 434.471 547.96 421.843 528.92Z" fill="#AF221E"/>
<path fill-rule="evenodd" clip-rule="evenodd" d="M401.453 600.32C405.418 600.883 434.464 547.959 421.845 528.9C420.406 526.701 419.048 524.506 417.741 522.332C417.046 536.514 402.943 545.343 402.943 545.343C403.047 545.581 403.079 545.847 403.033 546.104C401.541 553.747 397.501 599.76 401.453 600.32V600.32Z" stroke="#141414" stroke-width="1.76"/>
<path d="M395.829 458.728C395.829 458.728 383.282 492.551 341.968 497.806C337.562 499.932 343.915 513 355.414 512.601C366.913 512.203 391.512 493.075 398.223 474.21C400.863 465.498 397.361 456.559 395.829 458.728Z" fill="#2E3953"/>
<path opacity="0.77" d="M395.829 458.728C395.829 458.728 391.497 470.378 379.577 481.063C382.317 482.306 383.924 489.506 378.803 494.142C372.712 499.613 350.186 508.429 344.936 508.643C347.81 511.319 351.564 512.737 355.414 512.601C366.906 512.208 391.512 493.075 398.223 474.209C400.863 465.498 397.361 456.559 395.829 458.728Z" fill="#2E3953"/>
<path fill-rule="evenodd" clip-rule="evenodd" d="M395.828 458.728C395.828 458.728 383.282 492.551 341.968 497.806C337.561 499.932 343.915 513 355.414 512.601C366.913 512.203 391.512 493.075 398.223 474.21C400.863 465.498 397.361 456.559 395.828 458.728Z" stroke="#141414" stroke-width="1.76"/>
<path d="M397.638 115.516C397.638 115.516 407.879 155.532 389.418 163.512C370.957 171.491 365.672 123.686 365.672 123.686" stroke="#141414" stroke-width="1.76"/>
<path d="M254.205 219.593C258.763 218.169 260.456 210.121 257.986 201.618C255.516 193.115 249.818 187.377 245.261 188.802C240.703 190.227 239.01 198.275 241.48 206.777C243.95 215.28 249.647 221.018 254.205 219.593Z" fill="white" stroke="#141414" stroke-width="1.76"/>
<path opacity="0.61" d="M484.915 231.64C479.968 224.496 473.966 218.21 467.132 213.017C457.728 225.795 438.32 235.894 403.712 234.358C373.881 229.076 369.09 222.558 357.93 229.298C357.93 229.298 344.501 237.858 346.867 238.978C349.233 240.097 360.122 232.752 360.122 232.752C360.122 232.752 354.554 236.932 354.239 239.373C357.01 242.251 363.277 234.635 365.034 235.304C419.719 259.96 462.502 252.499 484.915 231.64Z" fill="#EC8569"/>
<path class="fg1" d="M396.431 555.276C396.431 555.276 403.878 548.632 409.578 553.739" stroke="#141414" stroke-linecap="round"/>
<path d="M395.601 561.703C395.601 561.703 403.047 555.059 408.747 560.166" stroke="#141414" stroke-linecap="round"/>
<path d="M394.771 568.124C394.771 568.124 402.218 561.48 407.918 566.587" stroke="#141414" stroke-linecap="round"/>
<path d="M403.283 549.288C403.523 548.621 401.486 547.207 398.734 546.13C395.981 545.053 393.555 544.72 393.315 545.387C393.075 546.054 395.112 547.468 397.864 548.545C400.617 549.622 403.043 549.955 403.283 549.288Z" fill="white" stroke="#141414" stroke-linecap="round"/>
<path d="M408.231 547.279C410.604 545.48 412.2 543.554 411.795 542.978C411.391 542.402 409.14 543.393 406.767 545.192C404.394 546.991 402.799 548.917 403.203 549.493C403.607 550.069 405.858 549.078 408.231 547.279Z" fill="white" stroke="#141414" stroke-linecap="round"/>
<path d="M370.519 123.205C370.519 123.205 377.731 120.259 380.991 118.516C381.269 118.372 381.602 118.408 381.846 118.609C382.09 118.81 382.2 119.14 382.128 119.454C379.864 128.492 372.769 137.251 373.892 140.749C372.153 135.358 370.519 123.205 370.519 123.205H370.519Z" fill="#141414" stroke="#141414" stroke-linecap="round"/>
<path d="M356.652 96.5618C356.652 96.5618 356.25 102.959 354.542 107.687C355.936 110.495 361.081 107.655 361.081 107.655" fill="#F2AF9A"/>
<path d="M356.652 96.5618C356.652 96.5618 356.25 102.959 354.542 107.687C355.936 110.495 361.081 107.655 361.081 107.655" stroke="#141414" stroke-linecap="round"/>
<path d="M360.653 112.166C360.363 112.268 360.133 112.501 360.028 112.8C359.922 113.099 359.953 113.432 360.111 113.706C361.419 115.865 363.98 116.808 366.299 115.985C368.617 115.162 370.085 112.788 369.844 110.249C369.813 109.932 369.645 109.646 369.387 109.474C369.129 109.301 368.809 109.259 368.519 109.361C366.607 110.042 362.572 111.479 360.653 112.166Z" fill="#141414" stroke="#141414" stroke-linecap="round"/>
<path d="M364.938 96.706C367.661 96.1457 369.702 94.8261 369.497 93.7585C369.293 92.691 366.919 92.2798 364.196 92.8402C361.473 93.4005 359.432 94.7201 359.637 95.7877C359.842 96.8552 362.215 97.2663 364.938 96.706Z" fill="white" stroke="#191919"/>
<path d="M367.229 95.9553C366.996 94.7842 365.987 93.956 364.839 93.9937C363.691 94.0313 362.737 94.9238 362.579 96.1076C362.547 96.3778 362.559 96.6519 362.616 96.9178C363.397 96.9128 364.176 96.8311 364.943 96.6739C365.726 96.5141 366.492 96.2734 367.229 95.9553Z" fill="#191919"/>
<path d="M348.671 99.9343C351.394 99.374 353.435 98.0543 353.231 96.9868C353.026 95.9193 350.652 95.5081 347.929 96.0684C345.206 96.6288 343.165 97.9484 343.37 99.0159C343.575 100.083 345.948 100.495 348.671 99.9343Z" fill="white" stroke="#191919" stroke-width="1.76"/>
<path d="M350.962 99.1916C350.729 98.0205 349.72 97.1924 348.572 97.23C347.424 97.2676 346.47 98.1601 346.313 99.344C346.281 99.6136 346.291 99.8868 346.343 100.153C347.122 100.155 347.9 100.08 348.666 99.9299C349.454 99.7642 350.223 99.5169 350.962 99.1916Z" fill="#191919"/>
<path d="M362.37 214.465C362.37 214.465 377.119 213.232 379.414 216.883C381.708 220.533 368.46 216.029 370.34 219.97C372.22 223.912 359.817 222.552 362.37 214.465Z" fill="white"/>
<path d="M375.663 223.204C375.663 223.204 380.153 222.672 378.492 226.881C376.831 231.09 369.684 225.358 375.663 223.204Z" fill="white"/>
<path d="M210.129 178.145C209.887 177.411 204.906 167.989 209.091 166.748C213.276 165.508 222.629 163.174 222.541 165.78C222.454 168.385 212.928 165.858 214.519 171.25C216.111 176.642 212.701 185.895 210.129 178.145Z" fill="white"/>
<path d="M214.224 185.201C214.224 185.201 216.651 182.045 218.3 188.656C219.95 195.268 211.836 188.32 214.224 185.201Z" fill="white"/>
<path d="M352.511 284.937C352.511 284.937 323.011 310.852 322.2 346.298C321.389 381.743 334.943 311.74 347.895 302.069C360.848 292.398 360.365 276.706 352.511 284.937Z" fill="white"/>
<path d="M322.527 365.175C322.527 365.175 316.514 364.839 316.393 377.647C316.273 390.454 324.109 386.063 322.527 365.175Z" fill="white"/>
<path d="M345.111 501.661C345.111 501.661 358.654 495.805 358.493 500.235C358.331 504.664 344.183 510.56 345.111 501.661Z" fill="white"/>
<path d="M265.224 279.266C265.224 279.266 251.134 294.88 254.352 318.619C257.571 342.358 258.948 294.714 266.064 296.102C273.18 297.489 274.813 265.366 265.224 279.266Z" fill="white"/>
<path d="M263.582 313.649C263.582 313.649 265.96 303.003 271.345 306.119C276.73 309.235 264.809 317.484 263.582 313.649Z" fill="white"/>
<path d="M319.753 396.96C319.753 396.96 316.104 431.247 331.209 463.463" stroke="white"/>
<path d="M255.903 335.842C255.903 335.842 259.843 363.736 284.646 380.01" stroke="white"/>
<path d="M387.009 216.483C387.009 216.483 418.97 218.252 435.321 208.531" stroke="white"/>
<path d="M229.821 165.902C229.821 165.902 265.829 158.578 267.914 161.506" stroke="white"/>
<path d="M497.643 252.668C497.643 252.668 496.912 302.916 446.567 358.019" stroke="#141414"/>
<path d="M236.634 339.912C236.634 339.912 241.917 371.008 262.323 388.813" stroke="#141414"/>
<path d="M195.614 158.13C195.614 158.13 199.744 183.098 204.468 192.063" stroke="#141414"/>
<path d="M427.812 522.879C427.812 522.879 434.965 544.138 426.699 561.39" stroke="#141414"/>
</svg>
