<svg width="25" height="26" viewBox="0 0 25 26" fill="none" xmlns="http://www.w3.org/2000/svg">
<path fill-rule="evenodd" clip-rule="evenodd" d="M12.0541 2.09473C15.9415 2.09473 19.0856 5.37299 19.0856 9.42631C19.0856 14.925 12.0541 23.0421 12.0541 23.0421C12.0541 23.0421 5.02252 14.925 5.02252 9.42631C5.02252 5.37299 8.16662 2.09473 12.0541 2.09473ZM7.03153 9.42631C7.03153 12.4113 9.96468 16.9778 12.0541 19.7743C14.1836 16.9569 17.0766 12.4427 17.0766 9.42631C17.0766 6.53557 14.8265 4.18946 12.0541 4.18946C9.28162 4.18946 7.03153 6.53557 7.03153 9.42631ZM12.0541 12.0447C10.6671 12.0447 9.54279 10.8724 9.54279 9.42631C9.54279 7.98019 10.6671 6.80788 12.0541 6.80788C13.441 6.80788 14.5653 7.98019 14.5653 9.42631C14.5653 10.8724 13.441 12.0447 12.0541 12.0447Z" fill="white"/>
</svg>
