<svg width="133" height="20" class="mv-svg-title" viewBox="0 0 133 20" fill="none" xmlns="http://www.w3.org/2000/svg">
<path class="text-path" d="M5.59 15.3C4.53667 15.3 3.65333 15.05 2.94 14.55C2.22667 14.05 1.69 13.37 1.33 12.51C0.97 11.6433 0.79 10.6733 0.79 9.6C0.79 8.51333 0.97 7.54 1.33 6.68C1.69 5.82 2.21667 5.14333 2.91 4.65C3.61 4.15 4.47333 3.9 5.5 3.9C6.52 3.9 7.40333 4.15 8.15 4.65C8.90333 5.14333 9.48667 5.82 9.9 6.68C10.3133 7.53333 10.52 8.50667 10.52 9.6C10.52 10.68 10.3167 11.65 9.91 12.51C9.50333 13.37 8.93 14.05 8.19 14.55C7.45 15.05 6.58333 15.3 5.59 15.3ZM0.38 15V0.599999H2.81V7.42H2.51V15H0.38ZM5.22 13.14C5.84667 13.14 6.36333 12.9833 6.77 12.67C7.17667 12.3567 7.47667 11.9333 7.67 11.4C7.87 10.86 7.97 10.26 7.97 9.6C7.97 8.94667 7.87 8.35333 7.67 7.82C7.47 7.28 7.16 6.85333 6.74 6.54C6.32 6.22 5.78667 6.06 5.14 6.06C4.52667 6.06 4.02667 6.21 3.64 6.51C3.25333 6.80333 2.96667 7.21667 2.78 7.75C2.6 8.27667 2.51 8.89333 2.51 9.6C2.51 10.3 2.6 10.9167 2.78 11.45C2.96667 11.9833 3.25667 12.4 3.65 12.7C4.05 12.9933 4.57333 13.14 5.22 13.14ZM17.6342 15.3C16.5409 15.3 15.5809 15.0633 14.7542 14.59C13.9276 14.1167 13.2809 13.46 12.8142 12.62C12.3542 11.78 12.1242 10.8133 12.1242 9.72C12.1242 8.54 12.3509 7.51667 12.8042 6.65C13.2576 5.77667 13.8876 5.1 14.6942 4.62C15.5009 4.14 16.4342 3.9 17.4942 3.9C18.6142 3.9 19.5642 4.16333 20.3442 4.69C21.1309 5.21 21.7142 5.94667 22.0942 6.9C22.4742 7.85333 22.6176 8.97667 22.5242 10.27H20.1342V9.39C20.1276 8.21667 19.9209 7.36 19.5142 6.82C19.1076 6.28 18.4676 6.01 17.5942 6.01C16.6076 6.01 15.8742 6.31667 15.3942 6.93C14.9142 7.53667 14.6742 8.42667 14.6742 9.6C14.6742 10.6933 14.9142 11.54 15.3942 12.14C15.8742 12.74 16.5742 13.04 17.4942 13.04C18.0876 13.04 18.5976 12.91 19.0242 12.65C19.4576 12.3833 19.7909 12 20.0242 11.5L22.4042 12.22C21.9909 13.1933 21.3509 13.95 20.4842 14.49C19.6242 15.03 18.6742 15.3 17.6342 15.3ZM13.9142 10.27V8.45H21.3442V10.27H13.9142ZM33.9494 15.3C32.896 15.3 32.0127 15.05 31.2994 14.55C30.586 14.05 30.0494 13.37 29.6894 12.51C29.3294 11.6433 29.1494 10.6733 29.1494 9.6C29.1494 8.51333 29.3294 7.54 29.6894 6.68C30.0494 5.82 30.576 5.14333 31.2694 4.65C31.9694 4.15 32.8327 3.9 33.8594 3.9C34.8794 3.9 35.7627 4.15 36.5094 4.65C37.2627 5.14333 37.846 5.82 38.2594 6.68C38.6727 7.53333 38.8794 8.50667 38.8794 9.6C38.8794 10.68 38.676 11.65 38.2694 12.51C37.8627 13.37 37.2894 14.05 36.5494 14.55C35.8094 15.05 34.9427 15.3 33.9494 15.3ZM28.7394 19.8V4.2H30.8694V11.78H31.1694V19.8H28.7394ZM33.5794 13.14C34.206 13.14 34.7227 12.9833 35.1294 12.67C35.536 12.3567 35.836 11.9333 36.0294 11.4C36.2294 10.86 36.3294 10.26 36.3294 9.6C36.3294 8.94667 36.2294 8.35333 36.0294 7.82C35.8294 7.28 35.5194 6.85333 35.0994 6.54C34.6794 6.22 34.146 6.06 33.4994 6.06C32.886 6.06 32.386 6.21 31.9994 6.51C31.6127 6.80333 31.326 7.21667 31.1394 7.75C30.9594 8.27667 30.8694 8.89333 30.8694 9.6C30.8694 10.3 30.9594 10.9167 31.1394 11.45C31.326 11.9833 31.616 12.4 32.0094 12.7C32.4094 12.9933 32.9327 13.14 33.5794 13.14ZM41.0836 15V4.2H43.2136V6.83L42.9536 6.49C43.0869 6.13 43.2636 5.80333 43.4836 5.51C43.7103 5.21 43.9803 4.96333 44.2936 4.77C44.5603 4.59 44.8536 4.45 45.1736 4.35C45.5003 4.24333 45.8336 4.18 46.1736 4.16C46.5136 4.13333 46.8436 4.14667 47.1636 4.2V6.45C46.8436 6.35667 46.4736 6.32667 46.0536 6.36C45.6403 6.39333 45.2669 6.51 44.9336 6.71C44.6003 6.89 44.3269 7.12 44.1136 7.4C43.9069 7.68 43.7536 8 43.6536 8.36C43.5536 8.71333 43.5036 9.09667 43.5036 9.51V15H41.0836ZM53.6466 15.3C52.5666 15.3 51.6232 15.0567 50.8166 14.57C50.0099 14.0833 49.3832 13.4133 48.9366 12.56C48.4966 11.7 48.2766 10.7133 48.2766 9.6C48.2766 8.46667 48.5032 7.47333 48.9566 6.62C49.4099 5.76667 50.0399 5.1 50.8466 4.62C51.6532 4.14 52.5866 3.9 53.6466 3.9C54.7332 3.9 55.6799 4.14333 56.4866 4.63C57.2932 5.11667 57.9199 5.79 58.3666 6.65C58.8132 7.50333 59.0366 8.48667 59.0366 9.6C59.0366 10.72 58.8099 11.71 58.3566 12.57C57.9099 13.4233 57.2832 14.0933 56.4766 14.58C55.6699 15.06 54.7266 15.3 53.6466 15.3ZM53.6466 13.04C54.6066 13.04 55.3199 12.72 55.7866 12.08C56.2532 11.44 56.4866 10.6133 56.4866 9.6C56.4866 8.55333 56.2499 7.72 55.7766 7.1C55.3032 6.47333 54.5932 6.16 53.6466 6.16C52.9999 6.16 52.4666 6.30667 52.0466 6.6C51.6332 6.88667 51.3266 7.29 51.1266 7.81C50.9266 8.32333 50.8266 8.92 50.8266 9.6C50.8266 10.6467 51.0632 11.4833 51.5366 12.11C52.0166 12.73 52.7199 13.04 53.6466 13.04ZM65.5698 15.3C64.5765 15.3 63.7098 15.05 62.9698 14.55C62.2298 14.05 61.6565 13.37 61.2498 12.51C60.8432 11.65 60.6398 10.68 60.6398 9.6C60.6398 8.50667 60.8432 7.53333 61.2498 6.68C61.6632 5.82 62.2465 5.14333 62.9998 4.65C63.7532 4.15 64.6398 3.9 65.6598 3.9C66.6865 3.9 67.5465 4.15 68.2398 4.65C68.9398 5.14333 69.4698 5.82 69.8298 6.68C70.1898 7.54 70.3698 8.51333 70.3698 9.6C70.3698 10.6733 70.1898 11.6433 69.8298 12.51C69.4698 13.37 68.9332 14.05 68.2198 14.55C67.5065 15.05 66.6232 15.3 65.5698 15.3ZM65.9398 13.14C66.5865 13.14 67.1065 12.9933 67.4998 12.7C67.8998 12.4 68.1898 11.9833 68.3698 11.45C68.5565 10.9167 68.6498 10.3 68.6498 9.6C68.6498 8.89333 68.5565 8.27667 68.3698 7.75C68.1898 7.21667 67.9065 6.80333 67.5198 6.51C67.1332 6.21 66.6332 6.06 66.0198 6.06C65.3732 6.06 64.8398 6.22 64.4198 6.54C63.9998 6.85333 63.6898 7.28 63.4898 7.82C63.2898 8.35333 63.1898 8.94667 63.1898 9.6C63.1898 10.26 63.2865 10.86 63.4798 11.4C63.6798 11.9333 63.9832 12.3567 64.3898 12.67C64.7965 12.9833 65.3132 13.14 65.9398 13.14ZM68.6498 15V7.42H68.3498V0.599999H70.7798V15H68.6498ZM77.6336 15.31C76.8336 15.31 76.1736 15.1767 75.6536 14.91C75.1336 14.6433 74.7203 14.3033 74.4136 13.89C74.1069 13.4767 73.8803 13.0367 73.7336 12.57C73.5869 12.1033 73.4903 11.6633 73.4436 11.25C73.4036 10.83 73.3836 10.49 73.3836 10.23V4.2H75.8236V9.4C75.8236 9.73333 75.8469 10.11 75.8936 10.53C75.9403 10.9433 76.0469 11.3433 76.2136 11.73C76.3869 12.11 76.6403 12.4233 76.9736 12.67C77.3136 12.9167 77.7703 13.04 78.3436 13.04C78.6503 13.04 78.9536 12.99 79.2536 12.89C79.5536 12.79 79.8236 12.62 80.0636 12.38C80.3103 12.1333 80.5069 11.7967 80.6536 11.37C80.8003 10.9433 80.8736 10.4033 80.8736 9.75L82.3036 10.36C82.3036 11.28 82.1236 12.1133 81.7636 12.86C81.4103 13.6067 80.8869 14.2033 80.1936 14.65C79.5003 15.09 78.6469 15.31 77.6336 15.31ZM81.1636 15V11.65H80.8736V4.2H83.2936V15H81.1636ZM90.7931 15.3C89.6798 15.3 88.7298 15.0533 87.9431 14.56C87.1565 14.06 86.5531 13.38 86.1331 12.52C85.7198 11.66 85.5098 10.6867 85.5031 9.6C85.5098 8.49333 85.7265 7.51333 86.1531 6.66C86.5865 5.8 87.1998 5.12667 87.9931 4.64C88.7865 4.14667 89.7298 3.9 90.8231 3.9C92.0498 3.9 93.0865 4.21 93.9331 4.83C94.7865 5.44333 95.3431 6.28333 95.6031 7.35L93.2031 8C93.0165 7.42 92.7065 6.97 92.2731 6.65C91.8398 6.32333 91.3465 6.16 90.7931 6.16C90.1665 6.16 89.6498 6.31 89.2431 6.61C88.8365 6.90333 88.5365 7.31 88.3431 7.83C88.1498 8.35 88.0531 8.94 88.0531 9.6C88.0531 10.6267 88.2831 11.4567 88.7431 12.09C89.2031 12.7233 89.8865 13.04 90.7931 13.04C91.4331 13.04 91.9365 12.8933 92.3031 12.6C92.6765 12.3067 92.9565 11.8833 93.1431 11.33L95.6031 11.88C95.2698 12.98 94.6865 13.8267 93.8531 14.42C93.0198 15.0067 91.9998 15.3 90.7931 15.3ZM103.937 15C103.224 15.1333 102.524 15.19 101.837 15.17C101.157 15.1567 100.547 15.0333 100.007 14.8C99.467 14.56 99.057 14.1833 98.777 13.67C98.5304 13.2033 98.4004 12.7267 98.387 12.24C98.3737 11.7533 98.367 11.2033 98.367 10.59V1.2H100.767V10.45C100.767 10.8833 100.77 11.2633 100.777 11.59C100.79 11.9167 100.86 12.1833 100.987 12.39C101.227 12.79 101.61 13.0133 102.137 13.06C102.664 13.1067 103.264 13.08 103.937 12.98V15ZM96.407 6.09V4.2H103.937V6.09H96.407ZM106.459 2.56V0.35H108.869V2.56H106.459ZM106.459 15V4.2H108.869V15H106.459ZM114.785 15L110.865 4.2H113.275L115.995 12.03L118.705 4.2H121.125L117.205 15H114.785ZM127.439 15.3C126.346 15.3 125.386 15.0633 124.559 14.59C123.732 14.1167 123.086 13.46 122.619 12.62C122.159 11.78 121.929 10.8133 121.929 9.72C121.929 8.54 122.156 7.51667 122.609 6.65C123.062 5.77667 123.692 5.1 124.499 4.62C125.306 4.14 126.239 3.9 127.299 3.9C128.419 3.9 129.369 4.16333 130.149 4.69C130.936 5.21 131.519 5.94667 131.899 6.9C132.279 7.85333 132.422 8.97667 132.329 10.27H129.939V9.39C129.932 8.21667 129.726 7.36 129.319 6.82C128.912 6.28 128.272 6.01 127.399 6.01C126.412 6.01 125.679 6.31667 125.199 6.93C124.719 7.53667 124.479 8.42667 124.479 9.6C124.479 10.6933 124.719 11.54 125.199 12.14C125.679 12.74 126.379 13.04 127.299 13.04C127.892 13.04 128.402 12.91 128.829 12.65C129.262 12.3833 129.596 12 129.829 11.5L132.209 12.22C131.796 13.1933 131.156 13.95 130.289 14.49C129.429 15.03 128.479 15.3 127.439 15.3ZM123.719 10.27V8.45H131.149V10.27H123.719Z" fill="#232833"/>
</svg>
