<svg width="33" height="44" viewBox="0 0 33 44" fill="none" xmlns="http://www.w3.org/2000/svg">
<path d="M0 0.5V19.9037C1.66931 16.6765 4.3397 14.01 7.62422 12.2754V0.5H0Z" fill="#35415E"/>
<path fill-rule="evenodd" clip-rule="evenodd" d="M24.6543 31.4186C23.1531 30.3394 21.4097 29.551 19.5165 29.1408C20.5359 28.3181 21.1842 27.0876 21.1842 25.7113C21.1842 23.2352 19.0871 21.2281 16.5 21.2281C13.9128 21.2281 11.8158 23.2352 11.8158 25.7113C11.8158 27.0876 12.4632 28.3181 13.4834 29.1408C11.5902 29.551 9.84771 30.3394 8.3465 31.4186C6.19205 32.9669 4.53439 35.1149 3.64232 37.603C4.90137 39.1019 6.45418 40.3913 8.2508 41.3837C13.3561 44.2054 19.6464 44.2054 24.7525 41.3837C26.5491 40.3913 28.1019 39.1019 29.3609 37.603C28.4664 35.1149 26.8087 32.9669 24.6543 31.4186Z" fill="#35415E"/>
<path fill-rule="evenodd" clip-rule="evenodd" d="M16.5 11.913C25.6129 11.913 33 18.983 33 27.7048C33 30.4939 32.2444 33.1126 30.9179 35.3864C29.8403 32.9685 28.1094 30.8523 25.9017 29.265C25.6779 29.1041 25.4498 28.9496 25.2177 28.8007C25.2668 28.4423 25.2917 28.0767 25.2917 27.7048C25.2917 23.0583 21.3548 19.2904 16.5 19.2904C11.6452 19.2904 7.70827 23.0583 7.70827 27.7048C7.70827 28.0767 7.73323 28.4423 7.78233 28.8007C7.55015 28.9496 7.32214 29.1041 7.09829 29.265C4.89058 30.8523 3.1597 32.9685 2.08205 35.3864C0.756429 33.1126 0 30.4939 0 27.7048C0 18.983 7.38705 11.913 16.5 11.913Z" fill="#FCCB51"/>
</svg>
