<svg width="603" height="572" viewBox="0 0 603 572" fill="none" xmlns="http://www.w3.org/2000/svg">
<path d="M103.657 321.9C103.962 322.65 104.268 323.401 104.58 324.146C133.176 393.224 187.381 457.303 270.814 463.014C328.804 466.967 371.343 441.442 411.577 405.569C441.027 379.299 480.324 379.569 518.162 378.469C544.549 377.705 572.326 371.981 584.936 347.846C602.893 313.429 586.554 268.729 562.25 240.806C541.001 216.434 506.406 196.251 472.268 197.16C432.882 198.207 399.064 219.978 361.052 226.907C319.624 234.469 277.078 221.776 242.26 200.559C214.658 183.755 179.583 157.954 144.502 164.113C109.781 170.206 91.2545 208.694 88.213 238.962C85.3729 267.187 92.9142 295.446 103.657 321.9Z" fill="#C9D2EC"/>
<mask id="mask0_1_2325" style="mask-type:alpha" maskUnits="userSpaceOnUse" x="87" y="163" width="506" height="301">
<path fill-rule="evenodd" clip-rule="evenodd" d="M103.657 321.9C103.962 322.65 104.268 323.401 104.58 324.146C133.176 393.224 187.381 457.303 270.814 463.014C328.804 466.967 371.343 441.442 411.577 405.569C441.027 379.299 480.324 379.569 518.162 378.469C544.549 377.705 572.326 371.981 584.936 347.846C602.893 313.429 586.554 268.729 562.25 240.806C541.001 216.434 506.406 196.251 472.268 197.16C432.882 198.207 399.064 219.978 361.052 226.907C319.624 234.469 277.078 221.776 242.26 200.559C214.658 183.755 179.583 157.954 144.502 164.113C109.781 170.206 91.2545 208.694 88.213 238.962C85.3729 267.187 92.9142 295.446 103.657 321.9Z" fill="white"/>
</mask>
<g mask="url(#mask0_1_2325)">
<path d="M102.441 323.783C102.441 323.783 170.604 490.687 307.403 464.259C444.201 437.832 375.545 375.176 525.446 380.557C675.348 385.939 564.757 132.409 414.341 209.741C263.926 287.074 214.081 129.471 133.891 168.137C53.7011 206.804 102.441 323.783 102.441 323.783Z" fill="#C9D2EC"/>
</g>
<path d="M576.186 432.259C570.576 406.01 536.327 438.497 541.362 423.4C546.396 408.302 525.245 404.798 518.502 413.901C511.148 423.874 496.281 426.937 504.19 415.838C512.1 404.739 498.767 388.39 482.511 392.783C466.255 397.177 473.032 389.661 473.602 388.383C491.309 360.665 454.068 348.762 440.777 368.022C430.507 382.909 417.862 372.963 419.049 353.458C420.237 333.954 390.44 334.797 367.878 368.009C345.317 401.221 330.839 372.884 330.839 372.884C330.839 372.884 328.589 366.336 324.992 368.009C321.395 369.682 268.925 432.233 268.925 432.233H576.186" fill="white"/>
<path d="M576.186 432.259C570.576 406.01 536.327 438.497 541.362 423.4C546.396 408.302 525.245 404.798 518.502 413.901C511.148 423.874 496.281 426.937 504.19 415.838C512.1 404.739 498.767 388.39 482.511 392.783C466.255 397.177 473.032 389.661 473.602 388.383C491.309 360.665 454.068 348.762 440.777 368.022C430.507 382.909 417.862 372.963 419.049 353.458C419.924 338.697 403.078 335.588 385.023 349.348L380.003 370.756C380.003 370.756 390.002 343.229 404.508 347.629C419.014 352.029 405.897 393.574 428.319 394.825C450.742 396.077 442.624 368.022 464.491 369.656C481.546 370.934 449.589 408.75 486.157 409.119C511.648 409.376 485.136 438.814 507.996 426.996C530.856 415.179 536.466 415.634 533.953 423.044C531.439 430.455 541.445 432.378 555.792 426.634C565.979 422.55 568.437 427.952 566.513 432.266L576.186 432.259Z" fill="#D8D8D8"/>
<path d="M419.077 353.471C420.237 333.967 390.44 334.797 367.878 368.035C345.317 401.274 330.839 372.91 330.839 372.91C330.839 372.91 328.589 366.362 324.992 368.035C321.395 369.709 268.925 432.259 268.925 432.259" stroke="#191919" stroke-width="1.11" stroke-linecap="round"/>
<path d="M419.202 359.65C419.098 358.603 419.035 357.516 419.021 356.396" stroke="#191919" stroke-width="1.11" stroke-linecap="round"/>
<path d="M511.954 420.047C505.072 424.513 498.295 424.111 504.218 415.838C512.162 404.745 498.795 388.39 482.539 392.783C466.283 397.177 473.06 389.661 473.63 388.383C491.337 360.665 454.096 348.762 440.805 368.022C433.291 378.917 424.514 376.513 420.799 366.791" stroke="#191919" stroke-width="1.11" stroke-linecap="round"/>
<path d="M517.599 415.08C517.183 415.574 516.752 416.049 516.301 416.503" stroke="#191919" stroke-width="1.11" stroke-linecap="round"/>
<path d="M576.186 432.259C570.576 406.01 536.327 438.497 541.362 423.4C546.396 408.302 525.245 404.798 518.502 413.901" stroke="#191919" stroke-width="1.11" stroke-linecap="round"/>
<path d="M344.324 431.693C344.324 431.357 344.324 431.034 344.324 430.705C344.185 410.437 317.839 419.388 317.194 406.142C316.534 392.678 334.554 363.431 334.554 363.431C334.554 363.431 317.888 379.339 311.34 400.016C304.792 420.693 326.943 414.086 327.075 421.918C327.207 429.75 308.5 432.259 308.5 432.259L344.324 431.693Z" fill="#D8D8D8"/>
<path d="M336.387 349.723C336.387 349.723 304.625 386.301 288.654 380.979C272.682 375.657 287.154 354.4 267.648 342.115C248.142 329.83 231.712 378.845 216.852 362.693C201.992 346.542 160.938 346.608 131.343 376.124C101.747 405.641 114.906 431.693 114.906 431.693L278.855 426.634L331.804 360.006L336.387 349.723Z" fill="#D8D8D8"/>
<path d="M288.653 380.979C272.717 375.657 287.154 354.4 267.648 342.115C258.732 336.51 250.461 343.696 242.684 351.614C254.169 351.028 263.808 351.713 266.196 355.237C272.967 365.236 273.272 401.215 295.216 388.172C317.159 375.13 324.971 363.398 324.971 363.398L322.416 363.839C311.895 373.503 297.729 384.003 288.653 380.979Z" fill="white"/>
<path d="M317.187 378.39L331.804 359.999L336.387 349.723C336.387 349.723 304.625 386.301 288.653 380.979C285.03 379.907 282.21 377.188 281.14 373.733" stroke="#191919" stroke-width="1.11" stroke-linecap="round"/>
<path d="M279.022 360.335C278.029 353.913 275.793 347.247 267.669 342.142C248.17 329.877 231.733 378.845 216.852 362.693C201.971 346.542 160.938 346.608 131.343 376.124C101.747 405.641 114.906 431.693 114.906 431.693L278.855 426.634L312.812 383.904" stroke="#191919" stroke-width="1.11" stroke-linecap="round"/>
<path d="M462.477 432.108C465.38 418.13 445.256 410.285 431.069 418.934C416.883 427.583 421.591 390.939 394.064 407.69C366.538 424.441 373.232 378.193 373.232 378.193C370.073 378.094 355.622 374.241 355.622 383.877C355.622 393.514 360.927 422.142 381.753 417.004C402.578 411.866 411.501 411.075 409.168 420.646C406.835 430.217 417.799 433.057 431.215 426.193C444.631 419.329 460.415 419.994 454.485 432.358" fill="#D8D8D8"/>
<path d="M280.133 369.359C279.994 368.47 279.883 367.548 279.779 366.613" stroke="#191919" stroke-width="1.11" stroke-linecap="round"/>
<path d="M36.5839 335.074C36.5839 335.074 7.45354 325.568 21.3833 293.114C35.3131 260.659 51.8261 294.168 62.145 266.403C72.4639 238.639 91.5323 224.49 95.6848 236.61C99.8374 248.73 120.545 216.599 205.63 181.377C205.576 184.331 205.213 187.272 204.547 190.158C204.547 190.158 78.29 240.701 80.2482 305.168C82.2064 369.636 36.5839 335.074 36.5839 335.074Z" fill="white"/>
<path d="M95.6849 236.59C93.9489 231.512 89.588 231.057 84.3522 234.272C86.0951 236.597 91.4698 239.811 87.7687 243.869C79.3802 253.091 91.2754 245.891 105.893 236.241C99.8999 239.844 96.9973 240.378 95.6849 236.59Z" fill="#D8D8D8"/>
<path d="M21.3834 293.094C14.4393 309.325 18.2238 319.818 23.7652 326.247C30.1676 318.955 36.3895 306.571 36.3895 306.571C36.3895 306.571 20.9598 304.47 30.3343 280.296C27.2719 282.489 24.2721 286.376 21.3834 293.094Z" fill="#D8D8D8"/>
<path d="M62.4089 318.731C57.7564 307.632 37.6186 296.994 18.9599 317.882C21.4598 325.312 26.9734 329.896 31.1745 332.439C40.4448 328.427 49.0277 324.462 49.0208 327.295C49.0208 334.54 63.6936 339.935 75.561 332.103C76.098 331.753 76.6595 331.439 77.2414 331.161C78.6789 327 79.5812 322.689 79.9288 318.323C70.6793 323.83 66.0337 327.387 62.4089 318.731Z" fill="#D8D8D8"/>
<path fill-rule="evenodd" clip-rule="evenodd" d="M36.5839 335.074C36.5839 335.074 7.45353 325.568 21.3833 293.114C35.3131 260.659 51.8261 294.168 62.145 266.403C72.4639 238.639 91.5323 224.49 95.6848 236.61C99.8374 248.73 120.545 216.599 205.63 181.377C205.576 184.331 205.213 187.272 204.547 190.158C204.547 190.158 78.2899 240.701 80.2482 305.168C82.2064 369.636 36.5839 335.074 36.5839 335.074Z" stroke="#191919" stroke-width="1.11"/>
<path d="M287.445 430.013C287.445 430.013 244.086 423.426 243.385 416.964C242.684 410.502 230.539 413.111 227.733 420.818C224.928 428.524 219.567 416.431 216.873 421.233C214.178 426.035 217.456 429.506 222.949 429.262C228.441 429.018 285.806 434.275 287.445 430.013Z" fill="white" stroke="#191919" stroke-width="1.11"/>
<path d="M156.827 368.325C156.827 368.325 131.287 410.581 143.411 411.075C155.536 411.569 189.596 397.71 179.326 418.98C174.007 429.994 257.405 424.065 291.501 432.036C285.084 432.259 129.482 432.036 129.482 432.036L103.941 409.192C103.941 409.192 153.994 348.992 156.827 368.325Z" fill="white"/>
<path d="M179.326 418.98C189.596 397.71 155.543 411.563 143.411 411.075C132.947 410.654 150.557 379.095 155.557 370.479L153.973 370.038C153.973 370.038 120.517 414.204 141.03 415.89C161.542 417.577 177.014 407.848 172.57 419.777C168.278 431.271 281.591 431.68 289.924 431.693C254.982 424.236 174.076 429.829 179.326 418.98Z" fill="#D8D8D8"/>
<path d="M204.547 190.158C204.547 190.158 101.858 257.623 95.6848 282.871C89.5116 308.12 133.641 283.214 130.141 314.489C126.641 345.765 196.471 290.71 196.388 322.17C196.304 353.63 79.3593 416.958 46.7153 364.498C14.0712 312.039 77.7275 250.213 199.867 187.662C322.006 125.111 204.547 190.158 204.547 190.158Z" fill="white"/>
<path d="M140.259 336.628C146.34 332.126 152.15 327.303 157.661 322.183" stroke="#D8D8D8"/>
<path d="M132.829 341.305C133.87 340.772 135.002 340.126 136.231 339.329" stroke="#D8D8D8"/>
<path d="M202.769 191.357C203.033 190.099 202.846 189.256 202.075 188.939C202.075 188.939 104.754 242.044 90.5462 278.754C76.3387 315.464 117.336 297.099 122.836 306.354C127.523 314.259 113.51 347.141 128.732 342.978" stroke="#D8D8D8"/>
<path d="M108.615 242.196C133.398 224.233 164.167 205.967 199.867 187.688C321.985 125.117 204.547 190.158 204.547 190.158C204.547 190.158 101.858 257.623 95.6849 282.871C89.5116 308.119 133.641 283.214 130.141 314.489C126.642 345.765 196.471 290.71 196.388 322.17C196.304 353.63 79.3594 416.958 46.7153 364.498C39.2782 352.549 36.8339 340.126 38.9449 327.301" stroke="#191919"/>
<path d="M103.052 246.273C104.122 245.47 105.198 244.673 106.288 243.869" stroke="#191919"/>
<path d="M98.1361 250.028L100.469 248.23" stroke="#191919"/>
<path d="M53.9441 293.793C54.9371 292.403 55.9648 291.013 57.0411 289.616C65.5337 278.616 76.7831 267.425 90.5463 256.095" stroke="#191919"/>
<path d="M49.5346 300.459C50.229 299.299 50.979 298.14 51.7567 296.974" stroke="#191919"/>
<path d="M152.064 330.957C152.064 330.957 121.642 358.919 117.309 348.327C112.976 337.735 114.003 303.469 94.3932 311.057C74.7832 318.645 67.5683 331.049 62.4089 318.731C60.1104 313.244 54.0274 307.869 46.2084 306.354C42.1878 314.094 39.6393 321.715 38.6671 329.211C44.5904 326.734 49.0207 325.259 49.0138 327.294C49.0138 334.54 63.6866 339.935 75.554 332.103C87.4214 324.271 104.191 336.108 93.6086 355.032C83.0258 373.957 128.148 369.84 157.959 334.573C162.056 322.888 152.064 330.957 152.064 330.957Z" fill="#D8D8D8"/>
<path d="M254.239 427.952C268.509 428.683 281.946 429.822 291.501 432.055C285.084 432.279 129.482 432.055 129.482 432.055L103.941 409.192C103.941 409.192 153.994 348.992 156.827 368.352C156.827 368.352 131.287 410.608 143.411 411.102C155.536 411.596 189.596 397.737 179.326 419.006C176.549 424.73 197.749 425.877 223.518 426.779" stroke="#191919" stroke-width="1.11" stroke-linecap="round"/>
<path d="M384.252 432.26C387.259 420.146 369.538 417.3 365.927 423.999C362.316 430.698 349.414 427.214 353.483 418.954C357.553 410.693 350.095 407.387 339.644 403.441C329.193 399.495 340.227 383.897 340.227 383.897C337.984 387.632 329.568 376.441 326.436 382.929C323.304 389.417 320.971 405.924 334.13 407.709C347.289 409.495 349.997 412.32 347.873 416.964C345.748 421.608 351.74 433.399 364.705 427.78C377.67 422.162 380.058 432.26 380.058 432.26H384.252Z" fill="#D8D8D8"/>
<path d="M248.149 427.642L251.218 427.78" stroke="#191919" stroke-width="1.11" stroke-linecap="round"/>
<path d="M323.506 366.784C323.506 366.784 302.16 399.245 273.446 395.839C244.732 392.434 288.084 363.431 240.483 348.564C192.881 333.697 150.904 383.113 148.571 398.323C146.238 413.532 182.597 390.748 184.368 401.32C186.138 411.892 187.84 429.163 207.588 411.075" stroke="#D8D8D8" stroke-width="1.11"/>
<path d="M42.9308 415.891C42.9308 415.891 3.84263 414.178 6.55082 382.955C9.259 351.733 38.7643 380.32 24.9804 349.875C11.1964 319.43 49.1179 303.726 59.1799 322.209C69.2418 340.693 91.6851 301.526 101.365 322.209C111.045 342.893 90.1365 380.946 143.154 344.856C196.172 308.765 208.505 294.662 208.505 294.662C208.505 294.662 162.508 345.837 149.349 359.051C136.19 372.264 87.8172 415.917 87.8172 415.917L42.9308 415.891Z" fill="white"/>
<path d="M159.709 348.156C161.459 338.275 154.8 342.003 154.8 342.003C154.8 342.003 112.906 376.164 103.941 374.807C94.9765 373.45 100.976 358.84 83.7549 363.062C66.5337 367.285 71.3737 371.876 60.534 363.616C49.6943 355.355 28.7996 361.778 32.48 376.091C35.952 389.74 6.78691 394.43 7.90491 375.815C7.18142 378.132 6.72735 380.518 6.55082 382.929C4.07178 411.537 36.5839 415.39 42.1392 415.838C47.8097 410.936 52.9293 405.49 57.4161 399.588L86.0534 394.977C86.0534 394.977 129.398 373.364 149.55 358.748C152.036 356.317 155.57 352.589 159.709 348.156Z" fill="#D8D8D8"/>
<path d="M104.302 335.541C105.691 354.861 100.442 373.905 143.154 344.829C196.172 308.732 208.505 294.636 208.505 294.636C208.505 294.636 162.508 345.811 149.349 359.024C136.19 372.238 87.8172 415.891 87.8172 415.891H42.9308C42.9308 415.891 3.84263 414.178 6.55082 382.955C9.259 351.733 38.7643 380.32 24.9804 349.875C20.1751 339.263 21.6472 330.443 26.0359 324.238" stroke="#191919"/>
<path d="M153.973 370.038C153.973 370.038 131.752 393.192 130.19 411.076C128.628 428.959 165.41 408.401 166.959 424.553C167.535 430.152 185.18 428.373 185.18 428.373" stroke="#D8D8D8"/>
<path d="M103.434 328.724C103.657 329.837 103.83 330.963 103.976 332.103" stroke="#191919"/>
<path d="M373.218 378.212C373.218 378.212 366.538 424.46 394.05 407.709C421.563 390.958 416.869 427.629 431.055 418.953C445.242 410.278 465.206 418.012 462.304 431.983" stroke="#191919"/>
<path d="M36.5839 315.971C45.0001 312.579 54.7704 314.114 59.1799 322.216C69.2419 340.706 91.6851 301.532 101.365 322.216" stroke="#191919"/>
<path d="M462.137 394.292C460.325 383.66 454.499 376.111 440.548 403.336C439.777 405.279 430.875 423.255 416.556 404.264C402.238 385.274 415.723 340.146 384.252 358.952" stroke="#D8D8D8"/>
<path d="M462.727 399.627C462.672 398.646 462.589 397.651 462.47 396.65" stroke="#D8D8D8"/>
<path d="M31.5078 318.731C32.3069 318.156 33.1442 317.63 34.0146 317.157" stroke="#191919"/>
<path d="M313.066 419.433C319.714 407.438 312.895 391.627 297.836 384.118C282.778 376.608 265.182 380.245 258.534 392.24C251.887 404.235 258.706 420.046 273.764 427.555C288.823 435.064 306.419 431.428 313.066 419.433Z" fill="#191919" stroke="#191919"/>
<path d="M296.471 411.157C299.071 406.465 296.401 400.28 290.508 397.341C284.615 394.403 277.73 395.824 275.13 400.515C272.53 405.207 275.2 411.393 281.093 414.331C286.986 417.27 293.871 415.849 296.471 411.157Z" fill="white" stroke="#191919"/>
<path d="M289.674 407.663C288.131 410.473 284.636 411.767 281.494 410.693L256.447 402.064L266.259 384.352L287.785 399.627C290.411 401.502 291.212 404.908 289.674 407.663Z" fill="#F9D12B"/>
<path d="M290.417 404.093C290.091 405.002 288.876 409.501 280.001 405.332C269.099 400.2 263.62 399.765 256.204 405.332C255.301 405.99 261.301 402.914 261.44 403.797L281.473 410.693C284.615 411.767 288.11 410.473 289.653 407.663C290.271 406.57 290.536 405.328 290.417 404.093Z" fill="#F7A02D"/>
<path fill-rule="evenodd" clip-rule="evenodd" d="M289.674 407.663C288.131 410.473 284.636 411.767 281.494 410.693L256.447 402.064L266.259 384.352L287.785 399.627C290.411 401.502 291.212 404.908 289.674 407.663V407.663Z" stroke="#191919" stroke-width="1.11"/>
<path d="M287.204 406.569C287.822 405.455 287.188 403.987 285.79 403.289C284.391 402.592 282.757 402.93 282.139 404.044C281.522 405.158 282.155 406.627 283.554 407.324C284.952 408.021 286.587 407.684 287.204 406.569Z" fill="#191919" stroke="#191919" stroke-width="1.11"/>
<path d="M254.28 390.267C249.718 398.507 249.003 407.835 251.503 416.813C258.336 417.727 265.039 414.471 268.252 408.678L278.848 389.575C281.884 384.1 281.202 377.439 277.112 372.62C267.294 375.617 259.072 381.631 254.28 390.267Z" fill="#F9D12B"/>
<path d="M256.016 410.786C251.531 409.376 255.53 392.816 255.53 392.816C254.898 391.986 254.239 391.63 253.572 391.67C249.67 399.574 249.163 408.342 251.524 416.813C258.357 417.727 265.06 414.471 268.273 408.678L271.891 402.15C267.419 400.154 260.065 412.064 256.016 410.786Z" fill="#F7A02D"/>
<path d="M275.508 395.583L278.848 389.562C281.884 384.087 281.202 377.425 277.112 372.607C267.294 375.617 259.058 381.631 254.28 390.267C249.718 398.507 249.003 407.835 251.503 416.813C258.336 417.727 265.039 414.471 268.252 408.678L271.793 402.288" stroke="#191919" stroke-width="1.11" stroke-linecap="round"/>
<path d="M253.405 392.816C258.264 392.816 262.204 389.08 262.204 384.47C262.204 379.861 258.264 376.125 253.405 376.125C248.546 376.125 244.607 379.861 244.607 384.47C244.607 389.08 248.546 392.816 253.405 392.816Z" fill="#191919" stroke="#191919" stroke-width="1.11"/>
<path d="M426.846 406.064C431.303 397.034 425.727 385.631 414.39 380.596C403.053 375.561 390.25 378.8 385.792 387.83C381.335 396.861 386.911 408.264 398.248 413.299C409.584 418.334 422.388 415.095 426.846 406.064Z" fill="#191919" stroke="#191919" stroke-width="1.11"/>
<path d="M414.35 400.514C416.093 396.982 413.911 392.522 409.475 390.552C405.04 388.582 400.031 389.848 398.288 393.38C396.545 396.912 398.727 401.372 403.162 403.342C407.598 405.312 412.606 404.046 414.35 400.514Z" fill="white" stroke="#191919" stroke-width="1.11"/>
<path d="M409.223 398.132C408.19 400.246 405.67 401.312 403.321 400.628L384.572 395.095L391.155 381.756L407.522 392.296C409.524 393.58 410.246 396.054 409.223 398.132Z" fill="#F9D12B"/>
<path d="M409.64 395.49C409.432 396.149 408.703 399.508 402.043 396.729C393.849 393.31 389.808 393.165 384.551 397.499C383.912 398.026 388.211 395.556 388.349 396.182L403.321 400.608C405.67 401.292 408.19 400.226 409.223 398.112C409.63 397.296 409.775 396.384 409.64 395.49Z" fill="#F7A02D"/>
<path fill-rule="evenodd" clip-rule="evenodd" d="M409.223 398.132C408.19 400.246 405.67 401.312 403.321 400.628L384.572 395.095L391.155 381.756L407.522 392.296C409.524 393.58 410.246 396.054 409.223 398.132V398.132Z" stroke="#191919" stroke-width="1.11"/>
<path d="M407.38 397.435C407.794 396.595 407.278 395.535 406.225 395.068C405.173 394.6 403.983 394.902 403.569 395.742C403.154 396.583 403.671 397.643 404.723 398.11C405.776 398.577 406.965 398.275 407.38 397.435Z" fill="#191919" stroke="#191919" stroke-width="1.11"/>
<path d="M382.586 386.492C379.524 392.691 379.336 399.574 381.496 406.089C386.552 406.539 391.361 403.929 393.516 399.568L400.62 385.182C402.652 381.058 401.913 376.184 398.738 372.771C391.627 375.301 385.801 379.984 382.586 386.492Z" fill="#F9D12B"/>
<path d="M384.579 401.511C381.239 400.622 383.579 388.337 383.579 388.337C383.269 387.844 382.704 387.547 382.1 387.559C379.597 393.479 379.383 400.047 381.496 406.102C386.552 406.552 391.361 403.943 393.516 399.581L395.939 394.673C392.592 393.336 387.62 402.321 384.579 401.511Z" fill="#F7A02D"/>
<path d="M398.37 389.746L400.606 385.214C402.638 381.091 401.899 376.217 398.724 372.804C391.613 375.334 385.787 380.017 382.572 386.525C379.51 392.724 379.322 399.607 381.482 406.122C386.538 406.572 391.347 403.962 393.502 399.601L395.877 394.792" stroke="#191919" stroke-width="1.11" stroke-linecap="round"/>
<path d="M381.739 388.396C385.313 388.396 388.211 385.647 388.211 382.257C388.211 378.866 385.313 376.118 381.739 376.118C378.164 376.118 375.267 378.866 375.267 382.257C375.267 385.647 378.164 388.396 381.739 388.396Z" fill="#191919" stroke="#191919" stroke-width="1.11"/>
<path d="M344.248 428.887C344.334 429.82 344.36 430.757 344.324 431.693" stroke="#191919" stroke-width="1.11" stroke-linecap="round"/>
<path d="M317.944 399.627C317.407 401.765 317.159 403.958 317.207 406.155C317.791 418.176 339.533 411.919 343.664 425.791" stroke="#191919" stroke-width="1.11" stroke-linecap="round"/>
<path d="M319.992 392.796C319.728 393.541 319.471 394.272 319.235 395.003" stroke="#191919" stroke-width="1.11" stroke-linecap="round"/>
<path d="M334.582 363.431C334.582 363.431 326.367 376.757 321.228 389.555" stroke="#191919" stroke-width="1.11" stroke-linecap="round"/>
<path d="M470.414 164.602C472.434 162.037 471.461 158.108 468.241 155.827C465.021 153.545 460.774 153.774 458.754 156.339C456.734 158.904 457.707 162.833 460.927 165.115C464.147 167.396 468.395 167.167 470.414 164.602Z" fill="#191919" stroke="#191919" stroke-width="1.11"/>
<path d="M466.865 162.087C467.655 161.084 467.273 159.548 466.014 158.655C464.754 157.763 463.093 157.852 462.303 158.854C461.514 159.857 461.895 161.393 463.154 162.286C464.414 163.179 466.075 163.089 466.865 162.087Z" fill="white" stroke="#191919" stroke-width="1.11"/>
<path d="M465.394 161.01C464.921 161.611 464.054 161.791 463.359 161.432L457.853 158.54L460.839 154.753L465.269 159.074C465.801 159.605 465.853 160.422 465.394 161.01Z" fill="#F9D12B"/>
<path d="M465.727 160.2C465.616 160.404 465.151 161.412 463.248 160.128C460.908 158.547 459.644 158.25 457.693 159.291C457.457 159.416 458.978 158.902 458.978 159.113L463.38 161.432C464.074 161.791 464.941 161.611 465.415 161.01C465.598 160.774 465.706 160.493 465.727 160.2Z" fill="#F7A02D"/>
<path fill-rule="evenodd" clip-rule="evenodd" d="M465.394 161.01C464.921 161.611 464.054 161.791 463.359 161.432L457.853 158.54L460.839 154.753L465.269 159.074C465.801 159.605 465.853 160.422 465.394 161.01V161.01Z" stroke="#191919" stroke-width="1.11"/>
<path d="M464.881 160.689C465.069 160.45 464.98 160.085 464.682 159.874C464.384 159.662 463.99 159.685 463.801 159.924C463.613 160.163 463.702 160.528 464 160.739C464.298 160.95 464.693 160.928 464.881 160.689Z" fill="#191919" stroke="#191919" stroke-width="1.11"/>
<path d="M457.811 155.708C456.449 157.472 455.846 159.662 456.124 161.834C457.685 162.281 459.375 161.754 460.353 160.516L463.575 156.426C464.491 155.252 464.592 153.677 463.832 152.407C461.444 152.709 459.279 153.896 457.811 155.708Z" fill="#F9D12B"/>
<path d="M457.394 160.556C456.401 160.068 457.985 156.34 457.985 156.34C457.914 156.169 457.758 156.043 457.568 156.004C456.374 157.714 455.858 159.77 456.11 161.807C457.671 162.255 459.361 161.728 460.339 160.49L461.436 159.093C460.491 158.474 458.311 160.997 457.394 160.556Z" fill="#F7A02D"/>
<path d="M462.554 157.691L463.575 156.406C464.491 155.233 464.592 153.658 463.831 152.388C461.485 152.662 459.35 153.814 457.903 155.588C456.456 157.361 455.815 159.61 456.124 161.834C457.685 162.281 459.375 161.755 460.352 160.516L461.429 159.146" stroke="#191919" stroke-width="1.11" stroke-linecap="round"/>
<path d="M457.832 156.287C458.979 156.287 459.908 155.406 459.908 154.318C459.908 153.23 458.979 152.348 457.832 152.348C456.685 152.348 455.756 153.23 455.756 154.318C455.756 155.406 456.685 156.287 457.832 156.287Z" fill="#191919" stroke="#191919" stroke-width="1.11"/>
<path d="M271.689 298.7L266.134 295.696L233.67 349.565L243.941 355.145L210.408 409.422L217.956 410.805C229.214 412.883 240.615 407.919 246.295 398.468L264.648 368.009C265.867 365.988 266.19 363.59 265.545 361.343C264.901 359.096 263.341 357.184 261.211 356.027C259.979 355.355 259.553 353.864 260.259 352.694L278.501 322.46C283.533 314.114 280.484 303.479 271.689 298.7Z" fill="#F9D12B"/>
<path d="M448.645 156.004C448.645 156.004 384.822 237.605 381.51 242.954C378.197 248.302 382.537 263.532 367.045 266.193C351.553 268.854 361.136 284.742 348.866 285.058C336.595 285.374 325.478 292.034 323.659 296.138C321.839 300.241 313.395 299.115 348.206 264.283C383.016 229.45 455.367 140.096 448.645 156.004Z" fill="white"/>
<path d="M356.192 267.747C353.289 271.844 351.4 284.544 336.456 281.073C335.154 280.763 333.797 280.723 332.478 280.954C329.382 284.402 326.527 288.037 323.929 291.836C323.987 292.793 324.247 293.73 324.693 294.59C328.165 290.552 338.047 285.368 348.866 285.071C361.136 284.755 351.56 268.867 367.045 266.206C382.53 263.545 378.19 248.329 381.51 242.967C384.586 237.98 439.958 167.103 447.728 157.177C455.499 147.25 377.142 235.405 375.274 252.432C373.406 269.46 359.094 263.657 356.192 267.747Z" fill="#D8D8D8"/>
<path fill-rule="evenodd" clip-rule="evenodd" d="M448.645 156.004C448.645 156.004 384.822 237.605 381.51 242.954C378.197 248.302 382.537 263.532 367.045 266.193C351.553 268.854 361.136 284.742 348.866 285.058C336.595 285.374 325.478 292.034 323.659 296.138C321.839 300.241 313.395 299.115 348.206 264.283C383.016 229.45 455.367 140.096 448.645 156.004Z" stroke="#191919" stroke-width="1.11"/>
<path d="M443.694 155.523C443.694 155.523 350.275 265.139 344.9 249.224C339.526 233.31 319.999 248.368 329.401 261.338C338.804 274.308 313.055 259.81 308.305 271.91C303.555 284.011 320.173 284.38 315.603 290.426C311.034 296.473 314.687 305.293 324.186 298.061C333.686 290.828 445.228 157.098 445.228 157.098L443.694 155.523Z" fill="white"/>
<path d="M340.901 253.855C337.998 265.89 356.178 246.346 356.178 246.346C350.067 250.752 345.873 252.274 344.852 249.231C342.387 241.985 337.012 241.162 332.762 243.632C335.651 244.64 342.817 245.931 340.901 253.855Z" fill="#D8D8D8"/>
<path d="M444.395 156.248L440.111 161.926C440.111 161.926 395.078 212.923 356.962 257.004C318.846 301.084 321.943 287.258 325.457 281.06C328.971 274.861 310.937 280.269 311.437 272.793C311.618 270.046 313.291 268.182 315.34 266.897C312.229 267.385 309.541 268.729 308.298 271.897C303.556 283.991 320.166 284.366 315.597 290.413C311.027 296.46 314.68 305.28 324.179 298.048C333.679 290.815 445.221 157.084 445.221 157.084L444.395 156.248Z" fill="#D8D8D8"/>
<path d="M408.328 201.06C428.944 176.562 445.194 157.078 445.194 157.078L443.694 155.523C443.694 155.523 399.46 207.423 370.087 234.614C368.489 236.098 366.939 237.502 365.434 238.823C354.442 248.5 346.331 253.592 344.845 249.224C339.429 233.31 319.943 248.368 329.346 261.338C338.748 274.308 312.999 259.81 308.25 271.91C303.5 284.011 320.117 284.38 315.548 290.426C310.979 296.473 314.631 305.293 324.131 298.061C326.151 296.526 332.804 289.241 342.026 278.734" stroke="#191919" stroke-width="1.11" stroke-linecap="round"/>
<path d="M370.545 245.687C380.69 233.784 391.377 221.163 401.39 209.28" stroke="#191919" stroke-width="1.11" stroke-linecap="round"/>
<path d="M363.545 253.868C364.809 252.401 366.08 250.917 367.358 249.415" stroke="#191919" stroke-width="1.11" stroke-linecap="round"/>
<path d="M356.525 262.049L360.073 257.926" stroke="#191919" stroke-width="1.11" stroke-linecap="round"/>
<path d="M163.841 337.465C163.841 337.465 99.2957 397.17 97.4903 382.916C98.268 367.331 80.0815 363.846 77.7553 376.111C75.429 388.376 59.5687 358.655 42.1391 370.038C24.7095 381.42 53.7496 389.048 39.0421 397.704C24.3346 406.359 11.5853 432.075 52.9927 432.259C94.4002 432.444 152.987 432.259 152.987 432.259C152.987 432.259 148.856 421.187 138.662 421.549C128.468 421.911 106.156 413.598 161.362 359.268C178.111 343.729 163.841 337.465 163.841 337.465V337.465Z" fill="white"/>
<path d="M115.684 404.317C110.26 427.668 91.1087 395.754 77.9497 404.363C64.7907 412.973 31.5842 434.381 30.2926 405.332C21.3625 416.332 20.5709 432.115 52.9927 432.259C94.3933 432.444 152.987 432.259 152.987 432.259C152.987 432.259 148.856 421.187 138.662 421.549C128.843 421.905 107.781 414.185 155.633 365.038L155.945 355.263C155.945 355.263 121.1 380.959 115.684 404.317Z" fill="#D8D8D8"/>
<path d="M119.795 427.952C120.663 429.548 121.762 431.022 123.058 432.332" stroke="white"/>
<path d="M360.24 427.497C362.654 427.367 364.817 426.037 365.927 423.999C369.538 417.3 387.259 420.146 384.253 432.26" stroke="#191919"/>
<path d="M352.699 422.162C352.724 423.035 352.99 423.886 353.47 424.632" stroke="#191919"/>
<path d="M340.227 383.897C340.227 383.897 329.2 399.495 339.644 403.441C350.088 407.387 357.546 410.687 353.483 418.954" stroke="#191919"/>
<path d="M153.591 361.231C153.591 361.231 111.552 396.59 117.614 422.161" stroke="white"/>
<path d="M87.7686 393.988C86.8526 392.714 86.1302 391.324 85.6229 389.858" stroke="#D8D8D8"/>
<path d="M153.244 353.281C153.244 353.281 125.364 376.77 114.656 388.271C106.559 396.973 96.7612 400.839 90.456 396.597" stroke="#D8D8D8"/>
<path d="M33.9174 401.518C22.0639 412.202 16.5572 432.095 52.9927 432.259C94.3933 432.444 152.987 432.259 152.987 432.259C152.987 432.259 148.856 421.187 138.662 421.549C128.468 421.911 106.157 413.598 161.362 359.268C178.132 343.729 163.862 337.465 163.862 337.465" stroke="#191919"/>
<path d="M42.1392 370.038C24.7235 381.414 53.7497 389.048 39.0421 397.704" stroke="#191919"/>
<path d="M426.41 433.096C434.639 428.287 442.673 424.295 448.096 426.937C455.256 430.421 442.388 436.817 446.937 437.858" stroke="#D8D8D8"/>
<path d="M421.896 435.77L424.292 434.341" stroke="#D8D8D8"/>
<path d="M382.398 420.462C398.196 415.851 405.543 419.223 401.731 427.049C397.918 434.874 405.3 441.883 414.306 439.564C415.776 439.17 417.178 438.58 418.473 437.812" stroke="#D8D8D8"/>
<path d="M231.969 394.785C229.65 386.314 260.009 334.573 260.009 334.573C255.475 335.047 248.204 342.78 240.51 353.247L243.941 355.111L210.408 409.389L217.956 410.772C229.206 412.856 240.605 407.907 246.295 398.468L259.433 376.697C253.982 372.91 234.288 403.256 231.969 394.785Z" fill="#F7A02D"/>
<path fill-rule="evenodd" clip-rule="evenodd" d="M271.689 298.7L266.134 295.696L233.67 349.565L243.941 355.145L210.408 409.422L217.956 410.805C229.214 412.883 240.615 407.919 246.295 398.468L264.648 368.009C265.867 365.988 266.19 363.59 265.545 361.343C264.901 359.096 263.341 357.184 261.211 356.027C259.979 355.355 259.553 353.864 260.259 352.694L278.501 322.46C283.533 314.114 280.484 303.479 271.689 298.7V298.7Z" stroke="#191919"/>
<path d="M462.7 406.142C461.255 424.849 496.469 405.872 493.76 424.665C491.052 443.458 519.822 421.325 526.023 427.01C526.023 427.01 530.62 430.303 525.738 432.391" stroke="#D8D8D8" stroke-linecap="round"/>
<path d="M562.868 432.26C565.895 426.424 556.229 427.649 546.987 432.26" stroke="#D8D8D8" stroke-linecap="round"/>
<path d="M364.087 423.038L450.992 220.169L343.574 381.776L364.087 423.038Z" fill="#F9D12B" stroke="#191919"/>
<path d="M377.538 376.974C377.996 364.775 389.933 347.807 395.384 341.167C407.244 326.675 405.911 310.175 409.084 302.771C419.869 277.582 443.048 231.683 448.666 223.726C435.652 235.016 352.636 375.65 346.15 387.085L360.879 416.727L362.872 420.739C362.872 420.739 359.844 404.034 366.212 396.538C372.58 389.042 377.086 389.18 377.538 376.974Z" fill="#F7A02D"/>
<path fill-rule="evenodd" clip-rule="evenodd" d="M364.087 423.038L450.992 220.169L343.574 381.776L364.087 423.038Z" stroke="#191919" stroke-width="1.11"/>
<path d="M451.693 218.16L323.506 369.814L335.338 426.212L451.693 218.16Z" fill="#F9D12B"/>
<path d="M451.693 218.16L317.221 336.681L321.228 358.952L451.693 218.16Z" fill="white"/>
<path d="M321.228 358.952L324.992 368.009L451.693 218.16L363.608 313.237L350.956 326.886C334.033 345.145 321.693 358.458 321.228 358.952Z" fill="#F7A02D"/>
<path d="M451.693 218.16L317.221 336.681L321.228 358.952" fill="#F9D12B"/>
<path d="M451.693 218.16L317.221 336.681L321.228 358.952" stroke="#191919" stroke-width="1.11"/>
<path d="M368.691 307.751L363.608 313.238" stroke="#191919" stroke-width="1.11" stroke-linecap="round"/>
<path d="M376.767 299.029C375.774 300.11 374.774 301.183 373.781 302.25" stroke="#191919" stroke-width="1.11" stroke-linecap="round"/>
<path d="M451.693 218.16L380.169 295.334" stroke="#191919" stroke-width="1.11" stroke-linecap="round"/>
<path d="M344.324 334.04C330.901 348.531 321.631 358.524 321.228 358.952L324.992 368.009" stroke="#191919" stroke-width="1.11" stroke-linecap="round"/>
<path d="M350.956 326.886L347.928 330.18" stroke="#191919" stroke-width="1.11" stroke-linecap="round"/>
<path d="M361.816 324.488L451.693 218.16L335.338 426.213L323.506 369.814L355.046 332.498" stroke="#191919" stroke-width="1.11"/>
<path d="M257.712 218.065C260.999 213.6 259.119 206.969 253.513 203.255C247.907 199.541 240.698 200.15 237.41 204.615C234.123 209.08 236.003 215.71 241.609 219.424C247.215 223.138 254.425 222.529 257.712 218.065Z" fill="#191919" stroke="#191919" stroke-width="1.11"/>
<path d="M251.535 213.972C252.822 212.225 252.086 209.629 249.891 208.175C247.697 206.721 244.874 206.959 243.587 208.707C242.301 210.455 243.037 213.05 245.231 214.504C247.426 215.958 250.248 215.72 251.535 213.972Z" fill="white" stroke="#191919" stroke-width="1.11"/>
<path d="M249.01 212.231C248.246 213.278 246.784 213.63 245.586 213.055L236.052 208.444L240.913 201.857L248.683 208.977C249.61 209.843 249.748 211.215 249.01 212.231Z" fill="#F9D12B"/>
<path d="M249.496 210.848C249.315 211.191 248.593 212.93 245.281 210.848C241.205 208.279 239.031 207.844 235.788 209.715C235.393 209.939 237.955 208.991 237.962 209.353L245.6 213.061C246.798 213.637 248.26 213.285 249.024 212.238C249.322 211.829 249.487 211.345 249.496 210.848Z" fill="#F7A02D"/>
<path fill-rule="evenodd" clip-rule="evenodd" d="M249.01 212.231C248.246 213.278 246.784 213.63 245.586 213.055L236.052 208.444L240.913 201.857L248.683 208.977C249.61 209.843 249.748 211.215 249.01 212.231V212.231Z" stroke="#191919" stroke-width="1.11"/>
<path d="M248.089 211.698C248.394 211.283 248.218 210.667 247.696 210.321C247.174 209.975 246.504 210.031 246.199 210.445C245.893 210.86 246.069 211.476 246.591 211.822C247.113 212.168 247.783 212.112 248.089 211.698Z" fill="#191919" stroke="#191919" stroke-width="1.11"/>
<path d="M235.816 203.602C233.616 206.663 232.718 210.4 233.302 214.063C235.98 214.75 238.825 213.77 240.413 211.612L245.656 204.498C247.151 202.456 247.233 199.768 245.864 197.648C241.819 198.3 238.208 200.44 235.816 203.602Z" fill="#F9D12B"/>
<path d="M235.413 211.896C233.698 211.118 236.17 204.702 236.17 204.702C236.051 204.42 235.79 204.215 235.476 204.156C233.539 207.12 232.776 210.641 233.323 214.089C236.001 214.777 238.846 213.797 240.434 211.639L242.225 209.215C240.531 208.174 236.969 212.554 235.413 211.896Z" fill="#F7A02D"/>
<path d="M244.003 206.738L245.656 204.498C247.151 202.456 247.233 199.768 245.864 197.648C241.898 198.234 238.342 200.296 235.984 203.377C233.626 206.458 232.661 210.304 233.302 214.063C235.98 214.75 238.825 213.77 240.413 211.612L242.163 209.234" stroke="#191919" stroke-width="1.11" stroke-linecap="round"/>
<path d="M235.774 204.604C237.727 204.604 239.309 203.102 239.309 201.251C239.309 199.399 237.727 197.898 235.774 197.898C233.822 197.898 232.24 199.399 232.24 201.251C232.24 203.102 233.822 204.604 235.774 204.604Z" fill="#191919" stroke="#191919" stroke-width="1.11"/>
<path d="M215.234 219.266L324.45 113.445L213.547 188.459L215.234 219.266Z" fill="#F9D12B" stroke="#191919" stroke-width="1.11"/>
<path d="M236.108 193.715C239.691 186.193 251.746 178.479 256.94 175.647C268.273 169.475 271.904 158.817 275.89 154.95C289.445 141.809 316.36 118.721 322.013 115.092C310.826 119.018 220.866 186.812 213.727 192.371L214.935 214.491L215.102 217.488C215.102 217.488 217.72 206.29 223.733 203.154C229.747 200.019 232.518 201.244 236.108 193.715Z" fill="#F7A02D"/>
<path fill-rule="evenodd" clip-rule="evenodd" d="M215.234 219.266L324.45 113.445L213.547 188.459L215.234 219.266Z" stroke="#191919" stroke-width="1.11"/>
<path d="M325.422 112.358L204.221 176.095L196.388 214.267L325.422 112.358Z" fill="#F9D12B"/>
<path d="M325.422 112.358L209.241 153.83L205.734 168.737L325.422 112.358Z" fill="white"/>
<path d="M205.734 168.737L205.63 175.324L325.457 112.358L244.607 150.438L233.004 155.905C217.477 163.217 206.158 168.546 205.734 168.737Z" fill="#F7A02D"/>
<path d="M325.422 112.358L208.019 151.591L205.734 168.737" fill="#F9D12B"/>
<path d="M325.422 112.358L208.019 151.591L205.734 168.737" stroke="#191919" stroke-width="1.11"/>
<path d="M249.274 148.245L244.607 150.438" stroke="#191919" stroke-width="1.11" stroke-linecap="round"/>
<path d="M256.711 144.747L253.933 146.025" stroke="#191919" stroke-width="1.11" stroke-linecap="round"/>
<path d="M325.457 112.358C325.457 112.358 291.57 128.332 259.849 143.271" stroke="#191919" stroke-width="1.11" stroke-linecap="round"/>
<path d="M226.921 158.771C214.602 164.574 206.089 168.572 205.734 168.737L205.63 175.324" stroke="#191919" stroke-width="1.11" stroke-linecap="round"/>
<path d="M233.004 155.905L230.226 157.223" stroke="#191919" stroke-width="1.11" stroke-linecap="round"/>
<path d="M240.441 157.045L325.422 112.358L196.388 214.267L204.221 176.095L234.045 160.411" stroke="#191919" stroke-width="1.11"/>
<path d="M447.52 166.721L490.49 105.508L443.694 151.841L447.52 166.721Z" fill="#F9D12B" stroke="#191919" stroke-width="1.11"/>
<path d="M455.214 152.427C456.228 148.475 461.352 143.62 463.616 141.776C468.546 137.771 469.283 132.251 470.845 130.018C476.178 122.417 487.059 108.794 489.462 106.502C484.379 109.387 447.103 150.372 444.159 153.712L446.937 164.396L447.312 165.845C447.312 165.845 447.492 160.154 450.089 158.092C452.686 156.03 454.193 156.412 455.214 152.427Z" fill="#F7A02D"/>
<path fill-rule="evenodd" clip-rule="evenodd" d="M447.52 166.721L490.49 105.508L443.694 151.841L447.52 166.721Z" stroke="#191919" stroke-width="1.11"/>
<path d="M490.858 104.895L437.937 146.624L437.833 165.937L490.858 104.895Z" fill="#F9D12B"/>
<path d="M490.858 104.895L438.215 135.321L437.958 142.902L490.858 104.895Z" fill="white"/>
<path d="M437.951 142.902L438.541 146.13L490.858 104.895L455.137 130.585C453.353 131.869 451.665 133.107 450.006 134.267L437.951 142.902Z" fill="#F7A02D"/>
<path d="M490.858 104.895L438.215 135.321L437.958 142.902" fill="#F9D12B"/>
<path d="M490.858 104.895L438.215 135.321L437.958 142.902" stroke="#191919" stroke-width="1.11"/>
<path d="M457.2 129.083L455.117 130.565" stroke="#191919" stroke-width="1.11" stroke-linecap="round"/>
<path d="M460.477 126.725L459.269 127.581" stroke="#191919" stroke-width="1.11" stroke-linecap="round"/>
<path d="M490.858 104.895L461.866 125.73" stroke="#191919" stroke-width="1.11" stroke-linecap="round"/>
<path d="M447.318 136.184L437.951 142.902L438.541 146.13" stroke="#191919" stroke-width="1.11" stroke-linecap="round"/>
<path d="M450.006 134.247L448.784 135.13" stroke="#191919" stroke-width="1.11" stroke-linecap="round"/>
<path d="M453.756 134.155L490.858 104.895L437.833 165.937L437.937 146.624L450.957 136.355" stroke="#191919" stroke-width="1.11"/>
<path d="M199.874 432.035L370.107 156.149L179.326 368.358L199.874 432.035Z" fill="#F9D12B" stroke="#191919" stroke-width="1.11"/>
<path d="M229.462 368.154C232.816 350.613 253.767 328.474 263.127 319.95C283.452 301.394 285.168 277.266 291.376 267.194C312.499 232.941 356.101 171.22 365.927 160.793C344.644 174.527 193.714 361.271 181.861 376.46L196.617 422.181L198.617 428.373C198.617 428.373 197.922 403.632 208.776 394.068C219.629 384.503 226.115 385.695 229.462 368.154Z" fill="#F7A02D"/>
<path fill-rule="evenodd" clip-rule="evenodd" d="M199.874 432.035L370.107 156.149L179.326 368.358L199.874 432.035Z" stroke="#191919" stroke-width="1.11"/>
<path d="M371.552 153.383L152.966 347.102L156.688 431.766L371.552 153.383Z" fill="#F9D12B"/>
<path d="M371.552 153.383L151.022 298.173L152.064 330.957L371.552 153.383Z" fill="white"/>
<path d="M152.064 330.957L155.501 344.829L371.552 153.383C371.552 153.383 287.445 221.453 223.379 273.3L202.096 290.525C173.604 313.547 152.848 330.338 152.064 330.957Z" fill="#F7A02D"/>
<path d="M371.552 153.383L151.022 298.173L152.064 330.957" fill="#F9D12B"/>
<path d="M371.552 153.383L151.022 298.173L152.064 330.957" stroke="#191919" stroke-width="1.11"/>
<path d="M231.907 266.384L223.379 273.3" stroke="#191919" stroke-width="1.11" stroke-linecap="round"/>
<path d="M245.503 255.37L240.483 259.434" stroke="#191919" stroke-width="1.11" stroke-linecap="round"/>
<path d="M371.552 153.383L251.26 250.759" stroke="#191919" stroke-width="1.11" stroke-linecap="round"/>
<path d="M190.923 299.543C168.334 317.816 152.73 330.423 152.036 330.957L155.473 344.829" stroke="#191919" stroke-width="1.11" stroke-linecap="round"/>
<path d="M202.075 290.525L196.992 294.636" stroke="#191919" stroke-width="1.11" stroke-linecap="round"/>
<path d="M218.289 289.208L371.552 153.383L156.688 431.766L152.966 347.102L206.748 299.438" stroke="#191919" stroke-width="1.11"/>
<path d="M388.016 432.26H394.953H388.016Z" fill="#CECCCC"/>
<path d="M388.016 432.26H394.953" stroke="#191919" stroke-width="1.11" stroke-linecap="round"/>
<path d="M369.031 432.26H377.413H369.031Z" fill="#CECCCC"/>
<path d="M369.031 432.26H377.413" stroke="#191919" stroke-width="1.11" stroke-linecap="round"/>
<path d="M111.684 432.26H362.705H111.684Z" fill="#CECCCC"/>
<path d="M111.684 432.26H362.705" stroke="#191919" stroke-width="1.11" stroke-linecap="round"/>
<path d="M451.693 432.26H595.706H451.693Z" fill="#CECCCC"/>
<path d="M451.693 432.26H595.706" stroke="#191919" stroke-width="1.11" stroke-linecap="round"/>
<path d="M435.75 432.26H441.485H435.75Z" fill="#CECCCC"/>
<path d="M435.75 432.26H441.485" stroke="#191919" stroke-width="1.11" stroke-linecap="round"/>
<path d="M263.766 381.355C263.766 381.355 268.863 376.888 271.404 377.626C273.946 378.364 268.05 379.523 268.953 381.052C269.856 382.58 261.058 384.233 263.766 381.355Z" fill="white"/>
<path d="M273.897 376.124C273.897 376.124 277.439 375.057 277.501 376.645C277.564 378.232 271.293 377.745 273.897 376.124Z" fill="white"/>
<path d="M48.6388 390.596C48.6388 390.596 51.5414 400.872 41.3823 403.625" stroke="#D8D8D8" stroke-width="1.11" stroke-linecap="round"/>
<path d="M43.3752 343.472C42.6026 342.425 41.9354 341.311 41.3823 340.146" stroke="#D8D8D8" stroke-width="1.11" stroke-linecap="round"/>
<path d="M68.9502 343.466C58.7355 348.36 51.722 349.816 46.7292 346.647" stroke="#D8D8D8" stroke-width="1.11" stroke-linecap="round"/>
<path d="M154.341 340.146C154.341 340.146 115.42 371.158 105.233 367.719C95.046 364.281 102.136 325.081 80.2343 337.465" stroke="#D8D8D8" stroke-width="1.11" stroke-linecap="round"/>
<path d="M260.974 346.786C260.974 346.786 272.516 343.854 274.168 363.431" stroke="#D8D8D8" stroke-width="1.11" stroke-linecap="round"/>
<path d="M97.2404 307.289C106.997 305.669 115.51 305.313 115.809 313.014" stroke="#D8D8D8" stroke-width="1.11" stroke-linecap="round"/>
<path d="M117.309 241.662C117.309 241.662 77.8178 268.966 68.9502 297.844C64.3255 312.915 77.0817 310.985 90.4768 308.515" stroke="#D8D8D8" stroke-width="1.11" stroke-linecap="round"/>
<path d="M61.5826 294.636C61.0936 295.813 60.6854 297.018 60.3604 298.245" stroke="#D8D8D8" stroke-width="1.11" stroke-linecap="round"/>
<path d="M85.6229 265.053C85.6229 265.053 69.8599 278.227 62.9297 291.731" stroke="#D8D8D8" stroke-width="1.11" stroke-linecap="round"/>
<path d="M323.929 270.296C326.936 270.487 329.818 271.377 329.165 274.249C327.874 279.874 329.415 285.565 354.858 255.739C363.885 245.154 371.239 236.893 376.815 230.8" stroke="#D8D8D8" stroke-width="1.11" stroke-linecap="round"/>
<path d="M317.944 270.599C319.032 270.439 320.128 270.333 321.228 270.283" stroke="#D8D8D8" stroke-width="1.11" stroke-linecap="round"/>
<path d="M333.29 250.101C333.29 250.101 339.095 247.742 335.873 256.78C332.651 265.817 335.533 271.087 343.574 263.189C351.615 255.291 362.059 244.561 362.059 244.561" stroke="#D8D8D8" stroke-width="1.11" stroke-linecap="round"/>
<mask id="mask1_1_2325" style="mask-type:alpha" maskUnits="userSpaceOnUse" x="499" y="289" width="58" height="111">
<path fill-rule="evenodd" clip-rule="evenodd" d="M540.911 364.281C539.437 359.857 538.635 355.257 538.529 350.619C538.334 325.476 549.167 289.471 549.167 289.471C549.167 289.471 496.066 315.016 499.482 358.129C499.482 358.129 510.94 380.577 536.876 399.344C537.534 397.477 538.502 395.723 539.744 394.147C540.244 395.715 540.986 397.204 541.945 398.567C548.007 396.05 556.729 381.486 556.729 381.486C556.729 381.486 545.959 378.166 540.911 364.281Z" fill="white"/>
</mask>
<g mask="url(#mask1_1_2325)">
<path d="M540.911 364.281C539.437 359.857 538.635 355.257 538.529 350.619C538.334 325.476 549.167 289.471 549.167 289.471C549.167 289.471 496.066 315.016 499.482 358.129C499.482 358.129 510.94 380.577 536.876 399.344C537.534 397.477 538.502 395.723 539.744 394.147C540.244 395.715 540.986 397.204 541.945 398.567C548.007 396.05 556.729 381.486 556.729 381.486C556.729 381.486 545.959 378.166 540.911 364.281Z" fill="#2E3953"/>
<g opacity="0.43">
<path d="M537.557 301.15C537.557 301.15 514.572 370.973 555.007 387.25" stroke="#191919" stroke-width="1.11"/>
<path d="M526.397 300.301C526.397 300.301 508.301 372.291 546.848 389.885" stroke="#191919" stroke-width="1.11"/>
<path d="M513.03 312.803C513.03 312.803 504.218 383.818 544.376 395.286" stroke="#191919" stroke-width="1.11"/>
</g>
</g>
<path fill-rule="evenodd" clip-rule="evenodd" d="M540.911 364.281C539.437 359.857 538.635 355.257 538.529 350.619C538.334 325.476 549.167 289.471 549.167 289.471C549.167 289.471 496.066 315.016 499.482 358.129C499.482 358.129 510.94 380.577 536.876 399.344C537.534 397.477 538.502 395.723 539.744 394.147C540.244 395.715 540.986 397.204 541.945 398.567C548.007 396.05 556.729 381.486 556.729 381.486C556.729 381.486 545.959 378.166 540.911 364.281V364.281Z" stroke="#191919" stroke-width="1.11" stroke-linecap="round"/>
<path d="M557.104 381.638C556.146 380.86 553.424 381.993 550.25 384.167C551.424 386.143 552.625 388.06 553.827 389.891C556.611 385.952 558.243 382.566 557.104 381.638Z" fill="#191919" stroke="#191919" stroke-width="1.11" stroke-linecap="round"/>
<path d="M547.827 294.234C547.827 294.234 534.272 318.356 535.432 331.747C536.591 345.139 515.447 350.85 521.544 360.184C527.64 369.518 518.217 380.307 520.426 385.386C512.919 377.284 508.107 371.197 504.92 363.859C501.732 356.521 507.78 294.155 547.827 294.234Z" fill="#191919" stroke="#191919" stroke-width="1.11" stroke-linecap="round"/>
<path d="M553.827 389.891C552.625 388.06 551.424 386.143 550.25 384.167C547.225 386.279 544.462 388.71 542.015 391.413C539.126 394.614 537.515 397.341 536.876 399.37C538.427 400.49 540.029 401.588 541.681 402.664C546.858 406.076 552.291 409.123 557.937 411.78C556.583 426.101 553.486 431.054 554.653 430.883C555.82 430.712 565.354 416.444 567.548 410.463C566.736 407.709 560.382 399.95 553.827 389.891Z" fill="#F9896E" stroke="#191919" stroke-width="1.11" stroke-linecap="round"/>
<path d="M479.615 403.336C481.136 416.642 483.393 424.414 483.393 424.414C483.393 424.414 473.143 428.637 465.984 430.283C465.984 432.306 488.205 431.601 489.976 431.601C491.733 422.135 493.892 412.973 496.337 404.166C490.726 405.509 484.789 404.811 479.615 403.336V403.336Z" fill="#F9896E" stroke="#191919" stroke-width="1.11" stroke-linecap="round"/>
<mask id="mask2_1_2325" style="mask-type:alpha" maskUnits="userSpaceOnUse" x="466" y="258" width="84" height="147">
<path fill-rule="evenodd" clip-rule="evenodd" d="M499.795 281.56C516.079 224.345 549.167 292.001 549.167 292.001C549.167 292.001 516.822 335.021 498.087 397.994C497.482 400.016 496.899 402.058 496.323 404.126C490.767 405.509 484.789 404.785 479.601 403.336C475.086 402.077 470.81 400.145 466.935 397.612C467.13 392.467 468.324 340.897 498.67 285.829C499.139 284.43 499.514 283.004 499.795 281.56Z" fill="white"/>
</mask>
<g mask="url(#mask2_1_2325)">
<path d="M499.795 281.56C516.079 224.345 549.167 292.001 549.167 292.001C549.167 292.001 516.822 335.021 498.087 397.994C497.482 400.016 496.899 402.058 496.323 404.126C490.767 405.509 484.789 404.785 479.601 403.336C475.086 402.077 470.81 400.145 466.935 397.612C467.13 392.467 468.324 340.897 498.67 285.829C499.139 284.43 499.514 283.004 499.795 281.56Z" fill="#2E3953"/>
<g opacity="0.43">
<path d="M508.926 277.338C508.926 277.338 472.303 332.439 473.748 418.605" stroke="#191919" stroke-width="1.11"/>
<path d="M519.696 278.017C519.696 278.017 480.914 331.78 478.956 417.933" stroke="#191919" stroke-width="1.11"/>
<path d="M534.584 279.564C534.584 279.564 491.878 330.595 483.462 416.378" stroke="#191919" stroke-width="1.11"/>
<path d="M550.237 283.451C550.237 283.451 503.92 331.576 489.337 416.602" stroke="#191919" stroke-width="1.11"/>
</g>
</g>
<path fill-rule="evenodd" clip-rule="evenodd" d="M499.795 281.56C516.079 224.345 549.167 292.001 549.167 292.001C549.167 292.001 516.822 335.021 498.087 397.994C497.483 400.016 496.899 402.058 496.323 404.126C490.768 405.509 484.789 404.785 479.602 403.336C475.086 402.077 470.811 400.145 466.936 397.612C467.13 392.467 468.324 340.897 498.67 285.829C499.139 284.43 499.514 283.004 499.795 281.56V281.56Z" stroke="#191919" stroke-width="1.11" stroke-linecap="round"/>
<mask id="mask3_1_2325" style="mask-type:alpha" maskUnits="userSpaceOnUse" x="488" y="217" width="42" height="48">
<path fill-rule="evenodd" clip-rule="evenodd" d="M528.536 231.545C523.148 231.176 512.697 241.9 506.794 235.108C503.732 231.584 504.711 226.545 506.586 222.244C506.4 222.272 506.212 222.289 506.024 222.296L506.406 221.407L493.441 217.31C493.441 217.31 482.33 232.526 493.288 251.616L493.448 251.899L493.615 252.195C498.302 260.139 507.461 264.085 507.461 264.085C517.481 267.016 533.932 231.914 528.536 231.545Z" fill="white"/>
</mask>
<g mask="url(#mask3_1_2325)">
<path d="M528.536 231.545C523.148 231.176 512.697 241.9 506.794 235.108C503.732 231.584 504.711 226.545 506.586 222.244C506.4 222.272 506.212 222.289 506.024 222.296L506.406 221.407L493.441 217.31C493.441 217.31 482.33 232.526 493.288 251.616L493.448 251.899L493.615 252.195C498.302 260.139 507.461 264.085 507.461 264.085C517.481 267.016 533.932 231.914 528.536 231.545Z" fill="#C0372D"/>
<path d="M503.024 222.323C503.024 222.323 496.635 238.843 507.53 241.504C516.412 243.671 520.627 234.529 529.335 235.629" stroke="white" stroke-width="1.11" stroke-linecap="round"/>
<path d="M499.434 221.295C499.434 221.295 488.025 250.482 515.113 246.919" stroke="white" stroke-width="1.11" stroke-linecap="round"/>
</g>
<path d="M517.051 243.065C517.051 243.065 503.475 253.051 494.524 253.605C497.017 256.641 501.309 261.305 504.857 261.792C508.405 262.28 515.565 247.96 515.565 247.96" fill="#191919"/>
<path d="M517.051 243.065C517.051 243.065 503.475 253.051 494.524 253.605C497.017 256.641 501.309 261.305 504.857 261.792C508.405 262.28 515.565 247.96 515.565 247.96" stroke="#191919" stroke-width="1.11"/>
<path fill-rule="evenodd" clip-rule="evenodd" d="M528.536 231.545C523.148 231.176 512.697 241.9 506.794 235.108C503.732 231.584 504.711 226.545 506.586 222.244C506.4 222.272 506.212 222.289 506.024 222.296L506.406 221.407L493.441 217.31C493.441 217.31 482.33 232.526 493.288 251.616L493.448 251.899L493.615 252.195C498.302 260.139 507.461 264.085 507.461 264.085C517.481 267.016 533.932 231.914 528.536 231.545V231.545Z" stroke="#191919" stroke-width="1.11" stroke-linecap="round"/>
<mask id="mask4_1_2325" style="mask-type:alpha" maskUnits="userSpaceOnUse" x="496" y="231" width="60" height="68">
<path fill-rule="evenodd" clip-rule="evenodd" d="M528.849 231.591C531.001 231.044 533.362 230.985 537.272 231.163C537.272 231.163 554.299 233.705 555.167 263.808C555.861 286.593 552.077 303.054 516.856 297.666C475.491 291.336 509.114 254.441 517.051 243.066C518.162 242.407 526.529 254.968 528.856 231.591" fill="white"/>
</mask>
<g mask="url(#mask4_1_2325)">
<path d="M528.849 231.591C531.001 231.044 533.362 230.985 537.272 231.163C537.272 231.163 554.299 233.705 555.167 263.808C555.861 286.593 552.077 303.054 516.856 297.666C475.491 291.336 509.114 254.441 517.051 243.066" fill="#C0372D"/>
<path d="M511.065 252.077C511.065 252.077 521.592 264.408 555.167 263.512C562.111 271.68 554.875 274.545 554.875 274.545C554.875 274.545 520.155 282.865 503.447 261.786C498.274 250.759 511.065 252.077 511.065 252.077Z" fill="white"/>
</g>
<path d="M501.725 216.836C497.6 215.69 493.934 215.821 493.531 217.126C493.128 218.43 495.746 220.129 499.434 221.295C500.545 219.741 501.579 218.324 502.413 217.033C502.19 216.967 501.961 216.895 501.725 216.836Z" fill="#191919" stroke="#191919" stroke-width="1.11" stroke-linecap="round"/>
<path d="M537.251 231.163C537.251 231.163 554.278 233.705 555.146 263.808C555.84 286.593 551.827 304.259 516.836 297.666C475.47 289.867 509.093 254.441 517.03 243.065" stroke="#191919" stroke-width="1.11" stroke-linecap="round"/>
<path d="M428.681 254.599C424.873 256.727 422.122 260.211 421.042 264.276L425.764 271.719C426.842 267.652 429.594 264.165 433.403 262.036L428.681 254.599Z" fill="#191919" stroke="#191919" stroke-width="1.11"/>
<path d="M433.403 262.036C429.594 264.165 426.843 267.652 425.764 271.719L430.493 279.156C431.572 275.091 434.324 271.606 438.132 269.48L433.403 262.036Z" fill="white" stroke="#191919" stroke-width="1.11"/>
<path d="M423.952 247.156C420.142 249.284 417.39 252.772 416.313 256.839L421.035 264.276C422.115 260.211 424.866 256.727 428.674 254.599L423.952 247.156Z" fill="white" stroke="#191919" stroke-width="1.11"/>
<path d="M430.5 279.156L435.222 286.599C436.302 282.533 439.052 279.046 442.86 276.916L438.138 269.479C434.33 271.606 431.579 275.091 430.5 279.156Z" fill="#191919" stroke="#191919" stroke-width="1.11"/>
<path d="M433.403 262.036L438.125 269.48C441.807 267.491 446.031 266.589 450.256 266.891L445.534 259.447C441.309 259.148 437.085 260.049 433.403 262.036Z" fill="#191919" stroke="#191919" stroke-width="1.11"/>
<path d="M440.805 252.011L436.083 244.567C431.858 244.269 427.635 245.17 423.952 247.156L428.681 254.599C432.36 252.61 436.582 251.709 440.805 252.011Z" fill="#191919" stroke="#191919" stroke-width="1.11"/>
<path d="M445.534 259.448L440.805 252.011C436.582 251.709 432.36 252.61 428.681 254.599L433.403 262.036C437.085 260.049 441.309 259.148 445.534 259.448Z" fill="white" stroke="#191919" stroke-width="1.11"/>
<path d="M438.125 269.48L442.846 276.916C446.53 274.931 450.753 274.029 454.978 274.328L450.256 266.891C446.031 266.589 441.807 267.491 438.125 269.48Z" fill="white" stroke="#191919" stroke-width="1.11"/>
<path d="M443.569 252.307C442.649 252.162 441.722 252.063 440.791 252.011L445.52 259.447C446.451 259.499 447.378 259.6 448.298 259.75C451.769 260.313 455.338 259.665 458.346 257.926L453.617 250.482C450.611 252.226 447.04 252.874 443.569 252.307Z" fill="#191919" stroke="#191919" stroke-width="1.11"/>
<path d="M443.569 252.307C447.038 252.872 450.606 252.224 453.61 250.482L448.888 243.046C445.883 244.783 442.316 245.431 438.847 244.87C437.927 244.72 437 244.619 436.069 244.567L440.791 252.011C441.722 252.063 442.649 252.162 443.569 252.307Z" fill="white" stroke="#191919" stroke-width="1.11"/>
<path d="M448.291 259.75C447.372 259.6 446.444 259.499 445.513 259.447L450.235 266.891C451.166 266.944 452.093 267.043 453.013 267.187C456.482 267.752 460.05 267.104 463.054 265.363L458.332 257.926C455.327 259.663 451.76 260.312 448.291 259.75Z" fill="white" stroke="#191919" stroke-width="1.11"/>
<path d="M453.02 267.187C452.1 267.043 451.173 266.944 450.242 266.891L454.964 274.328C455.895 274.38 456.822 274.481 457.742 274.631C461.22 275.202 464.799 274.554 467.81 272.806L463.088 265.363C460.077 267.11 456.498 267.759 453.02 267.187Z" fill="#191919" stroke="#191919" stroke-width="1.11"/>
<path d="M448.888 243.046L453.61 250.482C457.137 248.394 459.686 244.831 461.061 240.523C459.321 237.716 457.861 234.761 456.7 231.696C455.311 236.011 452.415 240.957 448.888 243.046H448.888Z" fill="#191919" stroke="#191919" stroke-width="1.11"/>
<path d="M458.339 257.926C461.866 255.838 464.408 252.274 465.783 247.96L461.061 240.523C459.672 244.831 457.137 248.394 453.61 250.482L458.339 257.926Z" fill="white" stroke="#191919" stroke-width="1.11"/>
<path d="M467.81 272.806C471.338 270.718 474.143 266.687 475.518 262.372C475.039 261.615 472.914 259.151 470.533 255.403C469.144 259.711 466.616 263.275 463.089 265.363L467.81 272.806Z" fill="white" stroke="#191919" stroke-width="1.11"/>
<path d="M463.061 265.363C466.588 263.275 469.13 259.711 470.505 255.403L465.783 247.96C464.394 252.274 461.866 255.864 458.339 257.926L463.061 265.363Z" fill="#191919" stroke="#191919" stroke-width="1.11"/>
<path d="M455.311 228.864C460.304 239.14 471.546 258.914 492.663 281.073" stroke="#191919" stroke-width="3.34" stroke-linecap="round"/>
<path d="M536.328 212.317C536.328 212.317 531.758 210.012 530.578 211.401C529.397 212.791 527.238 215.703 526.203 213.522C525.168 211.342 521.981 211.625 521.266 214.306C520.551 216.987 524.877 217.086 524.273 218.515C523.669 219.945 521.731 223.64 526.703 222.626C531.675 221.611 536.494 215.13 536.328 212.317Z" fill="#191919" stroke="#191919" stroke-width="1.11"/>
<mask id="mask5_1_2325" style="mask-type:alpha" maskUnits="userSpaceOnUse" x="501" y="246" width="51" height="49">
<path fill-rule="evenodd" clip-rule="evenodd" d="M531.751 246.919C531.751 246.919 536.911 276.165 506.447 273.761V273.88C506.225 273.807 506.037 273.748 505.926 273.722C503.739 273.181 502.121 289.531 501.156 294.181C512.008 294.622 522.789 292.314 532.39 287.495C534.751 286.382 536.965 285.009 538.987 283.405C539.327 283.141 539.508 282.99 539.508 282.99H539.473C550.535 273.827 551.41 260.673 551.41 260.673C551.361 259.981 553.299 243.046 531.751 246.919Z" fill="white"/>
</mask>
<g mask="url(#mask5_1_2325)">
<path d="M531.751 246.919C531.751 246.919 536.911 276.165 506.447 273.761V273.88C506.225 273.807 506.037 273.748 505.926 273.722C503.739 273.181 502.121 289.531 501.156 294.181C512.008 294.622 522.789 292.314 532.39 287.495C534.751 286.382 536.965 285.009 538.987 283.405C539.327 283.141 539.508 282.99 539.508 282.99H539.473C550.535 273.827 551.41 260.673 551.41 260.673C551.361 259.981 553.299 243.046 531.751 246.919Z" fill="#C0372D"/>
</g>
<path d="M529.481 233.903C529.481 233.903 542.112 251.787 533.349 267.227C526.988 278.464 513.551 279.169 506.704 278.715" stroke="white" stroke-linecap="round"/>
<path d="M533.724 230.761C533.724 230.761 548.785 252.735 537.251 270.797C530.161 281.883 513.982 283.273 506.052 283.247" stroke="white" stroke-linecap="round"/>
<path d="M531.751 246.919C531.751 246.919 536.911 276.166 506.447 273.761V273.88C506.225 273.807 506.038 273.748 505.926 273.722C503.739 273.182 502.121 289.531 501.156 294.181C512.008 294.622 522.789 292.314 532.39 287.495C534.751 286.382 536.965 285.009 538.987 283.405C539.327 283.141 539.508 282.99 539.508 282.99H539.473C550.535 273.827 551.41 260.673 551.41 260.673" stroke="#191919" stroke-linecap="round"/>
<path d="M500.718 294.234C501.927 294.478 503.628 291.599 504.947 287.456C503.246 286.628 501.606 285.693 500.038 284.656C499.107 289.847 499.357 293.984 500.718 294.234Z" fill="#191919" stroke="#191919" stroke-linecap="round"/>
<path d="M506.447 273.761C505.954 273.728 505.461 273.682 504.954 273.623L504.086 273.524C486.032 271.377 487.143 267.253 486.282 267.8C485.421 268.347 487.059 272.016 487.059 272.016C487.059 272.016 479.754 274.809 487.302 279.176C489.427 280.803 489.24 277.483 491.948 278.399C493.115 278.794 494.885 281.297 500.038 284.676C501.606 285.713 503.246 286.648 504.947 287.475C505.288 286.395 505.607 285.229 505.878 284.004C506.871 279.564 507.044 275.625 506.447 273.761Z" fill="#F9896E" stroke="#191919" stroke-linecap="round"/>
<path d="M530.71 215.492C530.71 215.492 520.259 225.682 529.189 229.213C528.189 233.165 524.557 243.046 525.988 243.046C527.418 243.046 537.98 236.9 537.834 230.925C537.689 224.951 537.119 209.518 530.71 215.492Z" fill="#F9896E" stroke="#191919"/>
<path d="M534.939 213.76C534.939 213.76 531.786 217.712 532.932 221.539C534.078 225.366 535.973 219.293 536.584 219.497C538.591 220.156 536.584 226.875 538.376 225.992C540.168 225.109 539.765 223.357 540.876 224.898C541.987 226.44 545.855 225.952 546.209 222.659C546.563 219.365 543.431 220.861 544.605 218.516C545.778 216.171 542.952 211.961 534.939 213.76Z" fill="#191919" stroke="#191919"/>
<path d="M533.897 228.475C532.499 229.318 530.799 229.585 529.189 229.213L533.897 228.475Z" fill="#F9896E"/>
<path d="M533.897 228.475C532.499 229.318 530.799 229.585 529.189 229.213" stroke="#191919" stroke-linecap="round"/>
<path d="M529.189 229.213C530.799 229.585 532.499 229.318 533.897 228.475C534.293 229.891 530.425 234.436 527.689 234.252C528.439 231.979 529.189 229.213 529.189 229.213Z" fill="#191919" stroke="#191919"/>
<path d="M556.173 215.287C556.408 214.085 550.88 212.105 543.825 210.863C536.769 209.622 530.86 209.589 530.625 210.791C530.39 211.993 535.918 213.974 542.973 215.215C550.028 216.457 555.938 216.489 556.173 215.287Z" fill="#F9861E" stroke="#191919"/>
<path d="M530.578 210.815C531.349 207.047 539.841 201.521 543.813 202.252C547.785 202.983 545.73 209.695 544.959 213.45" fill="#F9861E"/>
<path d="M530.578 210.815C531.349 207.047 539.841 201.521 543.813 202.252C547.785 202.983 545.855 209.557 545.084 213.325" stroke="#191919" stroke-width="1.11" stroke-linecap="round"/>
<path d="M530.578 208.497C530.754 209.569 531.565 210.451 532.661 210.763" stroke="#191919" stroke-width="1.11" stroke-linecap="round"/>
<path d="M529.89 218.99L527.467 221.506C527.381 221.599 527.351 221.727 527.39 221.846C527.428 221.964 527.528 222.055 527.654 222.086L529.043 222.402" stroke="#191919" stroke-width="1.11" stroke-linecap="round"/>
<path d="M509.162 212.989C511.537 209.201 504.76 207.179 504.378 212.594C504.288 213.858 503.524 215.334 502.413 217.033C501.579 218.351 500.545 219.741 499.434 221.295L500.274 221.546C502.308 222.173 504.454 222.41 506.586 222.244C506.961 221.387 507.371 220.557 507.794 219.774C508.859 217.762 510.146 215.863 511.634 214.109C513.44 212.205 511.003 212.554 509.162 212.989Z" fill="#F5896F"/>
<path d="M509.655 211.593C509.655 211.593 508.746 215.545 505.406 214.557L509.655 211.593Z" fill="#F5896F"/>
<path d="M505.211 157.038C501.692 154.507 497.249 153.421 492.878 154.021L487.42 160.997C491.79 160.399 496.23 161.483 499.753 164.007L505.211 157.038Z" fill="#191919" stroke="#191919" stroke-width="1.11"/>
<path d="M499.753 164.007C496.229 161.481 491.786 160.397 487.414 160.997L481.956 167.973C486.328 167.37 490.772 168.454 494.295 170.983L499.753 164.007Z" fill="white" stroke="#191919" stroke-width="1.11"/>
<path d="M510.669 150.062C507.156 147.541 502.725 146.457 498.364 147.052L492.879 154.021C497.249 153.421 501.692 154.507 505.211 157.038L510.669 150.062Z" fill="white" stroke="#191919" stroke-width="1.11"/>
<path d="M481.962 167.973L476.504 174.949C480.877 174.346 485.321 175.43 488.844 177.959L494.302 170.983C490.779 168.454 486.335 167.37 481.962 167.973Z" fill="#191919" stroke="#191919" stroke-width="1.11"/>
<path d="M499.753 164.007L494.295 170.983C497.631 173.458 500.113 176.82 501.427 180.64L506.892 173.69C505.581 169.861 503.096 166.489 499.753 164.007V164.007Z" fill="#191919" stroke="#191919" stroke-width="1.11"/>
<path d="M512.35 166.695L517.808 159.719C516.494 155.898 514.009 152.536 510.669 150.062L505.211 157.038C508.552 159.51 511.038 162.873 512.35 166.695Z" fill="#191919" stroke="#191919" stroke-width="1.11"/>
<path d="M506.892 173.69L512.35 166.721C511.038 162.899 508.552 159.536 505.211 157.064L499.753 164.007C503.096 166.489 505.581 169.86 506.892 173.69Z" fill="white" stroke="#191919" stroke-width="1.11"/>
<path d="M494.302 170.983L488.844 177.959C492.181 180.432 494.665 183.795 495.976 187.615L501.434 180.64C500.12 176.82 497.638 173.458 494.302 170.983V170.983Z" fill="white" stroke="#191919" stroke-width="1.11"/>
<path d="M513.107 169.231C512.905 168.373 512.652 167.526 512.35 166.695L506.892 173.69C507.194 174.524 507.447 175.373 507.649 176.233C508.422 179.491 510.413 182.374 513.252 184.348L518.71 177.372C515.865 175.391 513.874 172.499 513.107 169.231Z" fill="#191919" stroke="#191919" stroke-width="1.11"/>
<path d="M513.107 169.231C513.88 172.489 515.871 175.372 518.71 177.346L524.168 170.397C521.329 168.422 519.338 165.54 518.565 162.282C518.364 161.415 518.111 160.559 517.808 159.719L512.35 166.695C512.652 167.526 512.905 168.373 513.107 169.231Z" fill="white" stroke="#191919" stroke-width="1.11"/>
<path d="M507.649 176.207C507.447 175.346 507.194 174.497 506.892 173.664L501.434 180.64C501.735 181.472 501.99 182.318 502.197 183.176C502.963 186.436 504.952 189.32 507.794 191.291L513.252 184.322C510.413 182.347 508.422 179.465 507.649 176.207Z" fill="white" stroke="#191919" stroke-width="1.11"/>
<path d="M502.197 183.176C501.99 182.318 501.735 181.472 501.434 180.64L495.976 187.615C496.28 188.446 496.535 189.293 496.739 190.151C497.506 193.411 499.495 196.295 502.336 198.267L507.794 191.291C504.952 189.32 502.963 186.436 502.197 183.176Z" fill="#191919" stroke="#191919" stroke-width="1.11"/>
<path d="M524.168 170.397L518.71 177.372C522.085 179.671 526.529 180.547 531.258 180.119C533.185 177.668 535.272 175.333 537.508 173.13C532.765 173.532 527.529 172.676 524.168 170.397V170.397Z" fill="#191919" stroke="#191919" stroke-width="1.11"/>
<path d="M513.252 184.322C516.627 186.621 521.071 187.497 525.8 187.062L531.258 180.093C526.53 180.521 522.085 179.645 518.71 177.346L513.252 184.322Z" fill="white" stroke="#191919" stroke-width="1.11"/>
<path d="M502.336 198.267C505.711 200.566 510.155 201.442 514.884 201.014L520.342 194.038C515.613 194.473 511.169 193.596 507.794 191.291L502.336 198.267Z" fill="white" stroke="#191919" stroke-width="1.11"/>
<path d="M507.794 191.291C511.169 193.596 515.613 194.472 520.342 194.038L525.8 187.062C521.071 187.497 516.627 186.621 513.252 184.322L507.794 191.291Z" fill="#191919" stroke="#191919" stroke-width="1.11"/>
<path d="M504.183 219.596C503.782 219.594 503.409 219.396 503.198 219.072C502.986 218.748 502.965 218.344 503.142 218.002C503.281 217.738 517.113 191.798 537.911 172.083C538.363 171.652 539.099 171.651 539.553 172.08C540.008 172.509 540.009 173.207 539.557 173.638C519.016 193.109 505.357 218.733 505.218 218.99C505.022 219.361 504.621 219.595 504.183 219.596Z" fill="#191919"/>
<path d="M504.183 214.221C504.183 214.221 506.176 215.229 507.531 214.478C508.885 213.727 510.732 211.085 508.586 209.636C506.44 208.187 504.697 210.407 504.475 211.863C504.253 213.318 504.183 214.221 504.183 214.221H504.183Z" fill="#F5896F"/>
<path fill-rule="evenodd" clip-rule="evenodd" d="M509.162 212.989C511.537 209.201 504.76 207.179 504.378 212.594C504.288 213.858 503.524 215.334 502.413 217.033C501.579 218.351 500.545 219.741 499.434 221.295L500.274 221.546C502.308 222.173 504.454 222.41 506.586 222.244C506.961 221.387 507.371 220.557 507.794 219.774C508.859 217.762 510.146 215.863 511.634 214.109C513.44 212.205 511.003 212.554 509.162 212.989V212.989Z" stroke="#191919" stroke-width="1.11" stroke-linecap="round"/>
<path d="M509.655 211.593C509.655 211.593 508.746 215.545 505.406 214.557" stroke="#191919" stroke-width="1.11" stroke-linecap="round"/>
<path d="M564.215 404.897C564.215 404.897 561.965 407.031 559.868 409.442C556.493 407.136 554.049 408.585 553.861 410.298C553.646 412.195 557.465 412.38 557.465 412.38C556.076 426.693 553.486 431.1 554.653 430.916C555.82 430.731 565.354 416.477 567.548 410.496C567.284 409.567 565.465 406.728 564.215 404.897Z" fill="white"/>
<path d="M564.215 404.897C564.215 404.897 561.965 407.031 559.868 409.442C556.493 407.136 554.049 408.585 553.861 410.298C553.646 412.195 557.465 412.38 557.465 412.38C556.076 426.693 553.486 431.1 554.653 430.916C555.82 430.731 565.354 416.477 567.548 410.496C567.284 409.567 565.465 406.728 564.215 404.897Z" fill="#191919"/>
<path fill-rule="evenodd" clip-rule="evenodd" d="M564.215 404.897C564.215 404.897 561.965 407.031 559.868 409.442C556.493 407.136 554.049 408.585 553.861 410.298C553.646 412.195 557.465 412.38 557.465 412.38C556.076 426.693 553.486 431.1 554.653 430.916C555.819 430.731 565.354 416.477 567.548 410.496C567.284 409.567 565.465 406.728 564.215 404.897V404.897Z" stroke="#191919"/>
<path d="M555.424 415.048C555.424 415.048 558.778 413.822 559.812 415.838" stroke="white"/>
<path d="M554.535 417.801C554.535 417.801 557.889 416.576 558.923 418.591" stroke="white"/>
<path d="M553.653 420.554C553.653 420.554 557.007 419.329 558.035 421.345" stroke="white"/>
<path d="M486.066 424.375C485.219 419.164 480.185 418.499 479.643 421.312C479.275 423.248 480.706 424.25 481.726 425.264C478.546 426.515 471.366 429.216 465.956 430.481C465.956 432.503 488.177 431.765 489.948 431.765C490.379 429.42 490.844 427.102 491.337 424.796C491.337 424.79 488.434 424.421 486.066 424.375Z" fill="#191919"/>
<path d="M480.157 427.01C481.386 425.086 478.477 423.058 478.477 423.058" stroke="white" stroke-linecap="round"/>
<path d="M475.56 423.875C475.56 423.875 478.463 425.851 477.241 427.827" stroke="white" stroke-linecap="round"/>
<path d="M472.671 424.658C472.671 424.658 475.574 426.634 474.352 428.61" stroke="white" stroke-linecap="round"/>
<path d="M512.211 305.287C512.211 305.287 512.155 314.463 521.571 314.463" stroke="white"/>
<path d="M527.37 224.569C527.37 225.704 528.34 226.624 529.536 226.624C530.733 226.624 531.703 225.704 531.703 224.569H527.37Z" fill="white" stroke="#191919"/>
</svg>
