<svg class="close" width="13" height="13" viewBox="0 0 14 14" fill="none" xmlns="http://www.w3.org/2000/svg">
<path d="M12.7816 0.439588C12.5985 0.256027 12.3498 0.152869 12.0905 0.152869C11.8312 0.152869 11.5826 0.256027 11.3994 0.439588L6.60582 5.22337L1.81224 0.429785C1.62909 0.246224 1.38044 0.143066 1.12114 0.143066C0.86184 0.143066 0.613191 0.246224 0.430043 0.429785C0.047733 0.812095 0.047733 1.42967 0.430043 1.81198L5.22362 6.60556L0.430043 11.3991C0.047733 11.7815 0.047733 12.399 0.430043 12.7813C0.812353 13.1637 1.42993 13.1637 1.81224 12.7813L6.60582 7.98776L11.3994 12.7813C11.7817 13.1637 12.3993 13.1637 12.7816 12.7813C13.1639 12.399 13.1639 11.7815 12.7816 11.3991L7.98802 6.60556L12.7816 1.81198C13.1541 1.43948 13.1541 0.812095 12.7816 0.439588Z" fill="white"/>
</svg>
