<svg class="icon icon-logo" aria-hidden="true" style="position: absolute; width: 0; height: 0; overflow: hidden;" version="1.1" xmlns="http://www.w3.org/2000/svg" xmlns:xlink="http://www.w3.org/1999/xlink">
<defs>
<symbol  viewBox="0 0 32 32">
<path class="footer__icon" d="M3.721 0v14.44c1.242-2.402 3.23-4.386 5.674-5.677v-8.763h-5.674z"></path>
<path  class="footer__icon" d="M22.068 23.009c-1.117-0.803-2.415-1.39-3.823-1.695 0.759-0.612 1.241-1.528 1.241-2.552 0-1.843-1.561-3.336-3.486-3.336s-3.486 1.494-3.486 3.336c0 1.024 0.482 1.94 1.241 2.552-1.409 0.305-2.706 0.892-3.823 1.695-1.603 1.152-2.837 2.751-3.501 4.602 0.937 1.115 2.093 2.075 3.43 2.814 3.799 2.1 8.48 2.1 12.28 0 1.337-0.739 2.493-1.698 3.43-2.814-0.666-1.852-1.899-3.45-3.503-4.602z"></path>
<path class="logo__yellow footer__icon"  d="M16 8.493c6.782 0 12.279 5.261 12.279 11.752 0 2.076-0.562 4.024-1.549 5.717-0.802-1.799-2.090-3.374-3.733-4.555-0.167-0.12-0.336-0.235-0.509-0.346 0.037-0.267 0.055-0.539 0.055-0.816 0-3.458-2.93-6.262-6.543-6.262s-6.543 2.804-6.543 6.262c0 0.277 0.019 0.549 0.055 0.816-0.173 0.111-0.342 0.226-0.509 0.346-1.643 1.181-2.931 2.756-3.733 4.555-0.987-1.692-1.549-3.641-1.549-5.717 0-6.491 5.497-11.752 12.279-11.752z"></path>
</symbol>
</defs>
</svg>
